{"glyphs":{"0":{"ha":1528,"x_min":69,"x_max":1458,"o":"m 610 -256 l 606 -224 q 651 -111 606 -157 q 764 -65 697 -65 q 875 -112 831 -65 q 922 -224 922 -157 l 918 -256 l 911 -278 l 1032 -242 l 1094 -212 l 1151 -179 l 1129 -168 l 1106 -149 q 1058 -36 1058 -101 q 1106 75 1058 28 q 1217 122 1153 122 q 1328 75 1281 122 q 1349 50 1340 65 l 1360 29 l 1393 86 l 1422 149 l 1458 268 l 1436 263 l 1404 258 q 1292 304 1338 258 q 1246 417 1246 350 q 1292 529 1246 483 q 1404 575 1338 575 l 1436 571 l 1458 565 l 1422 685 l 1393 747 l 1360 804 l 1349 783 q 1328 758 1340 769 q 1217 711 1282 711 q 1105 758 1151 711 q 1058 869 1058 806 q 1106 982 1058 932 l 1129 1001 l 1151 1013 l 1094 1046 l 1032 1075 l 911 1111 l 918 1089 l 922 1057 q 876 944 922 990 q 764 899 831 899 q 651 944 697 899 q 606 1057 606 990 l 610 1089 l 615 1111 l 496 1075 l 433 1046 l 376 1013 l 397 1001 q 422 981 413 993 q 469 869 469 935 q 422 758 469 804 q 311 711 376 711 q 199 758 246 711 l 179 782 l 168 804 l 135 747 l 106 685 l 69 564 l 92 571 l 124 575 q 235 528 190 575 q 282 417 282 483 q 236 304 282 350 q 124 258 190 258 l 92 263 l 69 268 l 106 149 l 135 86 l 168 29 l 179 50 l 199 75 q 311 122 249 122 q 422 76 375 122 q 469 -36 469 29 q 422 -149 469 -103 l 397 -168 l 376 -179 l 433 -212 l 496 -242 l 615 -278 l 610 -256 m 675 56 q 701 118 675 92 q 764 144 728 144 q 827 119 801 144 q 853 56 853 93 q 826 -7 853 19 q 764 -33 803 -33 q 701 -7 728 -33 q 675 56 675 19 m 956 99 q 929 161 929 125 q 956 225 929 196 q 1019 251 985 251 q 1082 225 1056 251 q 1108 161 1108 199 q 1081 98 1108 124 q 1019 72 1053 72 q 956 99 985 72 m 446 99 q 419 161 419 125 q 446 225 419 196 q 510 251 475 251 q 572 225 546 251 q 599 161 599 199 q 571 98 599 124 q 508 72 543 72 q 446 99 472 72 m 699 260 l 607 260 l 607 351 l 542 417 l 607 482 l 607 574 l 699 574 l 764 639 l 829 574 l 921 574 l 921 482 l 986 417 l 921 351 l 921 260 l 829 260 l 764 194 l 699 260 m 875 417 q 842 495 875 463 q 764 528 810 528 q 685 495 718 528 q 653 417 653 463 q 685 338 653 371 q 764 306 718 306 q 842 338 810 306 q 875 417 875 371 m 314 417 q 340 479 314 453 q 403 506 367 506 q 465 479 439 506 q 492 417 492 453 q 466 353 492 379 q 403 328 440 328 q 340 354 367 328 q 314 417 314 381 m 1036 417 q 1062 480 1036 454 q 1125 506 1088 506 q 1188 479 1161 506 q 1214 417 1214 453 q 1188 354 1214 378 q 1125 328 1161 328 q 1063 354 1089 328 q 1036 417 1036 381 m 446 608 q 419 671 419 635 q 446 735 419 706 q 510 761 475 761 q 572 735 546 761 q 599 671 599 708 q 572 608 599 633 q 508 583 544 583 q 446 608 471 583 m 956 608 q 929 671 929 635 q 956 735 929 706 q 1019 761 985 761 q 1082 735 1056 761 q 1108 671 1108 708 q 1081 608 1108 633 q 1019 583 1054 583 q 956 608 983 583 m 675 778 q 701 840 675 814 q 764 867 728 867 q 826 840 800 867 q 853 778 853 814 q 827 715 853 740 q 764 689 801 689 q 701 715 726 689 q 675 778 675 740 z "},"1":{"ha":1528,"x_min":69,"x_max":1458,"o":"m 1458 417 q 1255 908 1458 704 q 764 1111 1051 1111 q 273 908 476 1111 q 69 417 69 704 q 273 -74 69 129 q 764 -278 476 -278 q 1255 -74 1051 -278 q 1458 417 1458 129 m 579 -68 l 569 -51 l 551 -57 q 508 -61 531 -61 q 425 -44 467 -61 q 352 3 383 -28 q 303 76 321 35 q 286 163 286 118 q 290 204 286 183 l 296 224 l 279 232 q 206 310 232 264 q 181 417 181 357 q 207 522 181 474 q 279 601 233 569 l 296 610 l 290 629 q 286 672 286 650 q 303 756 286 714 q 351 828 319 797 q 424 877 382 860 q 510 894 465 894 q 551 890 531 894 l 571 885 l 579 901 q 658 974 611 949 q 764 1000 704 1000 q 869 974 821 1000 q 949 901 917 947 l 957 885 l 976 890 q 1019 894 997 894 q 1103 878 1061 894 q 1176 830 1144 861 q 1224 757 1207 799 q 1242 671 1242 715 q 1238 629 1242 650 l 1232 610 l 1249 601 q 1322 523 1296 569 q 1347 417 1347 476 q 1321 312 1347 360 q 1249 232 1294 264 l 1232 224 l 1238 204 q 1242 161 1242 183 q 1225 78 1242 119 q 1177 5 1208 36 q 1104 -44 1146 -26 q 1018 -61 1063 -61 q 976 -57 997 -61 l 957 -51 l 949 -68 q 870 -141 917 -115 q 764 -167 824 -167 q 659 -140 707 -167 q 579 -68 611 -114 m 876 53 q 844 133 876 100 q 764 165 811 165 q 684 133 717 165 q 651 53 651 100 q 683 -28 651 6 q 764 -61 715 -61 q 843 -28 810 -61 q 876 53 876 6 m 1101 79 q 1135 158 1135 113 q 1101 239 1135 206 q 1022 272 1068 272 q 942 239 975 272 q 908 158 908 206 q 942 79 908 113 q 1021 46 975 46 q 1101 79 1068 46 m 586 79 q 619 158 619 113 q 586 239 619 206 q 507 272 553 272 q 426 239 460 272 q 393 158 393 206 q 426 79 393 113 q 507 46 460 46 q 586 79 553 46 m 719 275 l 764 279 l 808 275 l 825 271 l 832 285 l 861 319 l 896 349 l 910 357 l 906 372 l 901 417 l 906 461 l 910 476 l 896 485 l 861 514 l 832 549 l 825 563 l 808 558 l 764 554 l 719 558 l 704 563 l 696 549 l 667 514 l 632 485 l 618 476 l 622 461 l 626 417 l 622 372 l 618 357 l 632 349 l 667 319 l 696 285 l 703 271 l 719 275 m 1242 417 q 1208 496 1242 463 q 1128 529 1175 529 q 1048 497 1081 529 q 1015 417 1015 464 q 1048 337 1015 369 q 1128 304 1081 304 q 1208 336 1175 304 q 1242 417 1242 368 m 513 417 q 480 497 513 464 q 400 529 447 529 q 319 497 353 529 q 286 417 286 465 q 319 338 286 371 q 400 304 353 304 q 480 337 447 304 q 513 417 513 369 m 586 594 q 619 674 619 628 q 586 754 619 721 q 507 788 553 788 q 426 754 460 788 q 393 674 393 721 q 426 594 393 628 q 507 561 460 561 q 586 594 553 561 m 1101 594 q 1135 674 1135 628 q 1101 754 1135 721 q 1022 788 1068 788 q 942 754 975 788 q 908 674 908 721 q 942 594 908 628 q 1021 561 975 561 q 1101 594 1068 561 m 876 781 q 844 861 876 828 q 764 894 813 894 q 685 861 718 894 q 651 781 651 828 q 684 701 651 733 q 764 668 717 668 q 844 701 811 668 q 876 781 876 733 z "},"2":{"ha":1528,"x_min":69,"x_max":1458,"o":"m 529 -201 q 508 -147 529 -169 q 454 -125 488 -125 q 400 -147 422 -125 q 378 -201 378 -169 q 400 -256 378 -233 q 454 -278 422 -278 q 507 -256 485 -278 q 529 -201 529 -233 m 1128 -256 q 1150 -201 1150 -233 q 1128 -147 1150 -169 q 1074 -125 1106 -125 q 1021 -147 1043 -125 q 999 -201 999 -169 q 1019 -256 999 -233 q 1074 -278 1040 -278 q 1128 -256 1106 -278 m 289 -165 q 313 -112 313 -144 q 290 -59 313 -82 q 236 -36 268 -36 q 182 -60 204 -36 q 160 -112 160 -83 q 182 -165 160 -143 q 236 -187 204 -187 q 289 -165 268 -187 m 1346 -165 q 1368 -112 1368 -144 q 1347 -58 1368 -81 q 1293 -36 1325 -36 q 1239 -58 1261 -36 q 1217 -112 1217 -81 q 1239 -165 1217 -144 q 1292 -187 1260 -187 q 1346 -165 1324 -187 m 1335 417 q 1168 821 1335 654 q 764 988 1001 988 q 360 821 526 988 q 193 417 193 654 q 360 13 193 179 q 764 -154 526 -154 q 1168 13 1001 -154 q 1335 417 1335 179 m 213 417 q 374 807 213 646 q 764 968 535 968 q 1154 807 993 968 q 1315 417 1315 646 q 1154 26 1315 188 q 764 -135 993 -135 q 374 26 535 -135 q 213 417 213 188 m 1436 53 q 1458 107 1458 75 q 1436 160 1458 138 q 1382 182 1414 182 q 1328 161 1350 182 q 1306 107 1306 140 q 1328 53 1306 75 q 1382 31 1350 31 q 1436 53 1414 31 m 221 107 q 199 160 221 139 q 146 182 178 182 q 92 161 114 182 q 69 107 69 140 q 92 53 69 75 q 146 31 114 31 q 199 53 176 31 q 221 107 221 75 m 764 174 l 1107 74 l 1007 417 l 1107 760 l 764 660 l 421 760 l 521 417 l 421 74 l 764 174 m 1436 674 q 1458 726 1458 696 q 1436 781 1458 758 q 1382 803 1414 803 q 1328 781 1350 803 q 1306 726 1306 758 q 1328 674 1306 696 q 1382 651 1350 651 q 1436 674 1414 651 m 221 726 q 200 781 221 758 q 146 803 179 803 q 92 781 114 803 q 69 726 69 758 q 92 674 69 696 q 146 651 114 651 q 199 673 178 651 q 221 726 221 694 m 289 892 q 313 944 313 913 q 290 998 313 975 q 236 1021 267 1021 q 182 999 207 1021 q 160 944 160 974 q 182 892 160 914 q 236 869 204 869 q 289 892 268 869 m 1346 892 q 1368 944 1368 913 q 1346 999 1368 976 q 1292 1021 1324 1021 q 1238 999 1263 1021 q 1215 944 1215 974 q 1238 892 1215 914 q 1292 869 1260 869 q 1346 892 1324 869 m 1128 982 q 1150 1035 1150 1001 q 1128 1089 1150 1067 q 1074 1111 1106 1111 q 1021 1089 1043 1111 q 999 1035 999 1067 q 1020 981 999 1003 q 1074 960 1042 960 q 1128 982 1106 960 m 529 1035 q 508 1089 529 1067 q 454 1111 488 1111 q 400 1089 422 1111 q 378 1035 378 1067 q 400 982 378 1004 q 454 960 422 960 q 508 981 486 960 q 529 1035 529 1003 z "},"3":{"ha":1528,"x_min":69,"x_max":1458,"o":"m 983 -147 l 990 -131 l 1031 -143 q 1079 -147 1054 -147 q 1255 -74 1182 -147 q 1328 104 1328 -1 q 1324 150 1328 126 l 1311 189 l 1328 197 q 1423 289 1388 231 q 1458 417 1458 347 q 1423 544 1458 486 q 1328 636 1388 603 l 1311 644 l 1324 683 q 1328 731 1328 707 q 1254 907 1328 833 q 1076 981 1181 981 q 1031 976 1054 981 l 990 964 l 983 981 q 892 1076 950 1040 q 764 1111 833 1111 q 636 1076 694 1111 q 544 981 578 1040 l 536 964 l 497 976 q 450 981 474 981 q 273 908 346 981 q 200 729 200 835 q 204 683 200 707 l 217 643 l 200 636 q 105 544 140 603 q 69 417 69 486 q 105 289 69 347 q 200 197 140 231 l 217 189 l 204 150 q 200 101 200 126 q 272 -75 200 0 q 354 -128 307 -110 q 451 -147 401 -147 q 497 -143 474 -147 l 538 -131 l 544 -147 q 636 -242 578 -207 q 764 -278 694 -278 q 892 -242 833 -278 q 983 -147 950 -207 m 614 -111 l 600 -94 l 625 -75 q 685 19 665 -35 l 690 40 q 764 19 722 19 q 838 40 806 19 l 843 19 q 903 -75 863 -35 l 928 -94 l 914 -111 q 764 -174 851 -174 q 683 -158 722 -174 q 614 -111 644 -142 m 346 -1 q 285 149 285 63 l 286 169 l 293 168 l 318 168 q 426 192 376 168 l 446 203 l 447 196 q 483 136 458 158 q 510 115 494 124 q 543 100 525 106 l 550 99 l 539 79 q 515 -29 515 29 l 515 -54 l 517 -61 l 496 -62 q 346 -1 410 -62 m 1011 -61 l 1011 -54 l 1013 -29 q 989 79 1013 29 l 978 99 l 985 100 q 1044 136 1022 111 q 1066 163 1057 147 q 1081 196 1075 178 l 1082 203 l 1101 192 q 1210 168 1151 168 l 1235 168 l 1242 169 l 1243 149 q 1181 -1 1243 61 q 1113 -47 1150 -32 q 1032 -62 1075 -62 l 1011 -61 m 951 -47 q 916 -28 935 -40 q 882 -1 897 -17 l 854 32 l 847 47 l 867 64 q 878 76 874 69 q 889 94 883 83 l 893 103 l 917 97 q 951 94 935 93 l 967 97 l 971 81 q 974 60 972 69 q 976 39 976 51 q 958 -44 976 -4 l 957 -49 l 951 -47 m 568 -44 q 557 -10 563 -29 q 551 39 551 10 q 551 56 551 49 q 557 81 551 64 l 561 97 l 576 94 q 611 97 593 93 l 633 103 l 639 94 q 661 64 649 75 l 681 47 l 674 32 l 646 -1 q 576 -47 611 -33 l 571 -49 l 568 -44 m 678 114 l 671 124 l 685 136 q 724 210 715 167 l 725 225 l 724 218 q 696 178 714 196 q 657 151 678 160 l 653 153 q 643 200 643 174 q 653 247 643 228 l 656 254 l 646 242 q 621 163 621 206 l 622 147 l 611 143 q 525 178 560 143 q 490 264 490 213 l 490 275 l 510 274 q 551 281 531 274 q 589 299 572 288 l 601 308 l 594 306 q 547 296 575 296 q 500 306 521 296 l 499 310 q 525 349 507 331 q 565 376 543 367 l 572 378 l 557 376 q 483 338 514 368 l 471 324 l 461 331 q 426 417 426 368 q 435 463 426 440 q 461 503 444 486 l 471 510 l 483 496 q 557 457 514 465 l 572 456 l 565 457 q 525 483 543 467 q 499 524 507 504 l 500 528 q 547 538 521 538 q 594 528 575 538 l 601 525 l 589 535 q 510 560 553 560 l 494 558 l 490 569 q 525 656 490 621 q 611 690 560 690 l 622 690 l 621 671 q 628 629 621 650 q 646 592 635 608 l 656 579 l 653 586 q 643 633 643 606 q 653 681 643 660 l 657 682 q 696 656 678 674 q 724 615 714 639 l 725 608 l 724 624 q 685 697 715 667 l 671 710 l 678 719 q 764 754 715 754 q 810 745 788 754 q 850 719 833 736 l 857 710 l 843 697 q 804 624 813 667 l 803 608 l 804 615 q 833 656 815 639 q 871 682 850 674 l 875 681 q 885 633 885 660 q 875 586 885 606 l 872 579 l 882 592 q 907 671 907 628 l 906 686 l 917 690 q 1003 656 968 690 q 1038 569 1038 621 l 1038 558 l 1018 560 q 976 553 997 560 q 939 535 956 546 l 926 525 l 933 528 q 981 538 953 538 q 1028 528 1007 538 l 1029 524 q 1019 505 1025 515 q 1003 483 1013 494 q 963 457 985 467 l 956 456 l 971 457 q 1044 496 1014 465 l 1057 510 l 1067 503 q 1101 417 1101 465 q 1092 370 1101 393 q 1067 331 1083 347 l 1057 324 l 1044 338 q 971 376 1014 368 l 956 378 l 963 376 q 1003 349 986 367 q 1029 310 1021 331 l 1028 306 q 981 296 1007 296 q 933 306 953 296 l 926 308 l 939 299 q 1018 274 975 274 l 1033 275 l 1038 264 q 1003 178 1038 213 q 917 143 968 143 l 906 143 l 907 163 q 900 204 907 183 q 882 242 893 225 l 872 254 l 875 247 q 885 200 885 228 q 875 153 885 174 l 871 151 q 833 178 850 160 q 804 218 815 196 l 803 225 l 804 210 q 843 136 813 167 l 857 124 l 850 114 q 764 79 813 79 q 717 88 740 79 q 678 114 694 97 m 303 222 l 299 224 l 300 229 q 319 265 307 246 q 346 299 332 283 l 379 326 l 394 333 l 411 314 q 424 302 417 307 q 442 292 431 297 l 450 286 l 444 264 q 442 229 440 246 l 444 214 l 428 210 q 408 206 417 207 q 386 204 399 204 q 303 222 343 204 m 1100 210 l 1083 214 l 1086 229 q 1083 264 1088 246 l 1076 286 l 1086 292 q 1117 314 1107 301 l 1133 333 l 1149 326 q 1181 299 1171 310 q 1228 229 1210 269 l 1229 224 l 1225 222 q 1142 204 1185 204 q 1119 206 1132 204 q 1100 210 1107 208 m 1254 278 q 1161 338 1217 318 l 1140 343 q 1161 417 1161 375 q 1140 490 1161 458 l 1161 496 q 1254 556 1217 515 l 1275 581 l 1292 567 q 1354 417 1354 504 q 1338 336 1354 375 q 1292 267 1322 297 l 1275 253 l 1254 278 m 236 267 q 174 417 174 329 q 190 498 174 458 q 236 567 207 538 l 253 581 l 272 556 q 367 496 313 515 l 388 490 q 367 417 367 458 q 388 343 367 375 l 367 338 q 272 278 313 318 l 253 253 l 236 267 m 875 417 q 842 495 875 463 q 764 528 810 528 q 685 495 718 528 q 653 417 653 463 q 685 338 653 371 q 764 306 718 306 q 842 338 810 306 q 875 417 875 371 m 379 507 l 346 535 q 300 604 314 569 l 299 610 l 303 611 q 386 629 343 629 q 413 626 403 629 q 428 624 424 624 l 444 619 l 442 604 q 444 569 440 588 l 450 547 l 442 542 q 411 519 425 533 l 394 500 l 379 507 m 1117 519 q 1104 531 1111 526 q 1086 542 1097 536 l 1076 547 l 1083 569 q 1086 604 1088 588 l 1083 619 l 1100 624 q 1119 627 1110 625 q 1142 629 1129 629 q 1225 611 1185 629 l 1229 610 l 1228 604 q 1181 535 1210 564 q 1171 525 1178 532 q 1149 507 1164 518 l 1133 500 l 1117 519 m 426 642 q 318 665 376 665 l 293 665 l 286 664 l 285 685 q 347 834 285 772 q 496 896 408 896 l 517 894 l 515 888 l 515 863 q 539 754 515 804 l 550 735 l 543 733 q 483 697 506 722 q 462 671 471 686 q 447 638 453 656 l 446 631 l 426 642 m 1081 638 q 1044 697 1069 675 q 1018 719 1033 710 q 985 733 1003 728 l 978 735 l 989 754 q 1013 863 1013 804 l 1011 888 l 1011 894 l 1032 896 q 1181 834 1119 896 q 1243 685 1243 772 l 1242 664 l 1235 665 l 1210 665 q 1101 642 1151 665 l 1082 631 l 1081 638 m 611 736 q 576 739 593 740 l 561 736 l 557 753 q 551 794 551 771 q 556 837 551 818 q 568 878 560 856 l 571 882 l 576 881 q 646 833 617 863 q 656 824 649 831 q 674 801 663 817 l 681 786 l 661 769 q 649 757 654 764 q 639 739 644 750 l 633 729 l 611 736 m 889 739 q 867 769 879 760 l 847 786 l 854 801 q 869 821 861 811 q 882 833 878 831 q 951 881 911 863 l 957 882 l 958 878 q 976 794 976 838 q 974 772 976 785 q 971 753 972 760 l 967 736 l 951 739 q 917 736 935 740 l 893 729 l 889 739 m 685 814 q 625 907 665 869 l 600 928 l 614 944 q 764 1007 676 1007 q 845 991 806 1007 q 914 944 885 975 l 928 928 l 903 907 q 843 814 863 869 l 838 793 q 764 814 806 814 q 690 793 722 814 l 685 814 z "},"4":{"ha":1528,"x_min":69,"x_max":1458,"o":"m 1458 417 q 1255 908 1458 704 q 764 1111 1051 1111 q 273 908 476 1111 q 69 417 69 704 q 273 -74 69 129 q 764 -278 476 -278 q 1255 -74 1051 -278 q 1458 417 1458 129 m 631 -128 q 640 -76 631 -97 l 646 -68 l 569 -44 l 504 -8 l 503 -19 q 474 -64 492 -44 q 378 -103 435 -103 q 283 -62 322 -103 q 244 31 244 -22 q 283 126 244 85 q 328 156 303 144 l 339 157 l 303 222 l 279 299 l 271 293 q 219 283 250 283 q 124 322 163 283 q 85 417 85 361 q 124 511 85 472 q 219 550 163 550 q 271 540 250 550 l 279 535 l 303 611 l 339 676 l 328 678 q 283 707 303 689 q 244 801 244 749 q 283 897 244 856 q 379 936 325 936 q 474 897 432 936 q 503 853 492 878 l 504 842 l 569 878 l 646 901 l 640 910 q 631 963 631 931 q 669 1057 631 1018 q 764 1096 708 1096 q 858 1057 819 1096 q 897 963 897 1018 q 888 910 897 931 l 882 901 l 958 878 l 1024 842 l 1025 853 q 1054 897 1036 878 q 1150 936 1096 936 q 1243 897 1203 936 q 1283 801 1283 858 q 1244 707 1283 746 q 1200 678 1225 689 l 1189 676 l 1225 611 l 1249 535 l 1257 540 q 1310 550 1278 550 q 1404 511 1365 550 q 1443 417 1443 472 q 1404 322 1443 361 q 1310 283 1365 283 q 1257 293 1278 283 l 1249 299 l 1225 222 l 1189 157 l 1200 156 q 1244 126 1225 144 q 1283 31 1283 88 q 1244 -64 1283 -25 q 1149 -103 1206 -103 q 1054 -64 1093 -103 q 1025 -19 1036 -44 l 1024 -8 l 958 -44 l 882 -68 l 888 -76 q 897 -128 897 -97 q 858 -224 897 -185 q 764 -262 819 -262 q 669 -224 708 -262 q 631 -128 631 -185 m 1161 417 q 1045 698 1161 582 q 764 814 929 814 q 483 698 599 814 q 367 417 367 582 q 483 135 367 251 q 764 19 599 19 q 1045 135 929 19 q 1161 417 1161 251 m 426 417 q 525 656 426 557 q 764 754 624 754 q 1003 656 904 754 q 1101 417 1101 557 q 1003 178 1101 276 q 764 79 904 79 q 525 178 624 79 q 426 417 426 276 m 850 265 q 825 325 850 300 q 764 350 800 350 q 703 326 728 350 q 678 265 678 303 q 703 204 678 229 q 764 179 728 179 q 825 204 800 179 q 850 265 850 229 m 697 417 q 674 478 697 453 q 613 503 650 503 q 551 478 576 503 q 526 417 526 453 q 551 356 526 381 q 613 331 576 331 q 672 356 647 331 q 697 417 697 381 m 1001 417 q 976 478 1001 453 q 915 503 951 503 q 856 478 881 503 q 831 417 831 453 q 854 356 831 381 q 915 331 878 331 q 976 356 951 331 q 1001 417 1001 381 m 850 568 q 825 629 850 604 q 764 654 800 654 q 703 629 728 654 q 678 568 678 604 q 703 508 678 533 q 764 483 728 483 q 825 507 800 483 q 850 568 850 531 z "},"5":{"ha":1528,"x_min":69,"x_max":1458,"o":"m 1458 417 q 1255 908 1458 704 q 764 1111 1051 1111 q 273 908 476 1111 q 69 417 69 704 q 273 -74 69 129 q 764 -278 476 -278 q 1255 -74 1051 -278 q 1458 417 1458 129 m 631 -128 q 640 -76 631 -97 l 646 -68 l 569 -44 l 504 -8 l 503 -19 q 474 -64 492 -44 q 378 -103 435 -103 q 283 -62 322 -103 q 244 31 244 -22 q 283 126 244 85 q 328 156 303 144 l 339 157 l 303 222 l 279 299 l 271 293 q 219 283 250 283 q 124 322 163 283 q 85 417 85 361 q 124 511 85 472 q 219 550 163 550 q 271 540 250 550 l 279 535 l 303 611 l 339 676 l 328 678 q 283 707 303 689 q 244 801 244 749 q 283 897 244 856 q 379 936 325 936 q 474 897 432 936 q 503 853 492 878 l 504 842 l 569 878 l 646 901 l 640 910 q 631 963 631 931 q 669 1057 631 1018 q 764 1096 708 1096 q 858 1057 819 1096 q 897 963 897 1018 q 888 910 897 931 l 882 901 l 958 878 l 1024 842 l 1025 853 q 1054 897 1036 878 q 1150 936 1096 936 q 1243 897 1203 936 q 1283 801 1283 858 q 1244 707 1283 746 q 1200 678 1225 689 l 1189 676 l 1225 611 l 1249 535 l 1257 540 q 1310 550 1278 550 q 1404 511 1365 550 q 1443 417 1443 472 q 1404 322 1443 361 q 1310 283 1365 283 q 1257 293 1278 283 l 1249 299 l 1225 222 l 1189 157 l 1200 156 q 1244 126 1225 144 q 1283 31 1283 88 q 1244 -64 1283 -25 q 1149 -103 1206 -103 q 1054 -64 1093 -103 q 1025 -19 1036 -44 l 1024 -8 l 958 -44 l 882 -68 l 888 -76 q 897 -128 897 -97 q 858 -224 897 -185 q 764 -262 819 -262 q 669 -224 708 -262 q 631 -128 631 -185 m 882 38 l 914 49 l 939 42 q 972 39 950 39 q 1092 89 1042 39 q 1142 210 1142 139 q 1139 242 1142 231 l 1132 267 l 1143 299 q 1154 346 1147 311 q 1161 417 1161 381 q 1157 474 1161 449 q 1143 535 1153 500 l 1132 567 l 1139 592 q 1142 625 1142 603 q 1092 744 1142 694 q 971 794 1042 794 q 939 792 950 794 l 914 785 l 882 796 q 835 807 869 800 q 764 814 800 814 q 706 810 732 814 q 646 796 681 806 l 614 785 l 589 792 q 556 794 578 794 q 436 744 486 794 q 386 624 386 694 q 389 592 386 603 l 396 567 l 385 535 q 374 488 381 522 q 367 417 367 453 q 371 359 367 385 q 385 299 375 333 l 396 267 l 389 242 q 386 208 386 231 q 436 89 386 139 q 557 39 486 39 q 589 42 578 39 l 614 49 l 646 38 q 693 26 658 33 q 764 19 728 19 q 822 24 796 19 q 882 38 847 28 m 651 53 l 636 58 l 650 67 q 662 75 654 69 q 678 89 669 81 l 699 115 l 710 135 l 706 136 q 561 214 622 153 q 483 358 500 275 l 482 363 l 463 351 l 436 331 q 414 303 421 315 l 406 289 l 400 304 q 383 417 383 357 q 400 529 383 476 l 406 544 l 414 531 q 422 519 417 526 q 436 503 428 511 l 463 482 l 482 471 l 483 475 q 561 619 500 558 q 706 697 622 681 l 710 699 l 699 718 l 678 744 q 650 767 663 760 l 636 775 l 651 781 q 764 797 704 797 q 876 781 824 797 l 892 775 l 878 767 q 866 758 874 764 q 850 744 858 753 l 829 718 l 818 699 l 822 697 q 967 619 906 681 q 1044 475 1028 558 l 1046 471 l 1065 482 l 1092 503 q 1114 531 1107 518 l 1122 544 l 1128 529 q 1144 417 1144 476 q 1128 304 1144 357 l 1122 289 l 1114 303 q 1106 315 1111 307 q 1092 331 1100 322 l 1065 351 l 1046 363 l 1044 358 q 967 214 1028 275 q 822 136 906 153 l 818 135 l 829 115 l 850 89 q 878 67 865 74 l 892 58 l 876 53 q 764 36 824 36 q 651 53 704 36 m 983 417 l 764 636 l 544 417 l 764 197 l 983 417 z "},"6":{"ha":1697,"x_min":78,"x_max":1619,"o":"m 1117 -36 q 1071 99 1117 38 l 1047 125 l 1051 118 q 1066 75 1063 93 q 1069 39 1069 57 q 1004 -103 1069 -43 q 849 -162 939 -162 q 692 -103 757 -162 q 628 39 628 -44 q 646 118 628 78 l 650 125 l 626 99 q 581 -36 581 38 q 658 -207 581 -136 q 849 -278 736 -278 q 1038 -208 960 -278 q 1117 -36 1117 -137 m 1038 92 q 1029 147 1038 121 q 1006 197 1021 172 l 985 221 l 1043 281 l 1068 260 q 1174 228 1118 228 l 1185 228 l 1201 217 q 1351 175 1269 175 q 1541 245 1463 175 q 1619 417 1619 315 q 1542 588 1619 517 q 1351 658 1464 658 q 1201 617 1269 658 l 1185 606 l 1174 606 q 1119 597 1144 606 q 1068 574 1093 589 l 1043 553 l 985 611 l 1006 636 q 1038 742 1038 686 q 982 875 1038 819 q 849 931 926 931 q 715 875 771 931 q 660 742 660 819 q 692 636 660 683 l 713 611 l 653 553 l 629 574 q 522 606 579 606 l 513 606 l 496 617 q 346 658 428 658 q 156 588 235 658 q 78 417 78 518 q 156 246 78 317 q 346 175 233 175 q 496 217 428 175 l 513 228 l 522 228 q 629 260 579 228 l 653 281 l 713 221 l 692 197 q 660 92 660 150 q 715 -42 660 14 q 849 -97 771 -97 q 983 -42 928 -97 q 1038 92 1038 13 m 579 417 l 849 686 l 1118 417 l 849 147 l 579 417 m 215 417 q 280 559 215 500 q 436 618 344 618 l 481 614 l 511 606 l 504 604 q 383 544 432 597 q 335 417 335 490 q 383 290 335 344 q 504 229 432 236 l 513 228 l 481 219 l 436 215 q 280 274 344 215 q 215 417 215 333 m 1217 219 l 1185 228 l 1193 229 q 1314 290 1265 236 q 1363 417 1363 343 q 1314 543 1363 489 q 1193 604 1265 597 l 1185 606 l 1217 614 l 1261 618 q 1417 559 1353 618 q 1482 417 1482 500 q 1417 274 1482 333 q 1261 215 1353 215 l 1217 219 m 981 417 q 942 510 981 471 q 849 549 903 549 q 756 510 794 549 q 717 417 717 471 q 756 324 717 363 q 849 285 794 285 q 942 324 903 285 q 981 417 981 363 m 646 715 q 631 758 635 740 q 628 794 628 776 q 692 937 628 878 q 849 996 757 996 q 1004 938 939 996 q 1069 794 1069 879 q 1051 715 1069 756 l 1047 708 l 1071 735 q 1117 869 1117 796 q 1039 1040 1117 969 q 849 1111 961 1111 q 659 1041 738 1111 q 581 869 581 971 q 626 735 581 796 l 650 708 l 646 715 z "},"7":{"ha":1528,"x_min":69,"x_max":1458,"o":"m 883 -97 l 896 -93 q 1025 -40 963 -75 l 1040 -29 l 1043 -32 q 1128 -78 1085 -61 q 1201 -94 1171 -94 q 1256 -75 1233 -94 q 1275 -19 1275 -53 q 1213 138 1275 47 l 1210 140 l 1219 154 q 1274 283 1256 215 l 1276 297 q 1410 344 1361 313 q 1458 417 1458 375 q 1408 488 1458 456 q 1278 536 1358 521 l 1274 550 q 1219 679 1256 619 l 1210 693 l 1213 696 q 1258 781 1242 738 q 1275 854 1275 824 q 1256 908 1275 886 q 1200 928 1233 928 q 1043 865 1133 928 l 1040 863 l 1025 874 q 896 926 963 908 l 883 929 q 836 1061 868 1011 q 764 1111 804 1111 q 692 1061 724 1111 q 644 931 660 1011 l 632 926 q 503 874 565 908 l 488 863 l 485 865 q 400 911 443 894 q 326 928 357 928 q 272 908 294 928 q 253 853 253 886 q 315 696 253 786 l 318 693 l 308 679 q 256 550 272 617 l 253 536 q 119 489 169 521 q 69 417 69 457 q 119 344 69 376 q 250 297 169 313 l 256 283 q 308 154 272 217 l 318 140 l 315 138 q 269 53 286 96 q 253 -21 253 10 q 272 -75 253 -53 q 328 -94 294 -94 q 485 -32 394 -94 l 488 -29 l 503 -40 q 632 -93 565 -75 l 644 -96 q 691 -229 660 -181 q 764 -278 722 -278 q 835 -228 803 -278 q 883 -97 868 -178 m 671 38 q 697 104 671 76 q 764 132 724 132 q 829 104 801 132 q 857 38 857 76 q 830 -28 857 -1 q 764 -56 803 -56 q 698 -28 725 -56 q 671 38 671 -1 m 431 83 q 403 149 403 111 q 430 215 403 188 q 497 242 457 242 q 563 215 536 242 q 590 149 590 188 q 563 83 590 111 q 496 56 536 56 q 431 83 458 56 m 965 83 q 939 149 939 110 q 966 215 939 189 q 1032 242 993 242 q 1098 215 1071 242 q 1125 149 1125 189 q 1097 83 1125 110 q 1032 56 1069 56 q 965 83 993 56 m 671 250 q 698 316 671 289 q 764 343 725 343 q 830 316 803 343 q 857 250 857 289 q 830 184 857 211 q 764 157 803 157 q 698 184 725 157 q 671 250 671 211 m 292 417 q 319 483 292 456 q 385 510 346 510 q 451 483 424 510 q 479 417 479 457 q 451 351 479 379 q 385 324 424 324 q 319 351 346 324 q 292 417 292 378 m 504 417 q 531 483 504 456 q 597 510 558 510 q 663 483 636 510 q 690 417 690 456 q 663 351 690 378 q 597 324 636 324 q 531 351 558 324 q 504 417 504 378 m 838 417 q 865 483 838 456 q 931 510 892 510 q 997 483 969 510 q 1025 417 1025 457 q 997 351 1025 379 q 931 324 969 324 q 865 351 892 324 q 838 417 838 378 m 1049 417 q 1076 482 1049 454 q 1143 510 1104 510 q 1209 483 1182 510 q 1236 417 1236 456 q 1209 351 1236 378 q 1143 324 1182 324 q 1076 350 1104 324 q 1049 417 1049 376 m 671 583 q 698 649 671 622 q 764 676 725 676 q 830 649 803 676 q 857 583 857 622 q 830 517 857 544 q 764 490 803 490 q 698 517 725 490 q 671 583 671 544 m 431 618 q 403 683 403 646 q 431 750 403 722 q 497 778 458 778 q 563 750 535 778 q 590 683 590 722 q 563 618 590 646 q 496 590 535 590 q 431 618 458 590 m 965 618 q 939 683 939 644 q 966 751 939 724 q 1032 778 993 778 q 1097 751 1069 778 q 1125 683 1125 724 q 1097 617 1125 644 q 1032 590 1069 590 q 965 618 993 590 m 671 796 q 698 862 671 835 q 764 889 725 889 q 830 862 803 889 q 857 796 857 835 q 831 729 857 757 q 764 701 804 701 q 699 729 726 701 q 671 796 671 757 z "},"8":{"ha":1528,"x_min":69,"x_max":1458,"o":"m 1458 417 q 1255 908 1458 704 q 764 1111 1051 1111 q 273 908 476 1111 q 69 417 69 704 q 273 -74 69 129 q 764 -278 476 -278 q 1255 -74 1051 -278 q 1458 417 1458 129 m 644 -67 q 679 18 644 -17 q 764 53 714 53 q 849 18 814 53 q 883 -67 883 -17 q 849 -150 883 -115 q 764 -185 814 -185 q 680 -151 715 -185 q 644 -67 644 -117 m 339 -8 q 304 75 304 25 q 340 160 304 125 q 422 194 376 194 q 507 160 469 194 q 533 121 525 142 q 542 75 542 100 q 507 -8 542 25 q 468 -35 489 -26 q 422 -43 447 -43 q 339 -8 372 -43 m 1021 -8 q 986 75 986 26 q 1021 160 986 122 q 1106 194 1058 194 q 1190 159 1154 194 q 1225 75 1225 124 q 1189 -8 1225 25 q 1106 -43 1156 -43 q 1021 -8 1056 -43 m 674 200 l 546 200 l 546 326 l 457 417 l 546 507 l 546 633 l 674 633 l 764 724 l 854 633 l 981 633 l 981 507 l 1071 417 l 981 326 l 981 200 l 854 200 l 764 110 l 674 200 m 907 417 q 865 518 907 476 q 764 560 824 560 q 663 518 704 560 q 621 417 621 476 q 663 315 621 357 q 764 274 704 274 q 865 315 824 274 q 907 417 907 357 m 163 417 q 197 501 163 465 q 281 536 231 536 q 365 501 331 536 q 400 417 400 467 q 365 332 400 367 q 281 297 331 297 q 197 332 232 297 q 163 417 163 367 m 1128 417 q 1163 501 1128 467 q 1247 536 1197 536 q 1331 501 1296 536 q 1365 417 1365 467 q 1331 333 1365 368 q 1247 297 1297 297 q 1163 332 1197 297 q 1128 417 1128 367 m 339 674 q 313 713 321 692 q 304 758 304 733 q 339 842 304 807 q 422 876 374 876 q 507 842 472 876 q 542 758 542 807 q 507 674 542 708 q 468 647 489 656 q 422 639 447 639 q 339 674 372 639 m 1021 674 q 986 758 986 711 q 1021 842 986 804 q 1060 868 1039 860 q 1106 876 1081 876 q 1190 841 1156 876 q 1225 758 1225 806 q 1190 674 1225 710 q 1106 639 1156 639 q 1021 674 1056 639 m 644 900 q 679 983 644 949 q 764 1018 714 1018 q 848 984 813 1018 q 883 900 883 950 q 849 815 883 850 q 764 781 814 781 q 679 815 714 781 q 644 900 644 850 z "},"9":{"ha":1528,"x_min":69,"x_max":1458,"o":"m 972 -214 l 1011 -181 l 1028 -181 q 1147 -152 1089 -181 q 1256 -74 1206 -124 q 1363 154 1350 22 l 1363 169 l 1374 181 q 1437 290 1415 231 q 1458 417 1458 350 q 1437 543 1458 483 q 1374 653 1415 603 l 1363 664 l 1363 681 q 1256 907 1350 813 q 1028 1015 1163 1001 l 1011 1015 l 1000 1026 q 890 1090 950 1068 q 764 1111 831 1111 q 638 1090 697 1111 q 528 1026 578 1068 l 517 1015 l 500 1015 q 378 983 435 1008 q 272 908 321 957 q 165 681 179 813 l 165 664 l 154 653 q 91 543 113 603 q 69 417 69 483 q 91 290 69 350 q 154 181 113 231 l 165 169 l 165 154 q 272 -74 179 22 q 465 -176 356 -156 l 515 -181 l 528 -193 q 638 -256 578 -235 q 764 -278 697 -278 q 873 -261 819 -278 q 972 -214 926 -244 m 708 -169 l 667 -158 l 693 -149 q 716 -135 704 -142 q 740 -121 728 -129 l 764 -103 l 788 -121 q 843 -151 813 -139 l 860 -157 l 828 -168 q 764 -174 800 -174 l 708 -169 m 551 -92 l 525 -65 q 454 79 471 -3 l 451 104 l 426 107 q 282 178 344 124 l 254 206 l 254 246 q 267 322 254 285 q 306 397 281 360 l 322 417 l 306 438 q 267 512 281 475 q 254 589 254 549 l 254 628 l 282 656 q 426 726 344 710 l 451 729 l 454 754 q 525 899 471 836 l 554 926 l 593 926 q 669 913 632 926 q 744 875 707 900 l 764 860 l 783 875 q 858 913 821 900 q 935 926 894 926 l 974 926 l 1003 899 q 1074 754 1057 836 l 1076 729 l 1101 726 q 1246 656 1183 710 l 1274 628 l 1274 589 q 1260 513 1274 550 q 1222 438 1247 475 l 1206 417 l 1222 397 q 1260 323 1247 360 q 1274 246 1274 286 l 1274 206 l 1246 178 q 1101 107 1183 124 l 1076 104 l 1074 79 q 988 -82 1056 -15 l 975 -92 l 935 -93 q 858 -80 896 -93 q 783 -42 821 -67 l 764 -25 l 744 -42 q 569 -93 667 -93 l 551 -92 m 1114 -33 q 1122 -10 1118 -21 q 1128 19 1125 1 l 1132 49 l 1161 53 q 1185 58 1172 54 q 1222 71 1199 61 l 1239 78 l 1218 43 q 1201 20 1208 31 q 1184 1 1193 10 q 1163 -17 1175 -7 q 1139 -36 1151 -28 l 1103 -57 l 1114 -33 m 396 -42 q 376 -28 383 -33 q 346 0 360 -15 q 326 19 333 11 q 310 43 315 36 l 289 78 l 306 71 q 335 61 314 67 q 367 53 356 56 l 396 49 l 400 19 q 405 -5 401 8 q 418 -42 408 -18 l 425 -57 l 396 -42 m 694 33 l 701 39 l 685 63 l 660 115 l 683 133 l 719 169 l 746 204 l 764 203 l 782 204 l 808 169 l 844 133 l 868 117 l 843 63 l 826 39 l 833 33 l 865 18 l 886 61 l 896 97 l 929 79 l 975 64 l 986 96 l 988 104 l 960 110 l 904 129 l 907 160 l 907 210 l 901 254 l 915 265 l 926 279 l 971 274 q 996 274 983 274 q 1021 275 1008 274 l 1050 278 l 1071 221 l 1076 193 l 1085 194 l 1118 206 l 1101 251 l 1082 285 l 1119 296 l 1165 317 l 1147 349 l 1143 354 l 1118 339 l 1067 314 l 1047 336 l 1011 372 l 976 399 l 978 417 l 976 435 l 1011 461 l 1047 497 l 1064 521 l 1118 496 l 1143 479 l 1147 486 l 1165 518 l 1119 539 l 1083 549 l 1101 582 l 1118 629 l 1085 639 l 1076 640 l 1071 613 l 1051 557 l 1021 560 l 971 561 l 926 556 l 915 568 l 901 579 l 907 624 l 907 674 l 903 703 l 960 724 l 988 729 l 986 738 l 976 771 l 929 754 l 896 736 l 886 772 l 864 818 l 833 801 l 826 796 l 843 772 l 868 719 l 844 700 l 808 664 l 782 629 l 764 631 l 746 629 l 719 664 l 683 700 l 660 717 l 685 772 l 701 796 l 694 801 l 664 818 l 642 772 l 632 736 l 599 754 l 551 771 l 542 738 l 540 729 l 568 724 l 624 704 l 621 674 l 621 624 l 626 579 l 613 568 l 601 556 l 557 561 l 507 560 l 478 556 l 457 613 l 451 640 l 443 639 l 410 629 l 426 582 l 444 549 l 408 539 l 363 518 l 381 486 l 385 479 l 408 496 l 461 521 l 481 497 l 517 461 l 551 435 l 550 417 l 551 399 l 517 372 l 481 336 l 464 313 l 408 339 l 385 354 l 381 349 l 363 317 l 408 296 l 444 285 l 426 251 l 410 204 l 443 194 l 451 193 l 457 221 l 476 276 l 507 275 q 532 274 519 275 q 557 274 544 274 l 601 279 l 613 265 l 626 254 l 621 210 l 621 160 l 625 131 l 568 110 l 540 104 l 542 96 l 551 63 l 599 79 l 632 97 l 642 61 l 663 18 l 694 33 m 646 171 l 642 226 l 642 240 q 721 207 679 215 l 717 196 q 696 176 707 186 q 672 158 685 167 l 651 146 l 646 171 m 856 158 q 832 175 838 171 q 811 196 818 189 l 803 207 q 883 239 849 215 l 886 226 l 882 171 l 876 146 l 856 158 m 517 299 l 494 306 l 506 325 q 522 349 518 343 q 543 369 536 363 l 554 378 q 586 297 563 332 l 574 294 l 517 299 m 940 296 q 974 374 965 331 l 985 369 q 1004 349 994 360 q 1022 325 1014 338 l 1033 306 l 1011 299 l 954 294 l 940 296 m 1333 338 q 1319 367 1328 353 q 1303 394 1317 371 l 1283 417 l 1303 440 q 1333 497 1324 474 l 1339 514 l 1350 472 l 1354 417 l 1350 361 l 1339 321 l 1333 338 m 178 361 l 174 417 l 178 472 l 189 514 l 194 497 q 208 468 201 483 q 225 440 211 464 l 244 417 l 225 394 q 194 338 204 361 l 189 321 l 178 361 m 942 536 l 939 539 l 954 540 q 1011 535 985 540 l 1035 529 l 1022 508 q 1006 485 1010 490 q 985 464 992 471 l 974 456 q 942 536 965 501 m 543 465 q 506 508 521 485 l 493 529 l 517 535 q 574 540 543 540 l 588 539 q 554 460 563 501 l 543 465 m 642 607 l 646 664 l 651 688 l 672 675 q 715 638 696 660 l 725 626 q 644 594 679 618 l 642 607 m 807 626 l 811 638 q 832 657 821 647 q 856 675 843 667 l 876 688 l 882 664 l 886 607 l 886 593 q 807 626 849 618 m 310 792 q 346 835 328 817 q 365 852 353 842 q 389 871 376 863 l 426 892 l 418 875 q 408 846 414 867 q 400 814 403 825 l 396 785 l 367 781 q 342 775 356 778 q 306 763 329 772 l 289 754 l 310 792 m 1222 763 q 1193 772 1214 767 q 1161 781 1172 778 l 1132 785 l 1128 814 q 1122 838 1125 825 q 1110 875 1119 851 l 1101 892 l 1139 871 q 1161 854 1149 865 q 1182 835 1169 847 q 1218 792 1200 817 l 1239 754 l 1222 763 m 740 956 q 685 986 715 974 l 668 992 l 708 1003 l 764 1007 l 819 1003 l 860 992 l 843 986 q 788 956 813 974 l 764 938 l 740 956 z "}," ":{"ha":694,"x_min":0,"x_max":0,"o":""},"A":{"ha":1528,"x_min":69,"x_max":1458,"o":"m 1458 411 q 1255 -80 1458 124 q 764 -283 1051 -283 q 273 -80 476 -283 q 69 411 69 124 q 273 902 69 699 q 764 1106 476 1106 q 1255 902 1051 1106 q 1458 411 1458 699 m 1349 321 q 1177 734 1349 563 q 764 906 1006 906 q 351 734 522 906 q 179 321 179 563 q 350 -92 179 79 q 764 -262 521 -262 q 1176 -92 1004 -262 q 1349 321 1349 79 m 1204 343 q 1075 32 1204 161 q 764 -97 946 -97 q 453 32 582 -97 q 324 343 324 161 q 452 655 324 525 q 764 785 581 785 q 1075 656 946 785 q 1204 343 1204 526 m 1135 286 q 1026 549 1135 440 q 764 657 918 657 q 501 549 610 657 q 393 286 393 440 q 501 24 393 132 q 764 -85 610 -85 q 1026 24 918 -85 q 1135 286 1135 132 m 1022 282 q 947 99 1022 174 q 764 24 872 24 q 581 99 656 24 q 506 282 506 174 q 581 465 506 389 q 764 542 656 542 q 947 466 871 542 q 1022 282 1022 390 m 982 249 q 918 403 982 339 q 764 467 854 467 q 610 403 674 467 q 546 249 546 339 q 610 94 546 158 q 764 31 674 31 q 918 94 854 31 q 982 249 982 158 z "},"B":{"ha":1528,"x_min":69,"x_max":1458,"o":"m 1458 417 q 1255 -74 1458 129 q 764 -278 1051 -278 q 273 -74 476 -278 q 69 417 69 129 q 273 908 69 704 q 764 1111 476 1111 q 1255 908 1051 1111 q 1458 417 1458 704 m 1285 556 q 1132 924 1285 771 q 764 1076 979 1076 q 396 924 549 1076 q 243 556 243 771 q 396 188 243 340 q 764 35 549 35 q 1132 188 979 35 q 1285 556 1285 340 z "},"C":{"ha":1528,"x_min":69,"x_max":1458,"o":"m 1458 417 q 1255 -74 1458 129 q 764 -278 1051 -278 q 273 -74 476 -278 q 69 417 69 129 q 273 908 69 704 q 764 1111 476 1111 q 1255 908 1051 1111 q 1458 417 1458 704 m 1146 417 q 993 785 1146 632 q 625 938 840 938 q 257 785 410 938 q 104 417 104 632 q 257 49 104 201 q 625 -104 410 -104 q 993 49 840 -104 q 1146 417 1146 201 z "},"D":{"ha":1528,"x_min":69,"x_max":1458,"o":"m 1458 417 q 1255 -74 1458 129 q 764 -278 1051 -278 q 273 -74 476 -278 q 69 417 69 129 q 273 908 69 704 q 764 1111 476 1111 q 1255 908 1051 1111 q 1458 417 1458 704 m 1285 278 q 1132 646 1285 493 q 764 799 979 799 q 396 646 549 799 q 243 278 243 493 q 396 -90 243 63 q 764 -243 549 -243 q 1132 -90 979 -243 q 1285 278 1285 63 m 1067 233 q 978 19 1067 108 q 764 -69 889 -69 q 549 19 638 -69 q 461 233 461 107 q 550 447 461 358 q 764 536 639 536 q 978 447 889 536 q 1067 233 1067 358 z "},"E":{"ha":1528,"x_min":65,"x_max":1454,"o":"m 1454 413 q 1251 -78 1454 125 q 760 -282 1047 -282 q 269 -78 472 -282 q 65 413 65 125 q 269 903 65 700 q 760 1107 472 1107 q 1251 903 1047 1107 q 1454 413 1454 700 m 1142 413 q 989 781 1142 628 q 621 933 836 933 q 253 781 406 933 q 100 413 100 628 q 253 44 100 197 q 621 -108 406 -108 q 989 44 836 -108 q 1142 413 1142 197 m 879 413 q 790 199 879 288 q 576 110 701 110 q 363 199 451 110 q 274 413 274 288 q 362 627 274 539 q 576 715 450 715 q 790 626 701 715 q 879 413 879 538 z "},"F":{"ha":1528,"x_min":69,"x_max":1458,"o":"m 901 -140 q 861 -43 901 -83 q 764 -3 821 -3 q 667 -43 707 -3 q 626 -140 626 -83 q 667 -237 626 -197 q 764 -278 707 -278 q 861 -237 821 -278 q 901 -140 901 -197 m 654 -140 q 686 -62 654 -94 q 764 -31 718 -31 q 842 -62 810 -31 q 874 -140 874 -94 q 842 -218 874 -186 q 764 -250 810 -250 q 686 -218 718 -250 q 654 -140 654 -186 m 467 -75 q 507 22 507 -36 q 467 120 507 81 q 369 160 426 160 q 274 120 315 160 q 233 22 233 81 q 274 -76 233 -36 q 369 -115 315 -115 q 467 -75 426 -115 m 1256 -75 q 1296 22 1296 -35 q 1256 119 1296 79 q 1158 160 1215 160 q 1061 119 1101 160 q 1021 22 1021 79 q 1061 -75 1021 -35 q 1158 -115 1101 -115 q 1256 -75 1213 -115 m 260 22 q 292 101 260 68 q 369 133 325 133 q 447 101 415 133 q 479 22 479 69 q 448 -55 479 -22 q 369 -87 417 -87 q 292 -56 324 -87 q 260 22 260 -24 m 1049 22 q 1081 100 1049 67 q 1158 133 1113 133 q 1236 101 1204 133 q 1268 22 1268 69 q 1236 -56 1268 -24 q 1158 -87 1204 -87 q 1081 -56 1113 -87 q 1049 22 1049 -24 m 839 111 q 817 165 839 143 q 764 186 796 186 q 710 165 732 186 q 689 111 689 143 q 710 58 689 79 q 764 36 732 36 q 817 58 796 36 q 839 111 839 79 m 601 147 q 624 200 624 168 q 601 254 624 232 q 549 276 579 276 q 494 254 519 276 q 472 200 472 229 q 494 147 472 169 q 547 125 517 125 q 601 147 579 125 m 1033 147 q 1056 200 1056 168 q 1033 254 1056 232 q 981 276 1011 276 q 926 254 951 276 q 904 200 904 229 q 926 147 904 169 q 981 125 949 125 q 1033 147 1011 125 m 947 417 q 894 547 947 493 q 764 600 840 600 q 634 547 688 600 q 581 417 581 493 q 634 287 581 340 q 764 233 688 233 q 894 287 840 233 q 947 417 947 340 m 618 417 q 660 521 618 478 q 764 564 701 564 q 868 521 825 564 q 911 417 911 478 q 868 314 911 357 q 764 271 825 271 q 660 313 703 271 q 618 417 618 356 m 344 417 q 304 514 344 474 q 207 554 264 554 q 110 514 150 554 q 69 417 69 474 q 110 319 69 360 q 207 279 150 279 q 304 319 264 279 q 344 417 344 360 m 1458 417 q 1418 514 1458 474 q 1321 554 1378 554 q 1224 514 1264 554 q 1183 417 1183 474 q 1224 319 1183 360 q 1321 279 1264 279 q 1418 319 1378 279 q 1458 417 1458 360 m 97 417 q 129 494 97 463 q 207 526 161 526 q 285 494 253 526 q 317 417 317 463 q 285 339 317 371 q 207 307 253 307 q 129 339 161 307 q 97 417 97 371 m 1211 417 q 1243 494 1211 463 q 1321 526 1275 526 q 1399 494 1367 526 q 1431 417 1431 463 q 1399 339 1431 371 q 1321 307 1367 307 q 1243 339 1275 307 q 1211 417 1211 371 m 533 417 q 512 470 533 449 q 458 492 490 492 q 405 470 426 492 q 383 417 383 449 q 405 363 383 385 q 458 342 426 342 q 512 363 490 342 q 533 417 533 385 m 1144 417 q 1123 470 1144 449 q 1069 492 1101 492 q 1016 470 1038 492 q 994 417 994 449 q 1016 363 994 385 q 1069 342 1038 342 q 1123 363 1101 342 q 1144 417 1144 385 m 601 579 q 624 632 624 600 q 601 686 624 664 q 549 708 579 708 q 494 686 519 708 q 472 632 472 661 q 496 579 472 601 q 547 557 519 557 q 601 579 576 557 m 1033 579 q 1056 632 1056 600 q 1033 686 1056 664 q 981 708 1011 708 q 926 686 951 708 q 904 632 904 661 q 928 579 904 601 q 981 557 951 557 q 1033 579 1008 557 m 839 722 q 817 776 839 754 q 764 797 796 797 q 710 776 732 797 q 689 722 689 754 q 710 669 689 690 q 764 647 732 647 q 817 669 796 647 q 839 722 839 690 m 467 714 q 507 811 507 753 q 467 908 507 868 q 369 947 428 947 q 272 908 313 947 q 233 811 233 868 q 273 713 233 753 q 369 674 313 674 q 467 714 428 674 m 1256 714 q 1296 811 1296 754 q 1256 906 1296 865 q 1158 947 1217 947 q 1060 906 1100 947 q 1021 811 1021 865 q 1060 714 1021 754 q 1158 674 1100 674 q 1256 714 1215 674 m 260 811 q 292 889 260 857 q 369 921 324 921 q 447 889 415 921 q 479 811 479 857 q 447 733 479 767 q 369 700 415 700 q 292 732 324 700 q 260 811 260 764 m 1049 811 q 1080 888 1049 856 q 1158 921 1111 921 q 1236 889 1204 921 q 1268 811 1268 857 q 1235 733 1268 765 q 1158 700 1203 700 q 1081 732 1113 700 q 1049 811 1049 764 m 901 974 q 861 1071 901 1031 q 764 1111 821 1111 q 667 1071 707 1111 q 626 974 626 1031 q 667 876 626 917 q 764 836 707 836 q 861 876 821 836 q 901 974 901 917 m 654 974 q 686 1051 654 1019 q 764 1083 718 1083 q 842 1051 810 1083 q 874 974 874 1019 q 842 896 874 928 q 764 864 810 864 q 686 896 718 864 q 654 974 654 928 z "},"G":{"ha":1528,"x_min":69,"x_max":1458,"o":"m 901 -140 q 861 -43 901 -83 q 764 -3 821 -3 q 667 -43 707 -3 q 626 -140 626 -83 q 667 -237 626 -197 q 764 -278 707 -278 q 861 -237 821 -278 q 901 -140 901 -197 m 467 -75 q 507 22 507 -36 q 467 120 507 81 q 369 160 426 160 q 274 120 315 160 q 233 22 233 81 q 274 -76 233 -36 q 369 -115 315 -115 q 467 -75 426 -115 m 1256 -75 q 1296 22 1296 -35 q 1256 119 1296 79 q 1158 160 1215 160 q 1061 119 1101 160 q 1021 22 1021 79 q 1061 -75 1021 -35 q 1158 -115 1101 -115 q 1256 -75 1213 -115 m 901 171 q 890 225 901 199 l 888 229 l 851 210 q 764 192 808 192 q 676 210 719 192 l 640 229 l 638 225 q 626 171 626 199 q 667 74 626 114 q 764 33 707 33 q 861 74 821 33 q 901 171 901 114 m 929 417 q 881 534 929 486 q 764 582 833 582 q 647 534 694 582 q 599 417 599 486 q 647 299 599 347 q 764 251 694 251 q 881 299 833 251 q 929 417 929 347 m 344 417 q 304 514 344 474 q 207 554 264 554 q 110 514 150 554 q 69 417 69 474 q 110 319 69 360 q 207 279 150 279 q 304 319 264 279 q 344 417 344 360 m 572 290 l 576 293 l 557 329 q 539 417 539 372 q 557 504 539 461 l 576 540 l 572 543 q 518 554 546 554 q 421 514 461 554 q 381 417 381 474 q 421 319 381 360 q 518 279 461 279 q 572 290 546 279 m 1147 417 q 1107 514 1147 474 q 1010 554 1067 554 q 956 543 982 554 l 951 540 l 971 504 q 989 417 989 461 q 971 329 989 372 l 951 293 l 956 290 q 1010 279 982 279 q 1107 319 1067 279 q 1147 417 1147 360 m 1458 417 q 1418 514 1458 474 q 1321 554 1378 554 q 1224 514 1264 554 q 1183 417 1183 474 q 1224 319 1183 360 q 1321 279 1264 279 q 1418 319 1378 279 q 1458 417 1458 360 m 890 608 q 901 663 901 635 q 861 760 901 719 q 764 800 821 800 q 667 760 707 800 q 626 663 626 719 q 638 608 626 635 l 640 604 l 676 624 q 764 642 719 642 q 851 624 808 642 l 888 604 l 890 608 m 467 714 q 507 811 507 753 q 467 908 507 868 q 369 947 428 947 q 272 908 313 947 q 233 811 233 868 q 273 713 233 753 q 369 674 313 674 q 467 714 428 674 m 1256 714 q 1296 811 1296 754 q 1256 906 1296 865 q 1158 947 1217 947 q 1060 906 1100 947 q 1021 811 1021 865 q 1060 714 1021 754 q 1158 674 1100 674 q 1256 714 1215 674 m 901 974 q 861 1071 901 1031 q 764 1111 821 1111 q 667 1071 707 1111 q 626 974 626 1031 q 667 876 626 917 q 764 836 707 836 q 861 876 821 836 q 901 974 901 917 z "},"H":{"ha":1528,"x_min":163,"x_max":1365,"o":"m 644 31 q 679 115 644 81 q 764 150 714 150 q 849 115 814 150 q 883 31 883 81 q 849 -53 883 -18 q 764 -87 814 -87 q 680 -53 715 -87 q 644 31 644 -19 m 339 89 q 304 172 304 122 q 340 257 304 222 q 422 292 376 292 q 507 257 469 292 q 533 218 525 239 q 542 172 542 197 q 507 89 542 122 q 468 63 489 71 q 422 54 447 54 q 339 89 372 54 m 1021 89 q 986 172 986 124 q 1021 257 986 219 q 1106 292 1058 292 q 1190 256 1154 292 q 1225 172 1225 221 q 1189 89 1225 122 q 1106 54 1156 54 q 1021 89 1056 54 m 163 514 q 197 598 163 563 q 281 633 231 633 q 365 599 331 633 q 400 514 400 564 q 365 429 400 464 q 281 394 331 394 q 197 429 232 394 q 163 514 163 464 m 1128 514 q 1163 599 1128 564 q 1247 633 1197 633 q 1331 599 1296 633 q 1365 514 1365 564 q 1331 430 1365 465 q 1247 394 1297 394 q 1163 429 1197 394 q 1128 514 1128 464 m 339 771 q 313 810 321 789 q 304 856 304 831 q 339 939 304 904 q 422 974 374 974 q 507 939 472 974 q 542 856 542 904 q 507 771 542 806 q 468 744 489 753 q 422 736 447 736 q 339 771 372 736 m 1021 771 q 986 856 986 808 q 1021 939 986 901 q 1060 965 1039 957 q 1106 974 1081 974 q 1190 938 1156 974 q 1225 856 1225 903 q 1190 772 1225 807 q 1106 736 1156 736 q 1021 771 1056 736 m 644 997 q 679 1081 644 1046 q 764 1115 714 1115 q 848 1081 813 1115 q 883 997 883 1047 q 849 913 883 947 q 764 878 814 878 q 679 913 714 878 q 644 997 644 947 m 488 514 l 764 790 l 1040 514 l 764 232 l 488 514 z "},"I":{"ha":1528,"x_min":229,"x_max":1299,"o":"m 1299 906 q 1251 1023 1299 975 q 1133 1071 1203 1071 q 1017 1023 1065 1071 q 969 906 969 975 q 1017 790 969 838 q 1133 742 1065 742 q 1251 790 1203 742 q 1299 906 1299 838 m 932 906 q 884 1023 932 975 q 768 1071 836 1071 q 651 1023 699 1071 q 603 906 603 975 q 651 790 603 839 q 768 742 700 742 q 884 790 836 742 q 932 906 932 838 m 1122 528 q 1074 644 1122 596 q 958 692 1026 692 q 842 644 890 692 q 794 528 794 596 q 842 410 794 458 q 958 363 890 363 q 1074 410 1026 363 q 1122 528 1122 458 m 558 906 q 510 1023 558 975 q 394 1071 463 1071 q 277 1023 325 1071 q 229 906 229 975 q 277 790 229 838 q 394 742 325 742 q 510 790 463 742 q 558 906 558 838 m 733 528 q 685 644 733 596 q 569 692 638 692 q 453 644 501 692 q 406 528 406 596 q 453 410 406 458 q 569 363 501 363 q 685 410 638 363 q 733 528 733 458 m 928 167 q 880 283 928 235 q 764 331 832 331 q 648 283 696 331 q 600 167 600 235 q 648 49 600 97 q 764 1 696 1 q 880 49 832 1 q 928 167 928 97 z "},"J":{"ha":1528,"x_min":264,"x_max":1264,"o":"m 317 608 q 447 554 371 554 q 574 607 521 554 q 613 665 600 632 q 626 736 626 699 q 614 805 626 772 q 574 864 601 838 q 446 917 521 917 q 317 864 372 917 q 264 736 264 808 q 317 608 264 661 m 956 -31 q 1083 -83 1008 -83 q 1152 -71 1119 -83 q 1211 -31 1185 -58 q 1251 27 1238 -6 q 1264 97 1264 60 q 1251 167 1264 133 q 1211 226 1238 200 q 1083 279 1158 279 q 954 226 1010 279 q 901 99 901 171 q 956 -31 901 24 m 574 -29 q 613 28 600 -4 q 626 99 626 61 q 574 226 626 174 q 444 279 521 279 q 316 226 368 279 q 264 99 264 172 q 317 -31 264 22 q 444 -83 369 -83 q 574 -29 519 -83 m 1211 608 q 1251 666 1238 633 q 1264 736 1264 699 q 1211 864 1264 811 q 1083 917 1158 917 q 956 864 1010 917 q 901 736 901 811 q 954 607 901 660 q 1082 554 1007 554 q 1211 608 1157 554 m 889 542 q 764 593 835 593 q 639 542 693 593 q 588 417 588 488 q 639 292 588 346 q 697 253 665 265 q 764 240 728 240 q 889 292 838 240 q 940 417 940 343 q 889 542 940 490 z "},"K":{"ha":1528,"x_min":103,"x_max":1425,"o":"m 842 211 q 815 274 815 238 q 843 338 815 310 q 907 365 871 365 q 969 339 943 365 q 996 275 996 313 q 969 211 996 238 q 906 185 943 185 q 842 211 868 185 m 1057 147 q 1031 210 1031 174 q 1057 274 1031 244 q 1121 300 1086 300 q 1183 274 1157 300 q 1210 210 1210 247 q 1184 147 1210 172 q 1121 121 1158 121 q 1057 147 1083 121 m 907 -3 q 881 60 881 24 q 907 124 881 94 q 971 150 936 150 q 1033 124 1007 150 q 1060 60 1060 97 q 1033 -3 1060 22 q 971 -29 1008 -29 q 907 -3 933 -29 m 1271 69 q 1244 132 1244 96 q 1272 195 1244 168 q 1335 222 1299 222 q 1398 195 1371 222 q 1425 131 1425 168 q 1398 69 1425 96 q 1335 42 1371 42 q 1271 69 1299 42 m 1129 -72 q 1103 -10 1103 -46 q 1130 53 1103 26 q 1193 81 1157 81 q 1256 53 1229 81 q 1283 -10 1283 26 q 1258 -73 1283 -46 q 1193 -100 1232 -100 q 1129 -72 1157 -100 m 985 -217 q 958 -154 958 -190 q 985 -91 958 -118 q 1050 -64 1013 -64 q 1112 -91 1085 -64 q 1139 -154 1139 -118 q 1113 -217 1139 -190 q 1049 -244 1086 -244 q 985 -217 1013 -244 m 686 622 q 713 558 713 596 q 685 496 713 521 q 621 468 657 468 q 558 494 585 468 q 532 558 532 521 q 558 622 532 593 q 622 649 588 649 q 686 622 660 649 m 471 686 q 497 622 497 660 q 471 560 497 585 q 408 533 446 533 q 344 560 371 533 q 318 622 318 586 q 344 686 318 657 q 408 713 374 713 q 471 686 444 713 m 621 836 q 647 772 647 810 q 621 710 647 735 q 558 683 596 683 q 494 710 521 683 q 468 774 468 736 q 494 838 468 808 q 558 863 522 863 q 621 836 594 863 m 257 764 q 283 701 283 739 q 257 638 283 665 q 193 611 231 611 q 130 638 157 611 q 103 703 103 665 q 129 764 103 738 q 193 790 156 790 q 257 764 232 790 m 399 906 q 425 843 425 879 q 398 779 425 806 q 333 753 371 753 q 272 778 299 753 q 246 843 246 804 q 272 907 246 881 q 335 933 299 933 q 399 906 374 933 m 543 1050 q 569 988 569 1024 q 542 924 569 950 q 478 897 515 897 q 417 923 443 897 q 390 988 390 949 q 417 1051 390 1025 q 479 1078 443 1078 q 543 1050 515 1078 m 969 494 q 907 468 944 468 q 843 496 871 468 q 815 560 815 524 q 843 622 815 596 q 906 649 871 649 q 968 622 940 649 q 996 558 996 596 q 969 494 996 519 m 1033 710 q 971 683 1008 683 q 907 710 933 683 q 881 772 881 736 q 907 835 881 807 q 971 863 933 863 q 1034 837 1008 863 q 1060 774 1060 811 q 1033 710 1060 735 m 1183 560 q 1121 533 1158 533 q 1057 560 1083 533 q 1031 622 1031 586 q 1057 686 1031 657 q 1121 713 1086 713 q 1185 686 1156 713 q 1210 622 1210 658 q 1183 560 1210 585 m 1113 925 q 1049 897 1088 897 q 985 924 1013 897 q 958 988 958 951 q 987 1051 958 1024 q 1049 1078 1015 1078 q 1112 1051 1085 1078 q 1139 986 1139 1024 q 1113 925 1139 951 m 1254 783 q 1190 756 1226 756 q 1127 783 1154 756 q 1100 846 1100 810 q 1127 909 1100 882 q 1190 936 1154 936 q 1253 909 1226 936 q 1281 844 1281 882 q 1254 783 1281 810 m 1399 639 q 1333 611 1371 611 q 1272 638 1299 611 q 1246 701 1246 664 q 1272 765 1246 739 q 1335 792 1299 792 q 1398 765 1371 792 q 1425 701 1425 739 q 1399 639 1425 664 m 558 339 q 622 365 588 365 q 685 338 660 365 q 713 274 713 310 q 687 211 713 238 q 622 185 661 185 q 558 213 585 185 q 532 275 532 240 q 558 339 532 310 m 494 124 q 558 150 524 150 q 621 124 594 150 q 647 60 647 97 q 621 -3 647 22 q 557 -29 594 -29 q 494 -2 519 -29 q 468 60 468 25 q 494 124 468 94 m 344 274 q 408 300 374 300 q 471 274 444 300 q 497 210 497 247 q 471 147 497 172 q 407 121 446 121 q 344 147 369 121 q 318 210 318 172 q 344 274 318 244 m 417 -90 q 479 -64 443 -64 q 542 -90 515 -64 q 569 -154 569 -117 q 542 -218 569 -192 q 478 -244 515 -244 q 417 -218 443 -244 q 390 -154 390 -192 q 417 -90 390 -117 m 275 51 q 338 78 304 78 q 401 51 374 78 q 428 -14 428 24 q 402 -76 428 -49 q 338 -103 376 -103 q 274 -76 301 -103 q 247 -12 247 -49 q 275 51 247 24 m 131 196 q 193 222 160 222 q 256 195 229 222 q 283 131 283 168 q 258 69 283 96 q 193 42 232 42 q 130 69 157 42 q 103 132 103 96 q 131 196 103 168 z "},"L":{"ha":1528,"x_min":101,"x_max":1418,"o":"m 192 546 q 174 589 174 564 q 192 632 174 611 q 235 650 213 650 q 278 632 260 650 q 296 589 296 614 q 278 546 296 563 q 235 528 261 528 q 192 546 210 528 m 408 601 q 367 619 385 601 q 349 661 349 638 q 365 704 349 686 q 408 722 382 722 q 452 705 435 722 q 469 661 469 688 q 453 618 469 635 q 408 601 436 601 m 161 354 q 119 372 138 354 q 101 414 101 390 q 118 457 101 439 q 161 475 135 475 q 205 458 188 475 q 222 414 222 440 q 206 371 222 388 q 161 354 189 354 m 540 546 q 522 589 522 564 q 542 632 522 614 q 583 650 561 650 q 626 631 610 650 q 643 588 643 611 q 626 545 643 563 q 583 528 608 528 q 540 546 558 528 m 192 196 q 174 240 174 217 q 192 283 174 263 q 235 301 213 301 q 277 283 260 301 q 294 239 294 264 q 276 197 294 214 q 233 179 260 179 q 192 196 208 179 m 654 354 q 613 372 631 354 q 594 414 594 390 q 611 457 594 439 q 654 475 628 475 q 698 458 681 475 q 715 414 715 440 q 698 372 715 389 q 654 354 681 354 m 408 107 q 367 125 385 107 q 349 168 349 143 q 365 211 349 193 q 408 229 382 229 q 451 211 433 229 q 469 168 469 193 q 451 125 469 143 q 408 107 433 107 m 540 196 q 522 239 522 214 q 542 283 522 265 q 583 301 561 301 q 626 284 608 301 q 643 242 643 267 q 626 198 643 217 q 582 179 608 179 q 540 196 557 179 m 513 706 q 470 723 488 706 q 453 765 453 740 q 469 808 453 790 q 513 826 486 826 q 556 808 538 826 q 574 765 574 790 q 556 723 574 740 q 513 706 539 706 m 628 896 q 586 879 611 879 q 542 897 560 879 q 525 942 525 914 q 542 983 525 965 q 585 1000 560 1000 q 628 982 611 1000 q 646 940 646 965 q 628 896 646 913 m 760 951 q 717 969 735 951 q 699 1013 699 988 q 717 1056 699 1038 q 760 1074 735 1074 q 803 1056 785 1074 q 821 1013 821 1038 q 803 969 821 988 q 760 951 785 951 m 760 458 q 717 475 735 458 q 699 518 699 492 q 717 561 699 543 q 760 579 735 579 q 803 561 785 579 q 821 518 821 543 q 803 476 821 494 q 760 458 785 458 m 976 896 q 932 879 957 879 q 890 897 907 879 q 874 940 874 915 q 891 983 874 965 q 933 1000 908 1000 q 976 982 960 1000 q 994 940 994 965 q 976 896 994 917 m 976 547 q 935 529 960 529 q 891 548 910 529 q 872 592 872 567 q 890 635 872 614 q 933 651 910 651 q 977 634 960 651 q 994 590 994 617 q 976 547 994 568 m 1006 706 q 963 723 981 706 q 946 765 946 740 q 963 808 946 790 q 1006 826 979 826 q 1049 808 1031 826 q 1067 765 1067 790 q 1049 723 1067 740 q 1006 706 1032 706 m 760 250 q 717 267 735 250 q 699 310 699 283 q 717 353 699 335 q 760 371 735 371 q 803 353 786 371 q 821 310 821 336 q 803 268 821 286 q 760 250 785 250 m 513 3 q 470 20 488 3 q 453 63 453 38 q 469 106 453 88 q 513 124 486 124 q 556 106 539 124 q 574 63 574 89 q 556 21 574 39 q 513 3 538 3 m 890 196 q 872 238 872 214 q 892 280 872 261 q 935 299 913 299 q 976 281 958 299 q 994 238 994 263 q 976 196 994 213 q 935 178 960 178 q 890 196 908 178 m 542 -154 q 525 -112 525 -137 q 543 -68 525 -86 q 585 -50 561 -50 q 627 -69 608 -50 q 646 -112 646 -87 q 628 -153 646 -136 q 585 -171 611 -171 q 542 -154 561 -171 m 1006 3 q 964 19 982 3 q 946 63 946 36 q 963 106 946 88 q 1006 124 979 124 q 1049 106 1032 124 q 1067 63 1067 89 q 1049 21 1067 39 q 1006 3 1031 3 m 760 -243 q 717 -226 735 -243 q 699 -183 699 -210 q 717 -140 699 -158 q 760 -122 735 -122 q 803 -140 786 -122 q 821 -183 821 -157 q 803 -226 821 -208 q 760 -243 786 -243 m 890 -154 q 874 -112 874 -137 q 892 -68 874 -86 q 936 -50 910 -50 q 977 -67 960 -50 q 994 -111 994 -85 q 977 -154 994 -137 q 933 -171 960 -171 q 890 -154 910 -171 m 864 354 q 822 372 839 354 q 804 414 804 389 q 821 457 804 439 q 864 475 838 475 q 907 457 889 475 q 925 414 925 439 q 907 372 925 390 q 864 354 889 354 m 1110 601 q 1067 619 1085 601 q 1050 661 1050 636 q 1067 704 1050 686 q 1110 722 1083 722 q 1153 704 1135 722 q 1171 661 1171 686 q 1153 619 1171 638 q 1110 601 1135 601 m 1110 107 q 1068 125 1086 107 q 1050 168 1050 143 q 1067 211 1050 193 q 1110 229 1083 229 q 1153 211 1135 229 q 1171 168 1171 193 q 1153 125 1171 143 q 1110 107 1135 107 m 1326 546 q 1285 528 1310 528 q 1242 546 1260 528 q 1224 588 1224 564 q 1242 630 1224 610 q 1286 650 1261 650 q 1327 633 1308 650 q 1346 589 1346 615 q 1326 546 1346 563 m 1326 196 q 1285 179 1310 179 q 1242 197 1260 179 q 1224 239 1224 215 q 1242 281 1224 261 q 1286 301 1261 301 q 1327 284 1308 301 q 1346 240 1346 267 q 1326 196 1346 215 m 1357 354 q 1315 372 1332 354 q 1297 414 1297 389 q 1314 457 1297 439 q 1357 475 1331 475 q 1400 457 1382 475 q 1418 414 1418 439 q 1400 372 1418 390 q 1357 354 1382 354 z "},"M":{"ha":1528,"x_min":106,"x_max":1417,"o":"m 1203 -89 l 1199 -72 l 1204 -68 l 1225 -49 l 1244 -28 l 1249 -22 l 1265 -26 q 1327 -1 1301 -26 q 1353 61 1353 25 q 1350 82 1353 74 q 1346 94 1347 90 l 1339 106 l 1349 125 q 1400 267 1383 194 q 1417 417 1417 339 q 1342 721 1417 576 l 1339 726 l 1346 736 q 1351 754 1349 746 q 1353 769 1353 763 q 1328 832 1353 807 q 1265 857 1303 857 l 1249 853 l 1225 879 l 1204 899 l 1199 903 l 1203 921 q 1177 983 1203 957 q 1115 1008 1151 1008 l 1081 1001 l 1071 993 l 1051 1003 q 910 1054 982 1038 q 760 1071 838 1071 q 456 996 600 1071 l 450 993 l 440 1001 l 407 1008 q 344 983 369 1008 q 319 921 319 958 l 324 903 l 297 879 l 275 854 l 256 857 q 194 831 219 857 q 168 769 168 806 l 175 736 l 183 726 l 181 721 q 106 414 106 576 q 174 125 106 261 l 183 106 l 175 96 l 168 61 q 193 -1 168 24 q 256 -26 218 -26 l 274 -22 l 278 -28 l 297 -49 l 322 -71 l 319 -89 q 345 -151 319 -125 q 407 -176 371 -176 q 440 -169 424 -176 l 450 -162 l 456 -165 q 763 -240 600 -240 q 1051 -172 915 -240 l 1071 -162 l 1081 -169 q 1115 -176 1097 -176 q 1149 -170 1135 -176 q 1178 -150 1163 -164 q 1203 -89 1203 -125 m 1192 -49 l 1176 -28 q 1115 -1 1153 -1 q 1053 -26 1078 -1 q 1028 -89 1028 -51 q 1033 -122 1028 -103 l 1051 -149 q 910 -201 983 -183 q 758 -218 838 -218 q 494 -160 619 -218 l 471 -149 l 488 -122 q 494 -89 494 -106 q 469 -26 494 -51 q 407 -1 444 -1 q 344 -26 369 -1 l 329 -49 l 313 -32 l 296 -15 l 319 -1 q 343 61 343 25 q 319 123 343 97 q 256 149 294 149 q 222 143 242 149 l 197 125 q 145 266 163 193 q 128 418 128 339 q 186 682 128 557 l 197 706 l 222 689 q 256 682 239 682 q 290 689 274 682 q 319 708 306 696 q 343 769 343 732 q 318 831 343 806 l 296 847 l 313 864 l 329 881 l 344 857 q 407 833 368 833 q 468 858 442 833 q 494 921 494 883 q 488 954 494 938 l 471 979 l 494 990 q 761 1049 622 1049 q 1049 981 917 1049 l 1033 954 q 1028 921 1028 935 q 1053 858 1028 883 q 1115 833 1078 833 q 1178 857 1151 833 l 1192 881 l 1208 864 l 1225 847 l 1203 832 q 1178 769 1178 807 q 1203 708 1178 733 q 1265 682 1229 682 q 1286 685 1278 682 q 1299 689 1294 688 l 1325 706 l 1336 682 q 1394 417 1394 557 q 1325 128 1394 264 l 1299 142 q 1265 149 1282 149 q 1203 124 1228 149 q 1178 61 1178 99 q 1203 -1 1178 26 l 1225 -15 l 1208 -32 l 1192 -49 m 1074 224 q 1011 249 1049 249 q 950 222 975 249 q 925 160 925 196 q 950 99 925 124 q 1013 74 975 74 q 1074 99 1049 74 q 1099 161 1099 124 q 1074 224 1099 196 m 849 265 q 824 328 849 303 q 761 353 799 353 q 699 328 724 353 q 674 265 674 303 q 699 203 674 229 q 761 178 725 178 q 791 183 775 178 q 822 204 807 189 q 849 265 849 228 m 999 415 q 974 478 999 453 q 911 503 949 503 q 849 478 874 503 q 824 415 824 453 q 849 353 824 378 q 911 328 874 328 q 972 354 949 328 q 999 415 999 381 m 1099 669 q 1074 732 1099 704 q 1010 757 1046 757 q 950 732 975 757 q 925 671 925 707 q 950 608 925 633 q 1011 582 975 582 q 1074 608 1049 582 q 1099 669 1099 633 m 568 226 q 506 251 543 251 q 444 226 469 251 q 419 164 419 201 q 446 103 419 128 q 507 78 472 78 q 569 103 543 78 q 594 165 594 128 q 568 226 594 201 m 699 415 q 674 478 699 453 q 611 503 649 503 q 549 477 575 503 q 524 415 524 451 q 549 353 524 378 q 611 328 574 328 q 674 353 650 328 q 699 415 699 379 m 849 565 q 823 627 849 601 q 761 653 797 653 q 699 628 724 653 q 674 565 674 603 q 699 503 674 528 q 761 478 724 478 q 823 502 797 478 q 849 565 849 526 m 568 728 q 506 753 543 753 q 444 728 469 753 q 419 665 419 703 q 444 604 419 629 q 506 579 469 579 q 569 604 543 579 q 594 665 594 629 q 568 728 594 701 z "},"N":{"ha":1528,"x_min":83,"x_max":1449,"o":"m 924 1040 l 904 1003 l 881 1008 q 767 1018 831 1018 q 650 1008 704 1018 l 628 1003 l 610 1040 q 567 1096 581 1096 q 557 1063 557 1096 q 560 1019 557 1036 q 564 992 563 1001 l 567 985 l 539 975 q 338 843 428 931 q 261 749 293 799 q 206 642 229 700 l 196 614 l 188 615 q 114 624 139 624 q 85 614 85 624 q 139 571 85 600 l 178 551 l 172 531 q 163 414 163 476 q 172 297 163 350 l 178 276 l 140 257 q 83 214 83 228 q 115 204 83 204 q 188 213 142 204 l 197 214 l 206 186 q 260 81 228 131 q 338 -15 293 31 q 539 -147 431 -104 l 567 -157 l 564 -165 q 558 -202 560 -185 q 557 -236 557 -219 q 568 -268 557 -268 q 610 -212 583 -268 l 628 -176 l 650 -181 q 707 -189 679 -186 q 767 -192 735 -192 q 882 -181 822 -192 l 904 -175 l 922 -214 q 965 -269 951 -269 q 976 -237 976 -269 q 968 -165 976 -211 l 967 -157 l 993 -146 q 1192 -17 1103 -104 q 1328 186 1281 71 l 1336 214 l 1344 213 q 1418 204 1393 204 q 1447 214 1447 204 q 1392 256 1447 229 l 1356 276 l 1361 297 q 1372 414 1372 357 q 1361 531 1372 468 l 1356 551 l 1392 571 q 1449 614 1449 600 q 1417 624 1449 624 q 1344 615 1390 624 l 1338 614 l 1328 642 q 1272 747 1306 694 q 1196 843 1239 799 q 993 975 1103 933 l 967 983 l 968 992 q 976 1068 976 1042 q 971 1094 976 1089 q 951 1085 964 1100 q 924 1040 939 1071 m 1269 619 l 1275 603 l 978 547 l 932 542 l 892 539 l 894 579 l 900 626 l 956 922 l 971 919 q 1153 798 1075 878 q 1269 619 1232 718 m 850 896 q 811 844 832 861 q 767 828 790 828 q 683 896 717 828 l 657 947 q 768 958 717 958 q 815 956 790 958 q 871 949 839 954 l 875 947 l 850 896 m 1301 518 q 1311 414 1311 469 q 1310 363 1311 381 q 1301 310 1308 344 l 1300 304 l 1246 331 q 1181 414 1181 364 q 1247 497 1181 464 l 1300 524 l 1301 518 m 1271 210 q 1154 31 1233 111 q 971 -92 1075 -50 l 954 -94 l 900 203 l 894 249 l 890 290 l 932 285 q 961 283 951 285 q 978 279 974 279 l 1275 226 l 1271 210 m 633 626 l 638 578 l 643 538 l 600 542 l 554 547 l 257 603 l 261 619 q 382 800 303 721 q 561 919 461 879 l 576 922 l 633 626 m 638 249 l 632 201 l 576 -94 l 561 -92 q 381 29 460 -50 q 260 210 301 108 l 257 225 l 554 279 q 599 285 572 285 l 643 290 l 638 249 m 850 -65 l 875 -119 l 871 -122 q 765 -132 822 -132 q 714 -131 732 -132 q 661 -122 696 -129 l 657 -119 l 683 -67 q 767 0 719 0 q 811 -17 790 0 q 850 -65 832 -35 m 285 331 l 233 304 l 231 310 q 221 418 221 360 q 231 518 221 471 l 233 524 l 285 497 q 334 460 317 482 q 351 414 351 438 q 285 331 351 367 m 690 336 q 657 415 657 368 q 690 492 657 460 q 768 524 724 524 q 846 492 814 524 q 878 413 878 460 q 846 335 878 367 q 768 303 814 303 q 690 336 722 303 z "},"O":{"ha":1528,"x_min":88,"x_max":1431,"o":"m 1333 171 l 1353 219 l 1329 214 q 1308 211 1319 211 q 1292 211 1297 211 q 1154 268 1211 211 q 1097 406 1097 325 q 1153 541 1097 485 q 1292 597 1210 597 q 1329 594 1317 597 l 1358 586 l 1356 600 q 1199 856 1308 746 q 943 1013 1090 965 l 931 1015 l 939 986 q 942 950 942 974 q 885 811 942 868 q 749 754 828 754 q 611 811 669 754 q 553 950 553 868 q 557 986 553 967 l 564 1008 l 515 989 q 316 855 404 942 q 182 657 228 768 l 164 610 l 188 615 q 224 618 200 618 q 362 562 306 618 q 418 424 418 506 q 362 288 418 343 q 224 232 306 232 q 188 235 200 232 l 157 243 l 160 228 q 316 -28 207 81 q 572 -183 425 -137 l 586 -186 l 578 -157 q 576 -135 576 -147 q 575 -118 575 -124 q 588 -44 575 -78 q 632 18 601 -11 q 768 75 689 75 q 906 17 849 75 q 948 -45 933 -10 q 963 -119 963 -81 q 960 -157 963 -144 l 953 -179 l 1001 -160 q 1106 -105 1054 -139 q 1201 -26 1157 -71 q 1278 66 1246 19 q 1333 171 1310 113 m 1110 -29 l 847 178 l 806 306 q 757 296 786 296 q 713 304 736 294 l 669 178 l 407 -29 l 314 64 l 521 325 l 649 365 q 640 394 642 385 q 640 414 639 403 q 649 461 640 440 l 519 503 l 314 765 l 407 858 l 668 651 l 710 524 q 757 533 731 533 q 804 525 785 533 l 849 651 l 1110 858 l 1201 765 l 996 503 l 867 464 q 876 414 876 440 q 868 368 878 393 l 994 325 l 1201 64 l 1110 -29 m 863 -29 q 768 10 824 10 q 674 -29 713 10 q 635 -122 635 -68 q 674 -218 635 -179 q 768 -257 713 -257 q 862 -217 822 -257 q 901 -122 901 -178 q 863 -29 901 -68 m 1390 499 q 1294 539 1350 539 q 1201 500 1243 539 q 1163 406 1163 458 q 1202 310 1163 350 q 1296 271 1242 271 q 1390 311 1350 271 q 1431 404 1431 351 q 1390 499 1431 458 m 810 467 q 758 488 789 488 q 706 466 728 488 q 685 414 685 444 q 706 363 685 385 q 758 342 728 342 q 810 363 789 342 q 832 414 832 383 q 810 467 832 446 m 314 518 q 221 557 275 557 q 128 518 168 557 q 88 425 88 479 q 127 330 88 369 q 222 290 167 290 q 315 330 275 290 q 354 424 354 369 q 314 518 354 478 m 843 1047 q 750 1086 804 1086 q 656 1047 697 1086 q 615 951 615 1007 q 655 858 615 897 q 749 818 694 818 q 843 858 806 818 q 881 951 881 899 q 843 1047 881 1007 z "},"P":{"ha":1528,"x_min":117,"x_max":1411,"o":"m 1378 96 l 1396 136 l 1139 394 l 1411 667 l 1407 681 q 1254 910 1356 808 q 1025 1063 1153 1011 l 1017 1065 l 743 790 l 481 1051 l 440 1033 q 352 979 392 1008 q 272 910 313 950 q 149 740 194 832 l 129 700 l 390 439 l 117 165 l 119 157 q 272 -72 171 29 q 501 -225 374 -174 l 515 -229 l 788 43 l 1044 -215 l 1085 -196 q 1254 -72 1176 -150 q 1378 96 1326 0 m 1013 -94 l 763 156 l 1026 418 l 1276 169 l 1013 -94 m 1088 238 q 1007 271 1054 271 q 924 236 961 271 q 890 154 890 200 q 924 74 890 107 q 963 47 942 56 q 1008 39 983 39 q 1088 72 1054 39 q 1122 154 1122 106 q 1088 238 1122 203 m 514 -94 l 250 169 l 500 418 l 763 156 l 514 -94 m 1026 418 l 763 682 l 1013 932 l 1276 668 l 1026 418 m 589 244 q 507 279 554 279 q 426 245 461 279 q 390 164 390 211 q 425 81 390 118 q 507 47 461 47 q 589 82 556 47 q 622 164 622 117 q 589 244 622 211 m 681 336 q 646 418 646 371 q 681 501 646 464 q 763 535 717 535 q 844 501 810 535 q 879 418 879 467 q 844 338 879 371 q 761 303 811 303 q 681 336 714 303 m 1101 757 q 1018 790 1065 790 q 937 756 971 790 q 903 675 903 722 q 937 594 903 628 q 1018 560 971 560 q 1100 593 1065 560 q 1135 675 1135 626 q 1101 757 1135 721 m 500 418 l 250 668 l 514 932 l 763 682 l 500 418 m 576 749 q 494 783 542 783 q 411 749 449 783 q 378 667 378 713 q 413 585 378 619 q 494 550 447 550 q 575 585 542 550 q 610 668 610 618 q 576 749 610 715 z "},"Q":{"ha":1528,"x_min":203,"x_max":1325,"o":"m 1256 268 q 1131 333 1201 319 l 1107 336 l 1142 318 q 1155 309 1150 313 q 1174 292 1160 306 q 1232 150 1232 233 q 1174 7 1232 65 q 1031 -51 1115 -51 q 889 7 947 -51 q 863 39 872 24 l 844 74 l 847 50 q 913 -75 861 -21 q 991 -127 947 -110 q 1085 -144 1035 -144 q 1256 -75 1186 -144 q 1308 3 1292 -40 q 1325 96 1325 46 q 1256 268 1325 199 m 985 638 q 882 706 940 682 q 764 729 824 729 q 646 706 703 729 q 544 638 589 683 q 475 535 499 593 q 451 417 451 476 q 543 196 451 288 q 646 128 588 151 q 764 104 704 104 q 985 196 893 104 q 1053 299 1029 240 q 1076 417 1076 357 q 1053 535 1076 478 q 985 638 1031 592 m 681 50 l 683 74 l 665 39 q 654 22 657 26 q 639 7 643 11 q 497 -51 581 -51 q 356 7 415 -51 q 296 150 296 65 q 354 292 296 233 q 386 318 371 308 l 421 336 l 397 333 q 272 268 326 321 q 203 96 203 196 q 272 -75 203 -3 q 351 -127 307 -110 q 444 -144 394 -144 q 615 -75 546 -144 q 681 50 668 -21 m 1256 908 q 1085 978 1183 978 q 913 908 985 978 q 847 783 861 854 l 844 760 l 863 794 q 874 811 871 807 q 889 826 885 822 q 1031 885 947 885 q 1174 825 1115 885 q 1232 683 1232 765 q 1174 542 1232 600 q 1142 515 1157 525 l 1107 497 l 1131 500 q 1256 565 1201 514 q 1308 644 1292 601 q 1325 736 1325 686 q 1256 908 1325 839 m 681 783 q 615 908 667 854 q 444 978 543 978 q 274 907 344 978 q 203 736 203 836 q 272 565 203 638 q 397 500 326 514 l 421 497 l 386 515 q 369 526 374 524 q 354 542 358 538 q 296 683 296 600 q 354 826 296 765 q 497 885 415 885 q 639 826 581 885 q 665 794 656 810 l 683 760 l 681 783 z "},"R":{"ha":1528,"x_min":69,"x_max":1458,"o":"m 782 -278 l 782 -175 l 788 -175 q 856 -135 829 -167 q 882 -60 882 -103 q 856 15 882 -17 q 788 56 829 47 l 782 57 l 782 124 l 786 125 q 822 179 822 139 q 786 233 822 218 l 782 235 l 782 296 q 832 315 810 300 l 836 318 l 881 274 l 878 271 q 874 249 874 260 q 892 207 874 224 q 932 190 910 190 l 954 194 l 958 196 l 1006 149 l 1003 144 q 983 81 983 114 q 1017 -3 983 32 q 1100 -37 1051 -37 q 1165 -18 1135 -37 l 1169 -15 l 1242 -87 l 1268 -61 l 1196 11 l 1199 15 q 1218 81 1218 46 q 1183 163 1218 129 q 1144 189 1165 181 q 1100 197 1124 197 q 1036 178 1067 197 l 1032 175 l 985 222 l 986 226 q 990 249 990 238 q 974 289 990 271 q 932 307 957 307 q 910 303 921 307 l 907 300 l 863 344 l 865 349 q 885 399 881 371 l 946 399 l 947 394 q 1001 358 963 358 q 1056 394 1042 358 l 1057 399 l 1124 399 l 1125 393 q 1165 326 1133 353 q 1240 300 1197 300 q 1315 326 1283 300 q 1356 393 1347 353 l 1356 399 l 1458 399 l 1458 435 l 1356 435 l 1356 440 q 1315 508 1347 482 q 1240 535 1283 535 q 1165 508 1197 535 q 1125 440 1133 482 l 1124 435 l 1057 435 l 1056 439 q 1001 475 1042 475 q 947 439 963 475 l 946 435 l 885 435 q 865 485 881 463 l 863 489 l 907 533 l 910 531 l 932 526 q 974 544 957 526 q 990 586 990 563 q 986 607 990 596 l 985 611 l 1032 658 l 1036 656 q 1100 636 1064 636 q 1183 671 1150 636 q 1218 754 1218 704 q 1199 818 1218 788 l 1196 822 l 1268 894 l 1242 921 l 1169 849 l 1165 851 q 1100 871 1135 871 q 1018 836 1051 871 q 992 797 1000 818 q 983 753 983 776 q 1003 689 983 719 l 1006 685 l 958 638 l 954 639 q 932 643 943 643 q 892 626 910 643 q 874 583 874 610 q 878 563 874 574 l 881 560 l 836 515 l 832 518 q 782 538 810 533 l 782 599 l 786 600 q 822 654 822 615 q 786 708 822 694 l 782 710 l 782 776 l 788 778 q 856 818 829 786 q 882 893 882 850 q 856 968 882 936 q 788 1008 829 1000 l 782 1008 l 782 1111 l 746 1111 l 746 1008 l 740 1008 q 674 968 700 1000 q 647 893 647 936 q 674 818 647 850 q 740 778 700 786 l 746 776 l 746 710 l 742 708 q 706 654 706 694 q 742 600 706 615 l 746 599 l 746 538 q 696 518 718 533 l 692 515 l 647 560 l 650 563 q 654 585 654 574 q 636 626 654 610 q 594 643 618 643 q 574 639 585 643 l 569 638 l 522 685 l 525 689 q 544 753 544 719 q 510 836 544 801 q 426 871 476 871 q 363 851 393 871 l 358 849 l 286 921 l 260 894 l 332 822 l 329 818 q 310 753 310 788 q 344 671 310 704 q 428 636 378 636 q 492 656 464 636 l 496 658 l 543 611 l 542 607 q 538 585 538 596 q 554 544 538 563 q 596 526 571 526 l 618 531 l 621 533 l 665 489 l 663 485 q 643 435 647 463 l 582 435 l 581 439 q 526 475 565 475 q 472 439 486 475 l 471 435 l 404 435 l 403 440 q 363 508 394 482 q 288 535 331 535 q 213 508 244 535 q 172 440 181 482 l 172 435 l 69 435 l 69 399 l 172 399 l 172 393 q 213 326 181 353 q 288 300 244 300 q 363 326 331 300 q 403 393 394 353 l 404 399 l 471 399 l 472 394 q 526 358 486 358 q 581 394 565 358 l 582 399 l 643 399 q 663 349 647 371 l 665 344 l 621 300 l 618 303 q 596 307 607 307 q 554 289 571 307 q 538 247 538 271 q 542 226 538 238 l 543 222 l 496 175 l 492 178 q 428 197 461 197 q 344 163 379 197 q 310 79 310 129 q 329 15 310 46 l 332 11 l 260 -61 l 286 -87 l 358 -15 l 363 -18 q 428 -37 393 -37 q 510 -3 476 -37 q 536 36 528 15 q 544 81 544 57 q 525 144 544 114 l 522 149 l 569 196 l 574 194 l 596 190 q 636 207 618 190 q 654 250 654 224 q 650 271 654 260 l 647 274 l 692 318 l 696 315 q 746 296 718 300 l 746 235 l 742 233 q 706 179 706 218 q 742 125 706 139 l 746 124 l 746 57 l 740 56 q 674 15 700 47 q 647 -60 647 -17 q 674 -135 647 -103 q 740 -175 700 -167 l 746 -175 l 746 -278 l 782 -278 z "},"S":{"ha":1528,"x_min":69,"x_max":1458,"o":"m 901 -140 q 878 -64 901 -99 q 817 -14 854 -29 l 782 -7 l 782 74 l 790 75 q 832 138 832 92 q 822 176 832 160 q 790 201 811 193 l 782 203 l 782 275 l 793 276 q 832 290 815 281 l 850 304 l 901 253 l 897 246 q 892 219 892 229 q 912 172 892 192 q 961 151 932 151 l 986 156 l 994 161 l 1049 106 l 1043 99 q 1021 22 1021 64 q 1061 -75 1021 -35 q 1158 -115 1101 -115 q 1254 -75 1213 -115 q 1296 22 1296 -35 q 1256 119 1296 79 q 1158 160 1215 160 q 1082 138 1117 160 l 1075 132 l 1019 186 l 1025 194 q 1029 219 1029 207 q 1009 269 1029 249 q 961 289 989 289 q 935 283 951 289 l 928 279 l 876 331 l 890 349 q 904 388 899 363 l 906 399 l 978 399 l 979 390 q 1043 349 997 349 q 1106 390 1089 349 l 1107 399 l 1188 399 l 1194 364 q 1244 302 1211 325 q 1321 279 1278 279 q 1418 319 1378 279 q 1458 417 1458 360 q 1418 514 1458 474 q 1321 554 1378 554 q 1244 531 1279 554 q 1194 471 1210 507 l 1188 435 l 1107 435 l 1106 443 q 1043 485 1089 485 q 1004 474 1021 485 q 979 443 988 464 l 978 435 l 906 435 l 904 446 q 890 485 900 468 l 876 503 l 928 554 l 935 550 q 961 544 951 544 q 1009 565 989 544 q 1029 615 1029 585 q 1025 639 1029 628 l 1019 647 l 1075 701 l 1082 696 q 1158 674 1117 674 q 1256 714 1215 674 q 1296 811 1296 754 q 1256 906 1296 865 q 1158 947 1217 947 q 1060 908 1100 947 q 1021 811 1021 868 q 1043 735 1021 769 l 1049 728 l 994 672 l 986 678 q 961 682 974 682 q 912 662 932 682 q 892 614 892 642 q 897 588 892 604 l 901 581 l 850 529 l 832 543 q 793 557 815 553 l 782 558 l 782 631 l 790 632 q 832 696 832 649 q 790 758 832 742 l 782 760 l 782 840 l 817 847 q 878 897 856 864 q 901 974 901 931 q 861 1071 901 1031 q 764 1111 821 1111 q 667 1071 707 1111 q 626 974 626 1031 q 650 897 626 932 q 711 847 674 863 l 746 840 l 746 760 l 738 758 q 696 696 696 742 q 738 632 696 649 l 746 631 l 746 558 l 735 557 q 696 543 713 553 l 678 529 l 626 581 l 631 588 q 636 614 636 604 q 616 662 636 642 q 565 682 596 682 q 542 678 553 682 l 533 672 l 479 728 l 485 735 q 507 811 507 769 q 467 908 507 868 q 369 947 428 947 q 272 908 313 947 q 233 811 233 868 q 273 713 233 753 q 369 674 313 674 q 446 696 411 674 l 453 701 l 508 647 l 503 639 q 499 614 499 626 q 519 565 499 585 q 567 544 539 544 q 593 550 576 544 l 600 554 l 651 503 l 638 485 q 624 446 628 468 l 622 435 l 550 435 l 549 443 q 485 485 531 485 q 422 443 439 485 l 421 435 l 340 435 l 333 471 q 283 531 317 508 q 207 554 250 554 q 110 514 150 554 q 69 417 69 474 q 110 319 69 360 q 207 279 150 279 q 283 303 249 279 q 333 364 318 326 l 340 399 l 421 399 l 422 390 q 485 349 439 349 q 524 359 507 349 q 549 390 540 369 l 550 399 l 622 399 l 624 388 q 638 349 629 363 l 651 331 l 600 279 l 593 283 q 567 289 576 289 q 519 269 539 289 q 499 218 499 249 q 503 194 499 206 l 508 186 l 453 132 l 446 138 q 369 160 411 160 q 273 120 313 160 q 233 22 233 81 q 274 -76 233 -36 q 369 -115 315 -115 q 467 -75 426 -115 q 507 22 507 -35 q 485 99 507 64 l 479 106 l 533 161 l 542 156 l 567 151 q 616 172 596 151 q 636 219 636 192 q 631 246 636 229 l 626 253 l 678 304 l 696 290 q 735 276 713 281 l 746 275 l 746 203 l 738 201 q 696 138 696 183 q 738 75 696 92 l 746 74 l 746 -7 l 711 -14 q 649 -64 672 -31 q 626 -140 626 -97 q 667 -237 626 -197 q 764 -278 707 -278 q 861 -237 821 -278 q 901 -140 901 -197 z "},"T":{"ha":1528,"x_min":69,"x_max":1458,"o":"m 986 -131 l 989 -125 l 993 -128 q 1085 -146 1040 -146 q 1256 -75 1185 -146 q 1308 3 1290 -40 q 1325 97 1325 47 q 1308 188 1325 143 l 1306 192 l 1311 194 q 1417 282 1376 222 q 1458 417 1458 342 q 1418 551 1458 492 q 1311 639 1378 611 l 1306 642 l 1308 646 q 1325 736 1325 690 q 1254 908 1325 838 q 1176 960 1219 943 q 1082 978 1132 978 q 993 961 1038 978 l 989 958 l 986 964 q 899 1070 958 1029 q 764 1111 839 1111 q 629 1071 689 1111 q 542 964 569 1031 l 539 958 l 535 961 q 444 978 490 978 q 272 908 343 978 q 201 738 201 838 q 219 646 201 693 l 222 642 l 217 639 q 110 551 151 611 q 69 417 69 492 q 110 282 69 342 q 217 194 150 222 l 222 192 l 219 188 q 201 96 201 140 q 272 -75 201 -4 q 351 -128 307 -110 q 443 -146 396 -146 q 535 -128 488 -146 l 539 -125 l 542 -131 q 629 -237 569 -196 q 764 -278 689 -278 q 899 -237 839 -278 q 986 -131 958 -197 m 621 -103 l 604 -83 l 615 -75 q 681 50 668 -21 l 683 72 l 665 39 q 654 22 657 26 q 639 7 643 11 l 608 -18 l 576 -35 l 567 -1 l 563 39 l 567 79 l 578 117 l 564 99 q 522 -36 522 39 l 522 -49 l 497 -51 q 354 7 415 -51 q 296 150 296 68 l 297 175 l 311 175 q 446 217 385 175 l 464 231 l 426 219 l 386 215 l 346 219 l 313 229 l 329 261 l 354 292 q 386 318 371 308 l 419 336 l 397 333 q 272 268 326 321 l 264 257 l 244 274 q 185 417 185 333 q 244 560 185 500 l 264 576 l 272 565 q 397 500 326 513 l 419 497 l 386 515 l 354 540 l 329 572 l 313 604 l 346 614 l 386 618 l 426 614 l 464 603 l 446 617 q 311 658 385 658 l 297 658 l 296 683 q 354 825 296 765 q 497 885 413 885 l 522 882 l 522 869 q 564 735 522 794 l 578 717 l 567 754 l 563 794 l 567 835 l 576 868 l 608 851 l 639 826 q 665 794 656 810 l 683 761 l 681 783 q 614 908 668 854 l 604 915 l 621 936 q 764 996 681 996 q 906 936 849 996 l 924 915 l 913 907 q 847 783 860 854 l 844 761 l 863 794 q 889 826 875 814 l 919 851 l 951 868 l 961 835 l 965 794 l 961 754 l 950 717 l 964 735 q 1006 869 1006 794 l 1006 882 l 1031 885 q 1174 826 1113 885 q 1232 683 1232 765 l 1229 658 l 1217 658 q 1082 617 1142 658 l 1064 603 l 1101 614 l 1142 618 l 1182 614 l 1215 604 l 1199 572 l 1174 542 q 1142 515 1161 528 l 1108 497 l 1131 500 q 1254 565 1201 513 l 1263 576 l 1283 560 q 1343 417 1343 500 q 1283 274 1343 333 l 1263 257 l 1254 268 q 1131 333 1201 321 l 1108 336 l 1142 318 q 1155 309 1150 313 q 1174 292 1160 306 l 1199 261 l 1215 229 l 1182 219 l 1142 215 l 1101 219 l 1064 231 l 1082 217 q 1217 175 1142 175 l 1229 175 l 1232 150 q 1172 7 1232 65 q 1031 -51 1113 -51 l 1006 -50 l 1006 -36 q 964 99 1006 39 l 950 117 l 961 79 l 965 39 l 961 -1 l 951 -35 l 919 -18 l 889 7 q 863 39 872 24 l 844 72 l 847 50 q 913 -75 860 -21 l 924 -83 l 906 -103 q 764 -162 849 -162 q 621 -103 681 -162 m 1076 417 q 985 638 1076 546 q 764 729 893 729 q 543 638 635 729 q 451 417 451 546 q 543 196 451 288 q 764 104 635 104 q 985 196 893 104 q 1076 417 1076 288 z "},"U":{"ha":1528,"x_min":65,"x_max":1454,"o":"m 1201 -72 l 1197 -56 l 1204 -51 l 1224 -32 l 1243 -11 l 1247 -6 l 1264 -10 q 1326 16 1300 -10 q 1351 78 1351 42 q 1344 111 1351 94 l 1338 122 l 1347 142 l 1350 146 l 1351 150 l 1364 179 l 1378 214 l 1381 222 l 1388 243 l 1400 246 q 1429 264 1417 253 q 1454 328 1454 289 q 1429 388 1454 363 l 1415 397 l 1414 404 l 1415 432 l 1414 460 l 1415 467 l 1429 476 q 1454 538 1454 501 q 1429 600 1454 572 q 1400 619 1413 614 l 1388 622 l 1381 643 l 1375 656 l 1372 665 l 1361 690 l 1351 715 l 1344 725 l 1340 738 l 1338 743 l 1344 753 q 1351 786 1351 769 q 1326 849 1351 824 q 1264 874 1301 874 l 1247 871 l 1224 896 l 1204 915 l 1197 919 l 1201 936 q 1176 999 1201 974 q 1114 1024 1151 1024 q 1081 1018 1100 1024 l 1069 1010 l 1050 1019 l 1039 1025 l 1028 1031 l 1001 1042 l 979 1050 l 968 1053 l 954 1058 l 949 1060 l 946 1072 q 939 1086 944 1078 q 928 1101 933 1094 q 867 1126 903 1126 q 804 1101 832 1126 l 794 1088 l 760 1089 l 732 1088 l 725 1088 l 715 1101 q 654 1126 690 1126 q 592 1101 619 1126 q 574 1072 578 1085 l 571 1060 l 550 1053 l 538 1049 l 526 1044 l 500 1033 l 476 1024 l 468 1018 l 454 1013 l 450 1010 l 440 1018 l 406 1025 q 343 1000 368 1025 q 318 938 318 975 l 322 919 l 296 896 l 292 890 l 289 889 l 274 871 l 256 874 q 194 848 219 874 q 168 786 168 822 q 175 753 168 769 l 182 743 l 179 738 l 171 717 l 161 700 l 154 683 l 147 665 l 142 649 l 133 626 l 132 622 l 119 619 q 106 611 115 618 q 90 600 96 604 q 65 538 65 572 q 90 476 65 501 l 104 467 l 104 442 l 104 439 l 104 432 l 104 397 l 90 388 q 65 326 65 363 q 90 264 65 289 q 119 246 103 253 l 132 243 l 133 238 l 139 224 l 142 214 l 151 190 l 161 164 l 168 153 l 172 142 l 182 122 l 175 113 q 168 78 168 94 q 193 15 168 40 q 256 -10 218 -10 l 272 -6 l 276 -11 l 290 -25 l 292 -26 l 296 -32 l 321 -54 l 318 -72 q 344 -134 318 -108 q 406 -160 369 -160 q 440 -153 429 -157 l 450 -146 l 454 -149 l 468 -154 l 476 -158 l 497 -168 l 526 -181 l 540 -185 l 550 -189 l 571 -196 l 574 -208 q 592 -236 578 -222 q 654 -262 618 -262 q 715 -236 690 -262 l 725 -222 l 732 -222 l 751 -222 l 753 -222 l 760 -224 l 793 -222 l 804 -236 q 867 -262 831 -262 q 928 -236 903 -262 q 946 -208 942 -222 l 949 -196 l 954 -194 l 968 -189 l 979 -186 l 1001 -176 l 1028 -165 l 1039 -161 l 1050 -156 l 1069 -146 l 1081 -153 q 1114 -160 1090 -157 q 1147 -153 1132 -160 q 1176 -133 1163 -147 q 1201 -72 1201 -108 m 1061 -72 q 1032 -65 1049 -72 l 1024 -60 l 1007 -68 l 997 -72 l 989 -78 l 965 -85 l 946 -94 l 936 -96 l 926 -101 l 921 -101 l 919 -112 q 903 -137 914 -128 q 850 -158 882 -158 q 797 -137 818 -158 l 789 -125 l 760 -125 l 754 -125 l 751 -125 l 736 -125 l 731 -125 l 722 -137 q 669 -160 701 -160 q 617 -137 639 -160 q 600 -112 607 -128 l 599 -101 l 581 -96 l 572 -93 l 560 -89 l 538 -79 l 519 -72 l 511 -68 l 500 -61 l 496 -60 l 488 -65 q 458 -72 471 -72 q 405 -51 426 -72 q 383 3 383 -29 l 386 18 l 365 38 l 360 42 l 349 54 l 346 58 l 331 56 q 277 77 299 56 q 256 131 256 99 q 263 160 256 143 l 268 168 l 258 185 l 256 194 l 250 203 l 242 226 l 233 246 l 232 256 l 226 267 l 225 271 l 215 274 q 190 289 201 278 q 168 342 168 311 q 190 394 168 369 l 201 403 l 201 432 l 201 438 l 201 440 l 203 461 l 190 469 q 168 522 168 492 q 190 575 168 550 q 215 592 201 586 l 225 593 l 226 599 l 233 615 l 239 632 l 244 646 l 250 661 l 258 675 l 265 693 l 268 696 l 263 704 q 256 733 256 721 q 277 787 256 765 q 331 808 299 808 l 346 806 l 360 821 l 361 824 l 365 826 l 386 847 l 383 861 q 405 915 383 893 q 458 936 426 936 q 488 931 475 936 l 496 924 l 500 926 l 511 932 l 519 936 l 539 944 l 560 954 l 571 957 l 581 961 l 599 967 l 600 976 q 617 1001 607 992 q 669 1024 639 1024 q 722 1001 701 1024 l 731 990 l 736 990 l 760 990 l 789 989 l 797 1001 q 850 1024 818 1024 q 903 1001 882 1024 q 919 976 914 992 l 921 967 l 926 965 l 936 961 l 946 958 l 967 951 l 989 942 l 997 938 l 1007 933 l 1024 924 l 1032 931 q 1061 936 1044 936 q 1115 915 1093 936 q 1136 861 1136 893 l 1133 847 l 1138 843 l 1154 826 l 1174 806 l 1189 808 q 1242 787 1221 808 q 1264 733 1264 765 q 1258 704 1264 724 l 1251 696 l 1254 693 l 1258 682 l 1264 672 l 1271 651 l 1281 632 l 1285 621 l 1288 611 l 1294 593 l 1304 592 q 1329 575 1314 588 q 1351 522 1351 553 q 1329 469 1351 490 l 1318 461 l 1318 456 l 1318 432 l 1318 408 l 1318 403 l 1329 394 q 1351 342 1351 374 q 1329 289 1351 314 q 1304 274 1318 278 l 1294 271 l 1288 253 l 1286 246 l 1274 217 l 1264 192 l 1261 185 l 1251 168 l 1258 160 q 1264 131 1264 140 q 1242 77 1264 99 q 1189 56 1221 56 l 1174 58 l 1171 56 l 1154 38 l 1138 22 l 1133 18 l 1136 3 q 1114 -50 1136 -28 q 1061 -72 1092 -72 m 1126 207 q 1054 238 1096 238 q 981 207 1014 238 q 950 135 950 174 q 981 63 950 93 q 1013 40 993 49 q 1053 32 1033 32 q 1126 63 1096 32 q 1156 136 1156 93 q 1126 207 1156 178 m 863 257 l 860 276 l 858 281 l 829 264 q 760 250 797 250 q 692 264 724 250 l 661 281 l 660 276 l 657 257 q 688 185 657 215 q 758 154 718 154 q 832 185 801 154 q 863 257 863 215 m 1036 432 q 1007 504 1036 474 q 935 535 978 535 l 915 532 l 929 501 q 942 432 942 468 q 929 364 942 396 l 913 333 l 935 331 q 1007 360 979 331 q 1036 432 1036 388 m 847 519 q 758 556 811 556 q 671 521 706 556 q 644 480 653 503 q 636 432 636 457 q 672 344 636 379 q 758 308 707 308 q 846 344 808 308 q 883 432 883 379 q 847 519 883 483 m 535 211 q 463 242 504 242 q 391 212 422 242 q 360 139 360 182 q 390 67 360 97 q 464 36 421 36 q 535 65 506 36 q 557 98 549 78 q 565 138 565 118 q 535 211 565 181 m 1156 729 q 1125 801 1156 771 q 1051 832 1094 832 q 981 803 1010 832 q 951 731 951 774 q 981 656 951 686 q 1054 626 1011 626 q 1126 656 1097 626 q 1156 729 1156 686 m 590 364 q 578 432 578 396 q 590 501 578 468 l 607 532 l 583 535 q 511 504 542 535 q 481 432 481 474 q 511 360 481 390 q 583 329 542 329 l 604 332 l 590 364 m 863 607 q 832 679 863 649 q 758 710 801 710 q 688 681 718 710 q 657 608 657 651 q 660 588 657 593 l 692 601 q 760 615 729 615 q 793 613 781 615 q 829 601 806 610 l 858 585 l 863 607 m 535 799 q 463 828 506 828 q 392 797 424 828 q 360 724 360 767 q 390 652 360 682 q 463 622 419 622 q 535 653 506 622 q 557 685 549 665 q 565 725 565 706 q 535 799 565 768 z "},"V":{"ha":1528,"x_min":69,"x_max":1458,"o":"m 901 -140 l 899 -112 l 892 -89 l 968 -65 l 1031 -31 l 1043 -53 l 1061 -75 q 1158 -115 1101 -115 q 1254 -75 1213 -115 q 1296 22 1296 -35 q 1256 119 1296 79 l 1233 138 l 1211 150 l 1246 214 l 1269 290 l 1293 282 l 1321 279 q 1418 319 1378 279 q 1458 417 1458 360 q 1418 514 1458 474 q 1321 554 1378 554 l 1293 551 l 1269 544 l 1246 621 l 1211 683 l 1233 696 l 1256 714 q 1296 811 1296 754 q 1256 906 1296 865 q 1158 947 1217 947 q 1061 908 1100 947 l 1043 886 l 1031 864 l 968 899 l 892 922 l 899 946 l 901 974 q 861 1071 901 1031 q 764 1111 821 1111 q 667 1071 707 1111 q 626 974 626 1031 l 629 946 l 638 922 l 561 899 l 497 864 l 485 886 l 467 908 q 369 947 428 947 q 272 908 313 947 q 233 811 233 868 q 272 714 233 753 l 294 696 l 317 683 l 282 621 l 258 544 l 235 551 l 207 554 q 110 514 150 554 q 69 417 69 474 q 110 319 69 360 q 207 279 150 279 l 235 282 l 258 290 l 282 214 l 317 150 l 294 138 l 272 119 q 233 22 233 81 q 274 -76 233 -36 q 369 -115 315 -115 q 467 -75 426 -115 l 485 -53 l 497 -31 l 561 -65 l 638 -89 l 629 -112 l 626 -140 q 667 -237 626 -197 q 764 -278 707 -278 q 861 -237 821 -278 q 901 -140 901 -197 m 321 417 q 451 730 321 600 q 764 860 581 860 q 1077 730 947 860 q 1207 417 1207 600 q 1077 103 1207 233 q 764 -26 947 -26 q 451 103 581 -26 q 321 417 321 233 m 1114 417 q 1011 664 1114 561 q 764 767 908 767 q 517 664 619 767 q 414 417 414 561 q 517 169 414 272 q 764 67 619 67 q 1011 169 908 67 q 1114 417 1114 272 m 488 417 l 764 693 l 1040 417 l 764 140 l 488 417 m 882 417 q 847 500 882 465 q 764 535 813 535 q 681 500 715 535 q 646 417 646 465 q 681 333 646 368 q 764 299 715 299 q 847 333 813 299 q 882 417 882 368 z "},"W":{"ha":1528,"x_min":69,"x_max":1458,"o":"m 978 -136 l 983 -115 q 928 -75 953 -100 q 882 -10 899 -46 q 861 64 865 25 l 860 92 l 881 67 q 997 18 929 18 q 1114 67 1065 18 q 1163 183 1163 115 q 1114 300 1163 251 l 1089 321 l 1117 319 q 1254 253 1196 311 q 1296 197 1281 229 l 1317 203 q 1419 288 1379 229 q 1458 417 1458 347 q 1419 546 1458 489 q 1317 631 1381 603 l 1296 636 q 1254 581 1281 604 q 1180 529 1221 546 q 1092 513 1139 513 l 1114 533 q 1163 650 1163 582 q 1115 766 1163 718 q 997 814 1067 814 q 881 767 928 814 l 860 742 l 861 769 q 928 908 871 851 q 983 949 954 935 l 978 969 q 892 1072 951 1032 q 764 1111 833 1111 q 635 1072 692 1111 q 550 969 578 1033 l 544 949 q 600 908 575 933 q 667 769 658 851 l 668 742 l 647 767 q 531 814 600 814 q 414 767 461 814 q 367 650 367 719 q 414 533 367 581 l 439 513 q 272 581 340 513 q 232 636 247 606 l 211 631 q 109 545 149 604 q 69 417 69 486 q 108 288 69 344 q 211 203 147 231 l 232 197 q 272 253 247 228 q 411 319 331 311 l 439 321 l 414 300 q 367 183 367 253 q 415 66 367 114 q 531 18 463 18 q 647 67 599 18 l 668 92 l 667 64 q 600 -75 658 -18 q 544 -115 575 -100 l 550 -136 q 635 -238 576 -199 q 764 -278 694 -278 q 893 -239 836 -278 q 978 -136 950 -200 m 451 417 q 543 638 451 546 q 764 729 635 729 q 985 638 893 729 q 1076 417 1076 546 q 985 196 1076 288 q 764 104 893 104 q 543 196 635 104 q 451 417 451 288 m 1001 417 q 932 585 1001 515 q 764 654 863 654 q 596 585 665 654 q 526 417 526 515 q 596 249 526 318 q 764 179 665 179 q 932 249 863 179 q 1001 417 1001 318 m 608 417 q 653 527 608 482 q 764 572 699 572 q 874 527 829 572 q 919 417 919 482 q 874 306 919 351 q 764 261 829 261 q 653 306 699 261 q 608 417 608 351 z "},"X":{"ha":1528,"x_min":200,"x_max":1328,"o":"m 1288 239 l 1269 261 l 1256 217 q 1207 123 1233 164 q 1139 42 1181 82 q 1058 -26 1100 1 q 964 -75 1015 -54 l 919 -89 l 942 -107 q 1079 -147 1006 -147 q 1256 -75 1183 -147 q 1328 103 1328 -3 q 1288 239 1328 175 m 1079 732 q 933 828 1017 794 q 764 863 850 863 q 595 831 675 863 q 450 733 515 799 q 351 585 385 668 q 318 417 318 503 q 351 247 318 328 q 447 103 383 167 q 594 5 511 39 q 764 -29 678 -29 q 933 3 851 -29 q 1078 99 1014 36 q 1176 247 1142 163 q 1210 417 1210 331 q 1178 585 1210 506 q 1079 732 1146 665 m 550 203 q 461 417 461 292 q 551 629 461 539 q 764 719 642 719 q 978 631 889 719 q 1067 417 1067 542 q 1045 301 1067 356 q 978 203 1024 247 q 764 114 890 114 q 649 135 701 114 q 550 203 597 156 m 564 -75 q 470 -26 511 -53 q 389 42 429 0 q 321 123 349 81 q 272 217 293 165 l 258 261 l 240 239 q 200 101 200 175 q 272 -75 200 -3 q 450 -147 344 -147 q 586 -107 522 -147 l 608 -89 l 564 -75 m 1288 594 q 1328 732 1328 656 q 1256 908 1328 836 q 1173 962 1219 943 q 1078 981 1126 981 q 942 940 1003 981 l 921 924 l 964 908 q 1058 860 1017 886 q 1139 792 1099 833 q 1207 710 1179 753 q 1256 617 1235 668 l 1271 574 l 1288 594 m 914 567 q 764 629 853 629 q 614 567 676 629 q 551 417 551 504 q 614 266 551 328 q 764 204 676 204 q 915 266 853 204 q 976 417 976 328 q 914 567 976 504 m 586 940 q 449 981 522 981 q 272 908 344 981 q 200 731 200 836 q 240 594 200 658 l 258 572 l 272 617 q 321 710 294 669 q 389 792 347 751 q 470 860 428 832 q 564 908 513 888 l 608 922 l 586 940 z "},"Y":{"ha":1528,"x_min":69,"x_max":1458,"o":"m 875 25 q 858 185 875 115 l 856 197 l 861 186 q 964 60 900 124 q 1096 -46 1028 -4 q 1208 -87 1164 -87 q 1253 -76 1236 -92 q 1269 -35 1269 -61 q 1228 81 1269 11 q 1119 218 1188 150 q 994 319 1057 281 l 983 325 l 996 322 q 1156 306 1065 306 q 1370 338 1282 306 q 1458 417 1458 369 q 1369 495 1458 463 q 1156 528 1279 528 q 996 511 1065 528 l 983 508 l 994 514 q 1119 615 1057 553 q 1228 753 1188 683 q 1269 868 1269 822 q 1256 908 1269 894 q 1215 922 1242 922 q 1100 881 1169 922 q 963 772 1031 840 q 861 647 900 710 l 856 636 l 858 649 q 875 808 875 718 q 843 1023 875 935 q 764 1111 811 1111 q 685 1022 718 1111 q 653 808 653 932 q 657 726 653 761 q 669 649 661 690 l 674 636 l 667 647 q 565 772 628 710 q 428 881 497 840 q 313 922 358 922 q 274 908 288 922 q 260 867 260 894 q 299 753 260 819 q 408 615 338 686 q 533 514 471 553 l 544 508 l 532 511 q 372 528 463 528 q 158 496 246 528 q 69 417 69 464 q 159 338 69 371 q 372 306 249 306 q 532 322 463 306 l 544 325 l 533 319 q 408 218 471 281 q 300 81 340 150 q 260 -35 260 11 q 275 -76 260 -61 q 321 -87 290 -92 q 431 -48 365 -87 q 565 61 496 -8 q 667 186 628 124 l 674 197 l 669 185 q 653 25 653 106 q 685 -190 653 -101 q 764 -278 717 -278 q 842 -188 810 -278 q 875 25 875 -99 m 690 157 q 699 253 690 208 l 728 243 q 764 240 740 240 q 800 243 789 240 l 829 253 l 829 249 l 836 207 l 838 157 q 816 14 838 72 q 764 -44 794 -44 q 713 15 735 -44 q 690 157 690 74 m 438 90 q 429 117 429 101 q 456 193 429 147 q 528 285 482 239 l 565 319 l 600 344 l 601 346 l 617 318 q 665 269 638 290 l 693 254 l 667 218 l 632 181 q 543 109 588 136 q 469 82 499 82 l 460 82 q 438 90 446 82 m 1058 82 q 985 108 1028 82 q 896 181 942 135 l 847 236 l 835 254 l 863 269 q 911 318 894 293 l 926 346 l 929 344 l 963 319 l 1000 285 q 1100 117 1100 188 q 1091 91 1100 100 q 1068 82 1082 82 l 1058 82 m 667 417 q 694 486 667 457 q 764 515 722 515 q 833 486 804 515 q 863 417 863 457 q 833 347 863 376 q 764 318 804 318 q 695 347 724 318 q 667 417 667 375 m 303 417 q 362 468 303 446 q 504 490 421 490 q 554 488 538 490 l 596 482 l 600 482 l 590 453 l 588 417 l 590 381 l 600 351 q 504 343 556 343 q 361 365 419 343 q 303 417 303 386 m 928 351 l 938 381 q 940 417 940 393 q 938 453 940 440 l 928 482 l 932 482 l 974 488 q 1001 490 986 490 q 1024 490 1015 490 q 1167 469 1108 490 q 1225 417 1225 447 q 1166 365 1225 388 q 1024 343 1107 343 q 928 351 972 343 m 583 500 l 528 549 q 456 640 482 594 q 429 717 429 686 q 438 744 429 735 q 464 753 447 753 q 540 726 496 753 q 632 653 585 700 l 667 615 l 692 582 l 693 579 l 665 564 q 617 515 638 543 l 601 488 l 583 500 m 911 515 q 892 540 901 531 q 863 564 882 550 l 835 579 l 847 597 l 896 653 q 988 725 940 697 q 1064 753 1035 753 q 1090 743 1081 753 q 1100 715 1100 733 q 1074 640 1100 685 q 1000 549 1047 596 l 944 500 l 926 488 l 911 515 m 690 676 q 712 819 690 761 q 764 878 733 878 q 815 819 793 878 q 838 676 838 760 l 836 626 l 829 585 l 829 581 l 800 590 l 764 593 l 728 590 l 699 581 q 690 676 690 625 z "},"Z":{"ha":1528,"x_min":68,"x_max":1460,"o":"m 1211 138 l 1218 150 q 1249 211 1235 178 q 1272 278 1263 244 l 1275 297 q 1410 344 1360 313 q 1460 417 1460 375 q 1410 489 1460 457 q 1279 536 1360 521 l 1272 553 q 1218 683 1254 621 l 1211 694 q 1275 854 1275 786 q 1256 908 1275 886 q 1200 928 1233 928 q 1128 911 1168 928 q 1043 864 1088 894 l 1031 871 q 900 925 968 907 l 883 928 q 837 1063 868 1013 q 764 1113 806 1113 q 692 1063 724 1113 q 644 932 660 1013 l 625 925 q 543 896 572 908 q 497 871 531 890 l 486 864 q 401 909 446 892 q 326 926 357 926 q 272 908 290 926 q 254 854 254 889 q 317 696 254 786 l 310 683 q 280 622 293 656 q 256 556 267 589 l 253 536 q 118 490 168 521 q 68 417 68 458 q 118 344 68 376 q 249 297 168 313 l 256 281 q 310 151 275 213 l 318 140 q 271 55 288 97 q 254 -21 254 13 q 273 -75 254 -57 q 326 -93 292 -93 q 485 -31 394 -93 l 499 -37 q 628 -92 560 -74 l 644 -94 q 691 -229 660 -179 q 764 -279 722 -279 q 836 -229 804 -279 q 883 -99 868 -179 l 903 -92 q 985 -62 956 -75 q 1031 -37 997 -57 l 1042 -31 q 1201 -94 1133 -94 q 1256 -75 1233 -94 q 1275 -19 1275 -53 q 1258 53 1275 13 q 1211 138 1242 93 m 967 83 q 946 114 953 97 q 939 151 939 131 q 965 215 939 189 q 1031 242 992 242 q 1097 215 1069 242 q 1125 149 1125 188 q 1097 83 1125 110 q 1032 56 1071 56 q 967 83 993 56 m 815 233 q 789 299 789 260 q 815 365 789 338 q 882 392 843 392 q 948 363 921 392 q 975 299 975 335 q 947 233 975 261 q 882 206 919 206 q 815 233 846 206 m 431 83 q 403 149 403 111 q 431 214 403 186 q 461 235 444 228 q 499 242 478 242 q 563 215 536 242 q 589 150 589 189 q 562 83 589 111 q 496 56 535 56 q 431 83 457 56 m 581 233 q 554 299 554 260 q 581 365 554 338 q 646 392 607 392 q 713 363 686 392 q 740 299 740 335 q 713 233 740 261 q 646 206 685 206 q 581 233 608 206 m 815 468 q 789 535 789 494 q 817 601 789 574 q 885 628 846 628 q 949 601 922 628 q 975 536 975 575 q 947 469 975 499 q 882 440 919 440 q 815 468 846 440 m 965 618 q 939 683 939 644 q 967 750 939 722 q 1032 778 994 778 q 1097 751 1069 778 q 1125 685 1125 724 q 1097 619 1125 646 q 1067 599 1083 606 q 1029 592 1050 592 q 965 618 992 592 m 581 468 q 554 535 554 494 q 581 600 554 574 q 646 626 607 626 q 713 599 686 626 q 740 535 740 572 q 713 468 740 496 q 646 440 685 440 q 581 468 608 440 m 431 619 q 403 685 403 647 q 431 750 403 722 q 496 778 458 778 q 561 750 533 778 q 582 719 575 736 q 589 682 589 703 q 563 618 589 644 q 497 592 536 592 q 431 619 458 592 z "},"a":{"ha":1528,"x_min":69,"x_max":1458,"o":"m 1458 417 q 1255 908 1458 704 q 764 1111 1051 1111 q 273 908 476 1111 q 69 417 69 704 q 273 -74 69 129 q 764 -278 476 -278 q 1255 -74 1051 -278 q 1458 417 1458 129 m 179 507 q 350 919 179 749 q 764 1090 521 1090 q 1176 919 1004 1090 q 1349 507 1349 749 q 1177 94 1349 265 q 764 -78 1006 -78 q 351 94 522 -78 q 179 507 179 265 m 1204 485 q 1075 796 1204 667 q 764 925 946 925 q 453 796 582 925 q 324 485 324 667 q 452 173 324 303 q 764 43 581 43 q 1075 172 946 43 q 1204 485 1204 301 m 393 542 q 501 804 393 696 q 764 913 610 913 q 1026 804 918 913 q 1135 542 1135 696 q 1026 279 1135 388 q 764 171 918 171 q 501 279 610 171 q 393 542 393 388 m 1022 546 q 947 729 1022 654 q 764 804 872 804 q 581 729 656 804 q 506 546 506 654 q 581 363 506 439 q 764 286 656 286 q 947 362 871 286 q 1022 546 1022 438 m 546 579 q 610 733 546 669 q 764 797 674 797 q 918 733 854 797 q 982 579 982 669 q 918 425 982 489 q 764 361 854 361 q 610 425 674 361 q 546 579 546 489 z "},"b":{"ha":1528,"x_min":69,"x_max":1458,"o":"m 1458 417 q 1255 908 1458 704 q 764 1111 1051 1111 q 273 908 476 1111 q 69 417 69 704 q 273 -74 69 129 q 764 -278 476 -278 q 1255 -74 1051 -278 q 1458 417 1458 129 m 243 278 q 396 646 243 493 q 764 799 549 799 q 1132 646 979 799 q 1285 278 1285 493 q 1132 -90 1285 63 q 764 -243 979 -243 q 396 -90 549 -243 q 243 278 243 63 z "},"c":{"ha":1528,"x_min":69,"x_max":1458,"o":"m 764 1111 q 273 908 476 1111 q 69 417 69 704 q 273 -74 69 129 q 764 -278 476 -278 q 1255 -74 1051 -278 q 1458 417 1458 129 q 1255 908 1458 704 q 764 1111 1051 1111 m 903 -104 q 535 49 688 -104 q 382 417 382 201 q 535 785 382 632 q 903 938 688 938 q 1271 785 1118 938 q 1424 417 1424 632 q 1271 49 1424 201 q 903 -104 1118 -104 z "},"d":{"ha":1528,"x_min":69,"x_max":1458,"o":"m 1458 417 q 1255 908 1458 704 q 764 1111 1051 1111 q 273 908 476 1111 q 69 417 69 704 q 273 -74 69 129 q 764 -278 476 -278 q 1255 -74 1051 -278 q 1458 417 1458 129 m 243 556 q 396 924 243 771 q 764 1076 549 1076 q 1132 924 979 1076 q 1285 556 1285 771 q 1132 188 1285 340 q 764 35 979 35 q 396 188 549 35 q 243 556 243 340 m 1067 600 q 978 814 1067 725 q 764 903 889 903 q 549 815 638 903 q 461 600 461 726 q 550 386 461 475 q 764 297 639 297 q 978 386 889 297 q 1067 600 1067 475 z "},"e":{"ha":1528,"x_min":74,"x_max":1463,"o":"m 768 -282 q 1259 -78 1056 -282 q 1463 413 1463 125 q 1259 903 1463 700 q 768 1107 1056 1107 q 277 903 481 1107 q 74 413 74 700 q 277 -78 74 125 q 768 -282 481 -282 m 907 933 q 1275 781 1122 933 q 1428 413 1428 628 q 1275 44 1428 197 q 907 -108 1122 -108 q 539 44 692 -108 q 386 413 386 197 q 539 781 386 628 q 907 933 692 933 m 951 110 q 1165 199 1076 110 q 1254 413 1254 288 q 1166 627 1254 539 q 951 715 1078 715 q 738 626 826 715 q 649 413 649 538 q 738 199 649 288 q 951 110 826 110 z "},"f":{"ha":1528,"x_min":69,"x_max":1458,"o":"m 901 -140 q 861 -43 901 -83 q 764 -3 821 -3 q 667 -43 707 -3 q 626 -140 626 -83 q 667 -237 626 -197 q 764 -278 707 -278 q 861 -237 821 -278 q 901 -140 901 -197 m 467 -75 q 507 22 507 -36 q 467 120 507 81 q 369 160 426 160 q 274 120 315 160 q 233 22 233 81 q 274 -76 233 -36 q 369 -115 315 -115 q 467 -75 426 -115 m 1256 -75 q 1296 22 1296 -35 q 1256 119 1296 79 q 1158 160 1215 160 q 1061 119 1101 160 q 1021 22 1021 79 q 1061 -75 1021 -35 q 1158 -115 1101 -115 q 1256 -75 1213 -115 m 839 111 q 817 165 839 143 q 764 186 796 186 q 710 165 732 186 q 689 111 689 143 q 710 58 689 79 q 764 36 732 36 q 817 58 796 36 q 839 111 839 79 m 601 147 q 624 200 624 168 q 601 254 624 232 q 549 276 579 276 q 494 254 519 276 q 472 200 472 229 q 494 147 472 169 q 547 125 517 125 q 601 147 579 125 m 1033 147 q 1056 200 1056 168 q 1033 254 1056 232 q 981 276 1011 276 q 926 254 951 276 q 904 200 904 229 q 926 147 904 169 q 981 125 949 125 q 1033 147 1011 125 m 947 417 q 894 547 947 493 q 764 600 840 600 q 634 547 688 600 q 581 417 581 493 q 634 287 581 340 q 764 233 688 233 q 894 287 840 233 q 947 417 947 340 m 344 417 q 304 514 344 474 q 207 554 264 554 q 110 514 150 554 q 69 417 69 474 q 110 319 69 360 q 207 279 150 279 q 304 319 264 279 q 344 417 344 360 m 1458 417 q 1418 514 1458 474 q 1321 554 1378 554 q 1224 514 1264 554 q 1183 417 1183 474 q 1224 319 1183 360 q 1321 279 1264 279 q 1418 319 1378 279 q 1458 417 1458 360 m 533 417 q 512 470 533 449 q 458 492 490 492 q 405 470 426 492 q 383 417 383 449 q 405 363 383 385 q 458 342 426 342 q 512 363 490 342 q 533 417 533 385 m 1144 417 q 1123 470 1144 449 q 1069 492 1101 492 q 1016 470 1038 492 q 994 417 994 449 q 1016 363 994 385 q 1069 342 1038 342 q 1123 363 1101 342 q 1144 417 1144 385 m 601 579 q 624 632 624 600 q 601 686 624 664 q 549 708 579 708 q 494 686 519 708 q 472 632 472 661 q 496 579 472 601 q 547 557 519 557 q 601 579 576 557 m 1033 579 q 1056 632 1056 600 q 1033 686 1056 664 q 981 708 1011 708 q 926 686 951 708 q 904 632 904 661 q 928 579 904 601 q 981 557 951 557 q 1033 579 1008 557 m 839 722 q 817 776 839 754 q 764 797 796 797 q 710 776 732 797 q 689 722 689 754 q 710 669 689 690 q 764 647 732 647 q 817 669 796 647 q 839 722 839 690 m 467 714 q 507 811 507 753 q 467 908 507 868 q 369 947 428 947 q 272 908 313 947 q 233 811 233 868 q 273 713 233 753 q 369 674 313 674 q 467 714 428 674 m 1256 714 q 1296 811 1296 754 q 1256 906 1296 865 q 1158 947 1217 947 q 1060 906 1100 947 q 1021 811 1021 865 q 1060 714 1021 754 q 1158 674 1100 674 q 1256 714 1215 674 m 901 974 q 861 1071 901 1031 q 764 1111 821 1111 q 667 1071 707 1111 q 626 974 626 1031 q 667 876 626 917 q 764 836 707 836 q 861 876 821 836 q 901 974 901 917 z "},"g":{"ha":1528,"x_min":69,"x_max":1458,"o":"m 901 -140 q 861 -43 901 -83 q 764 -3 821 -3 q 667 -43 707 -3 q 626 -140 626 -83 q 667 -237 626 -197 q 764 -278 707 -278 q 861 -237 821 -278 q 901 -140 901 -197 m 467 -75 q 507 22 507 -36 q 467 120 507 81 q 369 160 426 160 q 274 120 315 160 q 233 22 233 81 q 274 -76 233 -36 q 369 -115 315 -115 q 467 -75 426 -115 m 1256 -75 q 1296 22 1296 -35 q 1256 119 1296 79 q 1158 160 1215 160 q 1061 119 1101 160 q 1021 22 1021 79 q 1061 -75 1021 -35 q 1158 -115 1101 -115 q 1256 -75 1213 -115 m 901 171 q 861 268 901 228 q 764 308 821 308 q 667 268 707 308 q 626 171 626 228 q 667 74 626 114 q 764 33 707 33 q 861 74 821 33 q 901 171 901 114 m 344 417 q 304 514 344 474 q 207 554 264 554 q 110 514 150 554 q 69 417 69 474 q 110 319 69 360 q 207 279 150 279 q 304 319 264 279 q 344 417 344 360 m 656 417 q 615 514 656 474 q 518 554 575 554 q 421 514 461 554 q 381 417 381 474 q 421 319 381 360 q 518 279 461 279 q 615 319 575 279 q 656 417 656 360 m 1147 417 q 1107 514 1147 474 q 1010 554 1067 554 q 913 514 953 554 q 872 417 872 474 q 913 319 872 360 q 1010 279 953 279 q 1107 319 1067 279 q 1147 417 1147 360 m 1458 417 q 1418 514 1458 474 q 1321 554 1378 554 q 1224 514 1264 554 q 1183 417 1183 474 q 1224 319 1183 360 q 1321 279 1264 279 q 1418 319 1378 279 q 1458 417 1458 360 m 901 663 q 861 760 901 719 q 764 800 821 800 q 667 760 707 800 q 626 663 626 719 q 667 565 626 606 q 764 525 707 525 q 861 565 821 525 q 901 663 901 606 m 467 714 q 507 811 507 753 q 467 908 507 868 q 369 947 428 947 q 272 908 313 947 q 233 811 233 868 q 273 713 233 753 q 369 674 313 674 q 467 714 428 674 m 1256 714 q 1296 811 1296 754 q 1256 906 1296 865 q 1158 947 1217 947 q 1060 906 1100 947 q 1021 811 1021 865 q 1060 714 1021 754 q 1158 674 1100 674 q 1256 714 1215 674 m 901 974 q 861 1071 901 1031 q 764 1111 821 1111 q 667 1071 707 1111 q 626 974 626 1031 q 667 876 626 917 q 764 836 707 836 q 861 876 821 836 q 901 974 901 917 z "},"h":{"ha":1528,"x_min":163,"x_max":1365,"o":"m 644 31 q 679 115 644 81 q 764 150 714 150 q 849 115 814 150 q 883 31 883 81 q 849 -53 883 -18 q 764 -87 814 -87 q 680 -53 715 -87 q 644 31 644 -19 m 339 89 q 304 172 304 122 q 340 257 304 222 q 422 292 376 292 q 507 257 469 292 q 533 218 525 239 q 542 172 542 197 q 507 89 542 122 q 468 63 489 71 q 422 54 447 54 q 339 89 372 54 m 1021 89 q 986 172 986 124 q 1021 257 986 219 q 1106 292 1058 292 q 1190 256 1154 292 q 1225 172 1225 221 q 1189 89 1225 122 q 1106 54 1156 54 q 1021 89 1056 54 m 581 514 q 634 644 581 590 q 764 697 688 697 q 894 644 840 697 q 947 514 947 590 q 894 384 947 438 q 764 331 840 331 q 634 384 688 331 q 581 514 581 438 m 163 514 q 197 598 163 563 q 281 633 231 633 q 365 599 331 633 q 400 514 400 564 q 365 429 400 464 q 281 394 331 394 q 197 429 232 394 q 163 514 163 464 m 1128 514 q 1163 599 1128 564 q 1247 633 1197 633 q 1331 599 1296 633 q 1365 514 1365 564 q 1331 430 1365 465 q 1247 394 1297 394 q 1163 429 1197 394 q 1128 514 1128 464 m 339 771 q 313 810 321 789 q 304 856 304 831 q 339 939 304 904 q 422 974 374 974 q 507 939 472 974 q 542 856 542 904 q 507 771 542 806 q 468 744 489 753 q 422 736 447 736 q 339 771 372 736 m 1021 771 q 986 856 986 808 q 1021 939 986 901 q 1060 965 1039 957 q 1106 974 1081 974 q 1190 938 1156 974 q 1225 856 1225 903 q 1190 772 1225 807 q 1106 736 1156 736 q 1021 771 1056 736 m 644 997 q 679 1081 644 1046 q 764 1115 714 1115 q 848 1081 813 1115 q 883 997 883 1047 q 849 913 883 947 q 764 878 814 878 q 679 913 714 878 q 644 997 644 947 z "},"i":{"ha":1528,"x_min":229,"x_max":1299,"o":"m 229 158 q 277 274 229 226 q 394 322 325 322 q 510 274 463 322 q 558 158 558 226 q 510 41 558 89 q 394 -7 463 -7 q 277 41 325 -7 q 229 158 229 89 m 603 158 q 651 274 603 225 q 768 322 700 322 q 884 274 836 322 q 932 158 932 226 q 884 41 932 89 q 768 -7 836 -7 q 651 41 699 -7 q 603 158 603 89 m 969 158 q 1017 274 969 226 q 1133 322 1065 322 q 1251 274 1203 322 q 1299 158 1299 226 q 1251 41 1299 89 q 1133 -7 1203 -7 q 1017 41 1065 -7 q 969 158 969 89 m 406 536 q 453 653 406 606 q 569 701 501 701 q 685 653 638 701 q 733 536 733 606 q 685 420 733 468 q 569 372 638 372 q 453 420 501 372 q 406 536 406 468 m 794 536 q 842 653 794 606 q 958 701 890 701 q 1074 653 1026 701 q 1122 536 1122 606 q 1074 420 1122 468 q 958 372 1026 372 q 842 420 890 372 q 794 536 794 468 m 600 897 q 648 1015 600 967 q 764 1063 696 1063 q 880 1015 832 1063 q 928 897 928 967 q 880 781 928 829 q 764 733 832 733 q 648 781 696 733 q 600 897 600 829 z "},"j":{"ha":1528,"x_min":132,"x_max":1396,"o":"m 583 868 q 636 740 583 794 q 764 686 689 686 q 892 740 839 686 q 946 868 946 793 q 893 996 946 943 q 764 1049 840 1049 q 636 996 689 1049 q 583 868 583 943 m 583 -35 q 636 -162 583 -110 q 764 -215 689 -215 q 892 -162 838 -215 q 946 -35 946 -110 q 893 94 946 42 q 764 147 840 147 q 636 94 689 147 q 583 -35 583 42 m 314 236 q 442 289 389 236 q 494 417 494 342 q 442 544 494 490 q 314 599 389 599 q 185 545 239 599 q 132 417 132 492 q 185 289 132 342 q 314 236 238 236 m 1215 236 q 1343 289 1290 236 q 1396 417 1396 342 q 1343 544 1396 490 q 1215 599 1290 599 q 1087 545 1140 599 q 1033 417 1033 492 q 1086 289 1033 342 q 1215 236 1139 236 m 940 417 q 889 542 940 490 q 764 593 838 593 q 639 542 690 593 q 588 417 588 490 q 639 292 588 343 q 764 240 690 240 q 889 292 838 240 q 940 417 940 343 z "},"k":{"ha":1528,"x_min":69,"x_max":1458,"o":"m 964 326 q 902 352 928 326 q 876 417 876 378 q 901 481 876 454 q 964 507 926 507 q 1028 481 1001 507 q 1054 417 1054 454 q 1028 353 1054 379 q 964 326 1001 326 m 1161 433 q 1099 460 1125 433 q 1072 522 1072 486 q 1099 586 1072 560 q 1161 613 1125 613 q 1225 586 1199 613 q 1251 524 1251 560 q 1225 460 1251 486 q 1161 433 1199 433 m 1161 221 q 1099 247 1125 221 q 1072 311 1072 274 q 1099 374 1072 347 q 1161 400 1125 400 q 1225 374 1199 400 q 1251 311 1251 347 q 1225 247 1251 274 q 1161 221 1199 221 m 1368 529 q 1306 556 1332 529 q 1279 619 1279 582 q 1306 682 1279 656 q 1368 708 1332 708 q 1432 682 1406 708 q 1458 619 1458 656 q 1432 556 1458 582 q 1368 529 1406 529 m 1368 329 q 1306 356 1332 329 q 1279 419 1279 382 q 1306 482 1279 456 q 1368 508 1332 508 q 1432 482 1406 508 q 1458 419 1458 456 q 1432 356 1458 382 q 1368 329 1406 329 m 1368 125 q 1306 151 1332 125 q 1279 214 1279 178 q 1306 278 1279 251 q 1368 304 1332 304 q 1432 278 1406 304 q 1458 214 1458 251 q 1433 151 1458 176 q 1368 125 1407 125 m 564 507 q 626 481 600 507 q 651 417 651 456 q 626 353 651 379 q 564 326 601 326 q 500 353 526 326 q 474 417 474 379 q 500 481 474 454 q 564 507 526 507 m 367 400 q 429 374 403 400 q 456 311 456 347 q 429 247 456 274 q 367 221 403 221 q 303 247 329 221 q 276 311 276 274 q 303 374 276 347 q 367 400 329 400 m 367 613 q 429 586 403 613 q 456 522 456 560 q 429 460 456 486 q 367 433 403 433 q 303 460 329 433 q 276 524 276 486 q 303 586 276 560 q 367 613 329 613 m 160 304 q 222 278 196 304 q 249 214 249 251 q 222 151 249 178 q 160 125 196 125 q 96 151 122 125 q 69 214 69 178 q 96 278 69 251 q 160 304 122 304 m 160 504 q 222 478 196 504 q 249 415 249 451 q 222 351 249 378 q 160 325 196 325 q 96 351 122 325 q 69 415 69 378 q 96 478 69 451 q 160 504 122 504 m 160 708 q 222 682 196 708 q 249 619 249 656 q 222 556 249 582 q 160 529 196 529 q 96 556 122 529 q 69 619 69 582 q 95 683 69 657 q 160 708 121 708 m 854 617 q 828 555 854 581 q 764 529 803 529 q 700 554 726 529 q 674 617 674 579 q 700 681 674 654 q 764 707 726 707 q 828 681 801 707 q 854 617 854 654 m 747 814 q 721 751 747 778 q 658 725 694 725 q 594 751 621 725 q 568 814 568 778 q 594 878 568 851 q 657 904 621 904 q 721 878 694 904 q 747 814 747 851 m 960 814 q 933 751 960 778 q 869 725 907 725 q 807 751 833 725 q 781 814 781 778 q 807 878 781 851 q 871 904 833 904 q 933 878 907 904 q 960 814 960 851 m 651 1022 q 625 958 651 985 q 561 932 599 932 q 499 958 525 932 q 472 1022 472 985 q 499 1085 472 1058 q 561 1111 525 1111 q 625 1085 599 1111 q 651 1022 651 1058 m 851 1022 q 825 958 851 985 q 761 932 799 932 q 699 958 725 932 q 672 1022 672 985 q 699 1085 672 1058 q 761 1111 725 1111 q 825 1085 799 1111 q 851 1022 851 1058 m 1056 1022 q 1029 958 1056 985 q 967 932 1003 932 q 903 958 929 932 q 876 1022 876 985 q 903 1085 876 1058 q 967 1111 929 1111 q 1030 1085 1004 1111 q 1056 1022 1056 1060 m 674 217 q 699 278 674 253 q 764 304 725 304 q 828 279 801 304 q 854 217 854 254 q 828 153 854 179 q 764 126 801 126 q 700 153 726 126 q 674 217 674 179 m 781 19 q 807 82 781 56 q 869 108 833 108 q 933 82 907 108 q 960 19 960 56 q 933 -44 960 -18 q 871 -71 907 -71 q 807 -44 833 -71 q 781 19 781 -18 m 568 19 q 594 82 568 56 q 658 108 621 108 q 721 82 694 108 q 747 19 747 56 q 721 -44 747 -18 q 657 -71 694 -71 q 594 -44 621 -71 q 568 19 568 -18 m 876 -187 q 903 -125 876 -151 q 967 -99 929 -99 q 1029 -125 1003 -99 q 1056 -187 1056 -151 q 1029 -251 1056 -225 q 967 -278 1003 -278 q 903 -251 929 -278 q 876 -187 876 -225 m 676 -187 q 703 -125 676 -151 q 765 -99 729 -99 q 829 -125 803 -99 q 856 -187 856 -151 q 829 -251 856 -225 q 765 -278 803 -278 q 703 -251 729 -278 q 676 -187 676 -225 m 472 -187 q 499 -125 472 -151 q 561 -99 525 -99 q 625 -125 599 -99 q 651 -187 651 -151 q 625 -251 651 -225 q 561 -278 599 -278 q 498 -252 524 -278 q 472 -187 472 -226 z "},"l":{"ha":1528,"x_min":201,"x_max":1313,"o":"m 263 103 q 219 120 236 103 q 201 164 201 138 q 219 206 201 188 q 263 224 238 224 q 306 207 288 224 q 324 164 324 190 q 306 121 324 139 q 263 103 288 103 m 376 294 q 335 278 360 278 q 292 295 311 278 q 274 338 274 313 q 292 381 274 360 q 335 399 313 399 q 378 381 357 399 q 396 338 396 360 q 376 294 396 314 m 376 -54 q 335 -72 360 -72 q 292 -54 310 -72 q 274 -12 274 -36 q 292 29 274 10 q 335 49 310 49 q 378 31 360 49 q 396 -11 396 13 q 376 -54 396 -35 m 510 349 q 466 366 483 349 q 449 410 449 383 q 467 451 449 433 q 510 469 485 469 q 551 451 533 469 q 569 410 569 433 q 553 367 569 385 q 510 349 536 349 m 510 -146 q 467 -128 485 -146 q 449 -83 449 -110 q 467 -42 449 -58 q 510 -25 485 -25 q 552 -42 535 -25 q 569 -85 569 -60 q 553 -128 569 -110 q 510 -146 536 -146 m 725 294 q 683 276 708 276 q 640 294 658 276 q 622 336 622 313 q 640 378 622 358 q 683 397 658 397 q 726 379 708 397 q 744 338 744 361 q 725 294 744 314 m 726 -54 q 683 -72 710 -72 q 640 -54 658 -72 q 622 -11 622 -36 q 640 32 622 11 q 683 50 661 50 q 726 31 708 50 q 744 -11 744 11 q 726 -54 744 -36 m 757 101 q 713 119 731 101 q 694 164 694 138 q 713 206 694 188 q 756 224 731 224 q 799 206 781 224 q 817 164 817 188 q 799 120 817 139 q 757 101 782 101 m 376 442 q 335 424 360 424 q 292 442 310 424 q 274 485 274 460 q 292 528 274 507 q 335 546 313 546 q 378 528 360 546 q 396 485 396 510 q 376 442 396 458 m 324 658 q 306 617 324 635 q 264 599 288 599 q 219 615 238 599 q 201 658 201 632 q 219 702 201 685 q 263 719 236 719 q 306 701 288 719 q 324 658 324 683 m 378 790 q 335 772 361 772 q 292 790 310 772 q 274 833 274 808 q 292 878 274 857 q 335 896 313 896 q 378 878 360 896 q 396 833 396 860 q 378 790 396 807 m 726 442 q 683 424 710 424 q 640 442 658 424 q 622 485 622 460 q 640 528 622 507 q 685 546 661 546 q 728 528 710 546 q 746 485 746 510 q 726 442 746 458 m 569 904 q 553 863 569 881 q 510 844 536 844 q 467 861 485 844 q 449 904 449 878 q 467 947 449 929 q 510 965 485 965 q 552 948 535 965 q 569 904 569 931 m 817 658 q 799 616 817 633 q 757 599 782 599 q 712 616 729 599 q 694 660 694 633 q 713 701 694 683 q 754 719 731 719 q 799 701 781 719 q 817 658 817 683 m 725 790 q 683 772 708 772 q 640 790 658 772 q 622 832 622 807 q 642 876 622 858 q 683 894 661 894 q 726 876 708 894 q 744 833 744 858 q 725 790 744 806 m 874 294 q 831 276 857 276 q 788 294 806 276 q 769 338 769 313 q 788 381 769 360 q 831 399 808 399 q 875 381 854 399 q 892 338 892 361 q 874 294 892 315 m 874 -54 q 832 -72 857 -72 q 788 -53 807 -72 q 769 -11 769 -35 q 788 31 769 13 q 832 49 806 49 q 874 31 857 49 q 892 -11 892 14 q 874 -54 892 -36 m 1004 349 q 963 365 979 349 q 946 410 946 382 q 963 452 946 435 q 1006 469 981 469 q 1047 451 1029 469 q 1065 410 1065 433 q 1047 367 1065 385 q 1004 349 1029 349 m 1006 -146 q 963 -127 981 -146 q 946 -83 946 -108 q 963 -42 946 -58 q 1004 -25 979 -25 q 1047 -42 1029 -25 q 1065 -85 1065 -58 q 1048 -127 1065 -108 q 1006 -146 1031 -146 m 1222 294 q 1181 276 1206 276 q 1137 295 1156 276 q 1118 338 1118 314 q 1136 379 1118 361 q 1181 397 1154 397 q 1223 380 1206 397 q 1240 338 1240 363 q 1222 294 1240 313 m 1222 -54 q 1179 -72 1206 -72 q 1136 -54 1154 -72 q 1118 -11 1118 -36 q 1136 32 1118 11 q 1179 50 1157 50 q 1224 32 1203 50 q 1240 -11 1240 13 q 1222 -54 1240 -33 m 1251 101 q 1209 120 1226 101 q 1192 164 1192 139 q 1209 206 1192 189 q 1250 224 1226 224 q 1293 206 1274 224 q 1313 163 1313 188 q 1294 119 1313 138 q 1251 101 1276 101 m 874 442 q 832 424 857 424 q 788 442 806 424 q 769 486 769 461 q 789 528 769 510 q 832 546 808 546 q 874 528 857 546 q 892 485 892 511 q 874 442 892 458 m 872 790 q 831 772 856 772 q 788 790 806 772 q 769 832 769 807 q 789 876 769 858 q 831 894 808 894 q 873 877 856 894 q 890 833 890 860 q 872 790 890 807 m 1222 442 q 1179 424 1206 424 q 1136 442 1154 424 q 1118 485 1118 460 q 1136 528 1118 507 q 1179 546 1157 546 q 1222 528 1204 546 q 1240 485 1240 510 q 1222 442 1240 458 m 1065 904 q 1049 863 1065 881 q 1006 844 1032 844 q 963 862 981 844 q 946 904 946 879 q 963 947 946 929 q 1004 965 979 965 q 1049 949 1032 965 q 1065 904 1065 932 m 1313 657 q 1294 617 1313 635 q 1251 599 1276 599 q 1209 616 1226 599 q 1192 658 1192 633 q 1208 701 1192 683 q 1250 719 1225 719 q 1294 702 1275 719 q 1313 657 1313 685 m 1222 790 q 1181 772 1206 772 q 1136 791 1154 772 q 1118 835 1118 810 q 1138 876 1118 858 q 1181 894 1157 894 q 1223 877 1206 894 q 1240 833 1240 860 q 1222 790 1240 807 z "},"m":{"ha":1528,"x_min":65,"x_max":1454,"o":"m 1429 368 l 1414 378 l 1415 383 l 1417 413 l 1415 442 l 1414 447 l 1429 457 q 1454 518 1454 482 q 1429 581 1454 553 q 1400 599 1417 592 l 1388 601 l 1381 622 q 1218 882 1331 772 q 954 1039 1106 992 l 949 1042 l 947 1053 l 928 1082 q 865 1107 903 1107 q 804 1082 829 1107 l 796 1067 l 760 1068 l 732 1068 l 725 1067 l 715 1082 q 654 1107 690 1107 q 592 1082 619 1107 l 571 1053 l 571 1040 l 550 1033 q 290 871 400 983 q 133 607 181 758 l 132 601 l 118 600 l 90 582 q 65 519 65 554 q 90 458 65 483 l 106 447 l 104 413 l 106 379 l 90 367 q 65 306 65 342 q 90 243 65 271 l 118 225 l 132 224 l 133 218 q 291 -45 181 68 q 550 -208 401 -158 l 571 -215 l 571 -228 l 592 -257 q 654 -282 619 -282 q 715 -257 690 -282 l 725 -242 l 732 -243 l 760 -243 l 793 -242 l 804 -257 q 865 -282 829 -282 q 928 -257 903 -282 q 947 -228 942 -240 l 949 -217 l 954 -214 q 1217 -56 1104 -167 q 1381 203 1331 54 l 1388 224 l 1399 225 q 1429 244 1413 231 q 1454 307 1454 272 q 1429 368 1454 343 m 1393 389 l 1367 393 q 1305 366 1331 393 q 1279 306 1279 339 q 1306 244 1279 271 q 1332 225 1318 232 l 1364 219 q 1217 -28 1318 78 q 978 -183 1115 -133 l 953 -192 l 947 -161 q 939 -147 946 -157 q 928 -132 932 -137 q 865 -107 903 -107 q 803 -133 829 -107 q 778 -194 778 -158 l 782 -221 l 758 -221 l 735 -221 l 742 -194 q 715 -133 742 -158 q 654 -107 689 -107 q 592 -133 621 -107 l 571 -161 l 567 -192 q 320 -44 426 -146 q 165 194 214 58 l 156 219 l 186 225 q 199 231 194 229 q 214 243 203 233 q 240 307 240 271 q 214 367 240 344 q 153 393 188 393 l 125 389 l 125 413 l 125 436 l 153 431 q 214 458 186 431 q 240 518 240 481 q 214 582 240 556 q 186 600 199 594 l 156 606 l 165 631 q 319 869 214 767 q 564 1015 425 971 l 571 986 l 592 958 q 654 932 618 932 q 716 958 690 932 q 742 1019 742 985 l 735 1046 l 758 1046 l 782 1046 l 778 1019 q 803 958 778 983 q 865 932 829 932 q 928 957 903 932 l 947 986 l 953 1017 l 978 1008 q 1216 852 1114 958 q 1363 608 1318 746 l 1333 599 q 1306 581 1319 594 q 1279 518 1279 551 q 1306 457 1279 483 q 1367 431 1332 431 l 1393 436 l 1393 413 l 1393 389 m 1117 499 q 1054 474 1079 499 q 1029 411 1029 449 q 1055 348 1029 374 q 1118 322 1081 322 q 1178 348 1153 322 q 1204 410 1204 374 q 1178 473 1204 447 q 1117 499 1153 499 m 928 368 q 864 394 901 394 q 803 368 829 394 q 778 307 778 342 q 803 245 778 271 q 865 219 829 219 q 928 244 903 219 q 953 307 953 274 q 928 368 953 343 m 928 581 q 865 606 903 606 q 803 578 829 606 q 778 518 778 551 q 803 457 778 483 q 865 431 829 431 q 927 456 901 431 q 953 518 953 482 q 928 581 953 551 m 819 831 q 757 857 793 857 q 695 831 721 857 q 669 769 669 806 q 694 707 669 732 q 757 682 719 682 q 819 707 794 682 q 844 769 844 732 q 819 831 844 806 m 757 143 q 695 117 721 143 q 669 56 669 92 q 695 -6 669 19 q 757 -32 721 -32 q 819 -7 794 -32 q 844 56 844 18 q 819 118 844 93 q 757 143 794 143 m 715 368 q 654 394 689 394 q 594 369 621 394 q 567 307 567 343 q 592 244 567 269 q 653 219 617 219 q 716 247 690 219 q 742 307 742 274 q 715 368 742 342 m 715 581 q 653 606 690 606 q 592 579 617 606 q 567 518 567 553 q 592 456 567 482 q 654 431 618 431 q 716 457 690 431 q 742 518 742 483 q 715 581 742 551 m 403 497 q 341 472 367 497 q 315 410 315 446 q 341 348 315 374 q 403 322 367 322 q 465 347 440 322 q 490 410 490 372 q 465 472 490 447 q 403 497 440 497 z "},"n":{"ha":1528,"x_min":140,"x_max":1390,"o":"m 1319 746 l 1279 732 l 1267 753 q 1103 917 1200 849 l 1083 928 l 1097 967 q 1110 1024 1110 1007 q 1101 1039 1110 1039 q 1031 965 1083 1039 l 1028 958 l 1001 971 q 765 1021 886 1021 q 647 1009 701 1021 q 529 971 592 997 l 503 958 l 499 965 q 455 1021 472 1003 q 428 1039 438 1039 q 419 1024 419 1039 q 432 968 419 1006 l 446 926 l 428 917 q 263 751 331 849 l 251 732 l 211 746 q 154 758 171 758 q 140 750 140 758 q 214 681 140 731 l 221 675 l 207 649 q 158 414 158 533 q 171 293 158 351 q 207 178 183 235 l 221 151 l 213 147 q 140 76 140 96 q 154 69 140 69 q 211 82 171 69 l 250 94 l 263 75 q 426 -89 331 -22 l 446 -100 l 432 -140 q 419 -197 419 -181 q 428 -212 419 -212 q 499 -139 449 -212 l 503 -132 l 529 -143 q 765 -193 642 -193 q 1001 -144 885 -193 l 1026 -131 l 1032 -137 q 1101 -211 1082 -211 q 1110 -197 1110 -211 q 1096 -140 1110 -178 l 1085 -100 l 1103 -89 q 1268 75 1199 -24 l 1279 94 l 1318 82 q 1375 69 1358 69 q 1390 78 1390 69 q 1317 147 1390 97 l 1310 151 l 1324 178 q 1359 294 1346 233 q 1372 414 1372 354 q 1322 650 1372 538 l 1310 675 l 1317 679 q 1390 750 1390 733 q 1376 758 1390 758 q 1319 746 1360 758 m 1267 203 l 1258 188 l 1008 358 l 972 386 l 942 414 l 972 440 l 1010 469 l 1258 639 l 1267 626 q 1310 414 1310 525 q 1267 203 1310 301 m 1165 696 q 1113 686 1138 686 q 1038 761 1038 686 q 1040 784 1038 769 q 1047 813 1043 799 l 1065 868 q 1217 718 1156 807 l 1219 714 l 1165 696 m 1217 108 q 1151 29 1189 68 q 1069 -39 1113 -10 l 1065 -42 l 1046 15 q 1038 65 1038 43 q 1114 142 1038 142 q 1164 132 1139 142 l 1219 114 l 1217 108 m 978 -87 q 765 -131 883 -131 q 553 -89 649 -131 l 539 -79 l 710 169 l 739 206 l 765 239 l 790 206 l 819 169 l 992 -79 l 978 -87 m 821 658 l 790 621 l 765 588 l 738 621 l 710 658 l 539 907 l 553 917 q 764 958 654 958 q 874 947 819 958 q 978 917 929 936 l 990 907 l 821 658 m 557 388 l 519 358 l 271 189 l 263 201 q 221 414 221 300 q 263 628 221 529 l 271 640 l 519 468 q 556 440 539 458 l 590 414 l 557 388 m 485 15 l 465 -40 l 460 -39 q 311 108 372 21 l 311 114 l 367 132 q 417 140 394 140 q 492 78 483 140 q 491 50 492 64 q 485 15 490 36 m 365 696 l 311 713 l 313 718 q 378 798 342 760 q 460 867 415 836 l 465 868 l 483 813 q 490 783 488 799 q 492 750 492 767 q 417 686 483 686 q 394 689 407 686 q 365 696 382 692 m 656 413 q 688 490 656 457 q 765 524 719 524 q 843 490 810 524 q 876 413 876 457 q 844 334 876 367 q 765 301 811 301 q 688 335 719 301 q 656 413 656 368 z "},"o":{"ha":1528,"x_min":131,"x_max":1381,"o":"m 1335 644 l 1314 692 l 1300 672 q 1232 610 1274 633 q 1140 586 1190 586 q 1002 642 1058 586 q 946 779 946 699 q 969 871 946 829 q 1032 940 992 913 l 1058 956 l 1046 964 q 754 1035 908 1035 q 463 964 600 1035 l 453 957 l 479 942 q 540 872 517 915 q 564 779 564 828 q 507 642 564 699 q 369 585 450 585 q 278 608 321 585 q 208 672 235 632 l 197 692 l 178 644 q 131 404 131 526 q 176 174 131 285 l 197 128 l 210 149 q 278 210 236 188 q 369 233 321 233 q 508 178 451 233 q 565 40 565 122 q 542 -51 565 -10 q 479 -121 519 -93 l 451 -136 l 464 -146 q 756 -217 601 -217 q 1046 -144 911 -217 l 1058 -136 l 1032 -122 q 969 -53 992 -94 q 946 40 946 -12 q 1003 176 946 121 q 1140 232 1060 232 q 1233 210 1192 232 q 1301 149 1274 189 l 1313 128 l 1333 175 q 1368 289 1356 226 q 1381 410 1381 351 q 1335 644 1381 532 m 1318 344 l 986 306 l 865 367 q 838 325 858 342 q 801 300 824 307 l 797 299 l 860 179 l 821 -153 l 689 -153 l 650 179 l 713 297 q 690 310 693 308 q 672 326 679 317 q 644 365 654 340 l 524 303 l 193 343 l 193 475 l 524 514 l 643 453 q 672 494 654 476 q 710 521 690 513 l 651 642 l 690 972 l 821 971 l 861 640 l 797 521 q 839 493 824 510 q 853 476 846 488 q 865 454 861 464 l 986 514 l 1317 475 l 1318 344 m 1143 169 q 1047 131 1086 169 q 1008 36 1008 92 q 1048 -59 1008 -21 q 1143 -97 1088 -97 q 1237 -59 1199 -97 q 1275 35 1275 -21 q 1238 131 1275 92 q 1143 169 1200 169 m 1143 917 q 1047 878 1086 917 q 1008 783 1008 839 q 1047 689 1008 728 q 1142 650 1086 650 q 1237 688 1199 650 q 1275 783 1275 726 q 1237 878 1275 840 q 1143 917 1199 917 m 754 483 q 704 461 726 483 q 682 410 682 439 q 703 358 682 379 q 756 336 725 336 q 806 358 785 336 q 828 410 828 379 q 806 462 828 440 q 754 483 785 483 m 368 168 q 274 131 313 168 q 235 36 235 93 q 274 -58 235 -21 q 368 -96 313 -96 q 463 -58 424 -96 q 501 35 501 -21 q 463 129 501 90 q 368 168 424 168 m 368 917 q 274 878 314 917 q 235 785 235 840 q 274 689 235 728 q 368 650 313 650 q 463 689 424 650 q 501 783 501 728 q 463 878 501 839 q 368 917 424 917 z "},"p":{"ha":1528,"x_min":69,"x_max":1458,"o":"m 971 -246 l 1013 -231 l 1013 133 l 1397 133 l 1404 146 q 1444 277 1431 210 q 1458 417 1458 344 q 1444 556 1458 489 q 1404 688 1431 624 l 1400 694 l 1013 694 l 1013 1064 l 971 1079 q 764 1111 871 1111 q 557 1079 657 1111 l 515 1064 l 515 694 l 128 694 l 124 688 q 83 556 97 624 q 69 417 69 489 q 83 277 69 344 q 124 146 97 210 l 131 133 l 515 133 l 515 -231 l 557 -246 q 764 -278 657 -278 q 971 -246 871 -278 m 578 -122 l 578 231 l 950 231 l 950 -122 l 578 -122 m 865 58 q 832 140 865 107 q 749 174 799 174 q 667 140 700 174 q 633 58 633 107 q 667 -24 633 11 q 749 -58 700 -58 q 831 -24 797 -58 q 865 58 865 10 m 225 231 l 225 603 l 578 603 l 578 231 l 225 231 m 950 231 l 950 603 l 1303 603 l 1303 231 l 950 231 m 518 417 q 484 499 518 465 q 401 533 450 533 q 319 500 353 533 q 286 417 286 467 q 319 335 286 368 q 401 301 353 301 q 483 335 449 301 q 518 417 518 368 m 647 417 q 681 499 647 465 q 764 533 715 533 q 846 500 813 533 q 879 417 879 467 q 846 335 879 368 q 764 301 813 301 q 682 335 717 301 q 647 417 647 368 m 1242 417 q 1208 499 1242 464 q 1126 533 1175 533 q 1044 499 1078 533 q 1010 417 1010 465 q 1043 335 1010 368 q 1126 301 1076 301 q 1208 335 1175 301 q 1242 417 1242 368 m 578 603 l 578 956 l 950 956 l 950 603 l 578 603 m 865 782 q 831 865 865 831 q 749 899 797 899 q 667 865 700 899 q 633 782 633 832 q 667 700 633 733 q 749 667 700 667 q 831 700 796 667 q 865 782 865 733 z "},"q":{"ha":1528,"x_min":69,"x_max":1458,"o":"m 1006 -36 q 964 99 1006 39 l 950 117 l 961 79 l 965 39 q 906 -103 965 -44 q 764 -162 847 -162 q 622 -103 681 -162 q 563 39 563 -44 l 567 79 l 578 117 l 564 99 q 522 -36 522 39 q 593 -207 522 -136 q 764 -278 664 -278 q 935 -207 864 -278 q 1006 -36 1006 -136 m 1076 417 q 985 638 1076 546 q 764 729 893 729 q 543 638 635 729 q 451 417 451 546 q 543 196 451 288 q 764 104 635 104 q 985 196 893 104 q 1076 417 1076 288 m 446 217 l 464 231 l 426 219 l 386 215 q 244 274 303 215 q 185 417 185 333 q 244 559 185 500 q 386 618 303 618 l 426 614 l 464 603 l 446 617 q 311 658 385 658 q 140 588 211 658 q 69 417 69 517 q 140 246 69 317 q 311 175 211 175 q 446 217 385 175 m 1458 417 q 1388 588 1458 517 q 1217 658 1317 658 q 1082 617 1142 658 l 1064 603 l 1101 614 l 1142 618 q 1284 559 1225 618 q 1343 417 1343 500 q 1284 274 1343 333 q 1142 215 1225 215 l 1101 219 l 1064 231 l 1082 217 q 1217 175 1142 175 q 1388 246 1317 175 q 1458 417 1458 317 m 964 735 q 1006 869 1006 794 q 935 1040 1006 969 q 764 1111 864 1111 q 593 1040 664 1111 q 522 869 522 969 q 564 735 522 794 l 578 717 l 567 754 l 563 794 q 622 937 563 878 q 764 996 681 996 q 906 937 847 996 q 965 794 965 878 l 961 754 l 950 717 l 964 735 z "},"r":{"ha":1528,"x_min":69,"x_max":1458,"o":"m 782 -278 l 782 -175 l 788 -175 q 856 -135 829 -167 q 882 -60 882 -103 q 856 15 882 -17 q 788 56 829 47 l 782 57 l 782 124 l 786 125 q 822 179 822 139 q 786 233 822 218 l 782 235 l 782 296 q 849 328 821 301 q 885 394 878 356 l 946 399 l 947 394 q 1001 358 963 358 q 1056 394 1042 358 l 1057 399 l 1124 399 l 1125 393 q 1166 326 1133 353 q 1240 299 1199 299 q 1315 325 1283 299 q 1356 393 1347 351 l 1356 399 l 1458 399 l 1458 435 l 1356 435 l 1356 440 q 1315 508 1347 482 q 1240 535 1283 535 q 1165 508 1197 535 q 1125 440 1133 482 l 1124 435 l 1057 435 l 1056 439 q 1001 475 1042 475 q 947 439 963 475 l 946 435 l 885 435 q 850 504 878 476 q 782 538 822 532 l 782 599 l 786 600 q 822 654 822 615 q 786 708 822 694 l 782 710 l 782 776 l 788 778 q 856 818 829 786 q 882 893 882 850 q 856 968 882 936 q 788 1008 829 1000 l 782 1008 l 782 1111 l 746 1111 l 746 1008 l 740 1008 q 674 968 700 1000 q 647 893 647 936 q 674 818 647 850 q 740 778 700 786 l 746 776 l 746 710 l 742 708 q 706 654 706 694 q 742 600 706 615 l 746 599 l 746 538 q 678 506 706 532 q 643 439 651 479 l 582 435 l 581 439 q 526 475 565 475 q 472 439 486 475 l 471 435 l 404 435 l 403 440 q 363 508 394 482 q 288 535 331 535 q 213 508 244 535 q 172 440 181 482 l 172 435 l 69 435 l 69 399 l 172 399 l 172 393 q 213 326 181 353 q 288 299 246 299 q 363 325 331 299 q 403 393 394 351 l 404 399 l 471 399 l 472 394 q 526 358 486 358 q 581 394 565 358 l 582 399 l 643 399 q 746 296 660 307 l 746 235 l 742 233 q 706 179 706 218 q 742 125 706 139 l 746 124 l 746 57 l 740 56 q 674 15 700 47 q 647 -60 647 -17 q 674 -135 647 -103 q 740 -175 700 -167 l 746 -175 l 746 -278 l 782 -278 m 510 -3 q 544 79 544 31 q 510 163 544 128 q 428 197 475 197 q 344 163 382 197 q 310 79 310 125 q 344 -3 310 32 q 428 -37 378 -37 q 510 -3 476 -37 m 1183 -3 q 1218 79 1218 31 q 1183 163 1218 128 q 1101 197 1149 197 q 1018 163 1056 197 q 983 79 983 125 q 1017 -3 983 32 q 1100 -37 1051 -37 q 1183 -3 1150 -37 m 638 207 q 654 249 654 224 q 638 289 654 271 q 596 307 621 307 q 553 288 571 307 q 536 249 536 269 q 553 208 536 225 q 596 190 571 190 q 638 207 618 190 m 974 207 q 992 249 992 224 q 974 290 992 272 q 932 307 957 307 q 890 290 910 307 q 874 249 874 271 q 892 207 874 224 q 932 190 910 190 q 974 207 957 190 m 638 543 q 654 585 654 560 q 637 627 654 610 q 596 644 619 644 q 554 626 572 644 q 536 585 536 608 q 553 544 536 561 q 596 526 571 526 q 638 543 618 526 m 974 543 q 992 585 992 560 q 974 627 992 610 q 932 644 956 644 q 892 627 911 644 q 874 585 874 610 q 892 543 874 560 q 932 526 910 526 q 974 543 957 526 m 510 671 q 544 753 544 704 q 510 836 544 801 q 428 871 475 871 q 344 836 382 871 q 310 753 310 799 q 344 671 310 706 q 428 636 378 636 q 510 671 476 636 m 1183 671 q 1218 753 1218 704 q 1183 836 1218 801 q 1101 871 1149 871 q 1018 836 1056 871 q 983 753 983 799 q 1017 671 983 706 q 1100 636 1051 636 q 1183 671 1150 636 z "},"s":{"ha":1528,"x_min":69,"x_max":1458,"o":"m 901 -140 q 868 -51 901 -90 q 785 -4 835 -12 l 782 72 q 832 138 832 88 q 819 178 832 161 q 785 204 807 196 l 782 275 q 865 315 832 282 q 906 397 899 349 l 976 399 q 1042 349 990 349 q 1083 361 1065 349 q 1108 396 1100 374 l 1185 399 q 1231 314 1192 349 q 1321 279 1269 279 q 1418 319 1378 279 q 1458 417 1458 360 q 1418 514 1458 474 q 1321 554 1378 554 q 1231 521 1269 554 q 1185 438 1192 488 l 1108 435 q 1042 486 1092 486 q 1002 472 1021 486 q 976 438 983 458 l 906 435 q 866 517 899 483 q 786 558 833 551 l 782 629 q 832 696 832 644 q 819 736 832 719 q 785 761 807 753 l 782 838 q 867 884 833 846 q 901 974 901 922 q 861 1071 901 1031 q 764 1111 821 1111 q 667 1071 707 1111 q 626 974 626 1031 q 660 885 626 924 q 743 838 693 846 l 746 761 q 694 696 694 744 q 708 656 694 674 q 743 629 721 638 l 746 558 q 663 518 696 551 q 622 436 629 485 l 551 435 q 485 486 535 486 q 445 472 464 486 q 419 438 426 458 l 343 435 q 297 521 335 488 q 207 554 260 554 q 110 514 150 554 q 69 417 69 474 q 110 319 69 360 q 207 279 150 279 q 296 313 257 279 q 343 396 335 346 l 419 399 q 485 349 433 349 q 526 361 508 349 q 551 396 543 374 l 621 399 q 661 317 628 351 q 742 275 694 282 l 746 204 q 694 138 694 188 q 708 97 694 115 q 743 72 721 79 l 746 -4 q 660 -50 693 -12 q 626 -140 626 -87 q 667 -237 626 -197 q 764 -278 707 -278 q 861 -237 821 -278 q 901 -140 901 -197 m 467 -74 q 507 22 507 -35 q 467 120 507 81 q 369 160 426 160 q 274 120 315 160 q 233 22 233 81 q 274 -75 233 -35 q 369 -115 314 -115 q 467 -74 426 -115 m 1254 -74 q 1294 22 1294 -35 q 1254 120 1294 81 q 1158 160 1214 160 q 1061 119 1101 160 q 1021 22 1021 79 q 1061 -74 1021 -33 q 1157 -115 1101 -115 q 1254 -74 1214 -115 m 615 171 q 635 219 635 190 q 615 269 635 249 q 567 289 596 289 q 519 267 539 289 q 499 219 499 246 q 518 171 499 193 q 567 151 540 151 q 615 171 593 151 m 1010 171 q 1029 219 1029 190 q 1009 269 1029 249 q 961 289 989 289 q 913 268 933 289 q 892 219 892 247 q 912 172 892 192 q 961 151 932 151 q 1010 171 988 151 m 615 565 q 635 614 635 583 q 615 663 635 643 q 567 682 596 682 q 518 663 540 682 q 499 614 499 640 q 519 565 499 585 q 567 544 539 544 q 615 565 594 544 m 1010 565 q 1029 614 1029 583 q 1008 663 1029 643 q 961 682 988 682 q 913 662 935 682 q 892 614 892 642 q 913 565 892 585 q 961 544 932 544 q 1010 565 989 544 m 467 714 q 507 810 507 753 q 467 908 507 868 q 369 947 426 947 q 274 908 315 947 q 233 810 233 868 q 273 713 233 753 q 369 674 313 674 q 467 714 428 674 m 1254 714 q 1294 810 1294 753 q 1254 908 1294 868 q 1158 947 1214 947 q 1061 907 1101 947 q 1021 810 1021 867 q 1060 714 1021 754 q 1157 674 1100 674 q 1254 714 1215 674 z "},"t":{"ha":1528,"x_min":69,"x_max":1458,"o":"m 986 -131 l 989 -125 l 993 -128 q 1085 -146 1040 -146 q 1256 -75 1185 -146 q 1308 3 1290 -40 q 1325 97 1325 47 q 1308 188 1325 143 l 1306 192 l 1311 194 q 1417 282 1376 222 q 1458 417 1458 342 q 1418 551 1458 492 q 1311 639 1378 611 l 1306 642 l 1308 646 q 1325 736 1325 690 q 1254 908 1325 838 q 1176 960 1219 943 q 1082 978 1132 978 q 993 961 1038 978 l 989 958 l 986 964 q 899 1070 958 1029 q 764 1111 839 1111 q 629 1071 689 1111 q 542 964 569 1031 l 539 958 l 535 961 q 444 978 490 978 q 272 908 343 978 q 201 738 201 838 q 219 646 201 693 l 222 642 l 217 639 q 110 551 151 611 q 69 417 69 492 q 110 282 69 342 q 217 194 150 222 l 222 192 l 219 188 q 201 96 201 140 q 272 -75 201 -4 q 351 -128 307 -110 q 443 -146 396 -146 q 535 -128 488 -146 l 539 -125 l 542 -131 q 629 -237 569 -196 q 764 -278 689 -278 q 899 -237 839 -278 q 986 -131 958 -197 m 621 -103 l 604 -83 l 615 -75 q 681 50 668 -21 l 683 72 l 665 39 q 654 22 657 26 q 639 7 643 11 l 608 -18 l 576 -35 l 567 -1 l 563 39 l 567 79 l 578 117 l 564 99 q 522 -36 522 39 l 522 -49 l 497 -51 q 354 7 415 -51 q 296 150 296 68 l 297 175 l 311 175 q 446 217 385 175 l 464 231 l 426 219 l 386 215 l 346 219 l 313 229 l 329 261 l 354 292 q 386 318 371 308 l 419 336 l 397 333 q 272 268 326 321 l 264 257 l 244 274 q 185 417 185 333 q 244 560 185 500 l 264 576 l 272 565 q 397 500 326 513 l 419 497 l 386 515 l 354 540 l 329 572 l 313 604 l 346 614 l 386 618 l 426 614 l 464 603 l 446 617 q 311 658 385 658 l 297 658 l 296 683 q 354 825 296 765 q 497 885 413 885 l 522 882 l 522 869 q 564 735 522 794 l 578 717 l 567 754 l 563 794 l 567 835 l 576 868 l 608 851 l 639 826 q 665 794 656 810 l 683 761 l 681 783 q 614 908 668 854 l 604 915 l 621 936 q 764 996 681 996 q 906 936 849 996 l 924 915 l 913 907 q 847 783 860 854 l 844 761 l 863 794 q 889 826 875 814 l 919 851 l 951 868 l 961 835 l 965 794 l 961 754 l 950 717 l 964 735 q 1006 869 1006 794 l 1006 882 l 1031 885 q 1174 826 1113 885 q 1232 683 1232 765 l 1229 658 l 1217 658 q 1082 617 1142 658 l 1064 603 l 1101 614 l 1142 618 l 1182 614 l 1215 604 l 1199 572 l 1174 542 q 1142 515 1161 528 l 1108 497 l 1131 500 q 1254 565 1201 513 l 1263 576 l 1283 560 q 1343 417 1343 500 q 1283 274 1343 333 l 1263 257 l 1254 268 q 1131 333 1201 321 l 1108 336 l 1142 318 q 1155 309 1150 313 q 1174 292 1160 306 l 1199 261 l 1215 229 l 1182 219 l 1142 215 l 1101 219 l 1064 231 l 1082 217 q 1217 175 1142 175 l 1229 175 l 1232 150 q 1172 7 1232 65 q 1031 -51 1113 -51 l 1006 -50 l 1006 -36 q 964 99 1006 39 l 950 117 l 961 79 l 965 39 l 961 -1 l 951 -35 l 919 -18 l 889 7 q 863 39 872 24 l 844 72 l 847 50 q 913 -75 860 -21 l 924 -83 l 906 -103 q 764 -162 849 -162 q 621 -103 681 -162 m 1076 417 q 985 638 1076 546 q 764 729 893 729 q 543 638 635 729 q 451 417 451 546 q 543 196 451 288 q 764 104 635 104 q 985 196 893 104 q 1076 417 1076 288 m 557 417 q 617 563 557 503 q 764 624 678 624 q 910 564 850 624 q 969 417 969 504 q 910 271 969 332 q 764 210 850 210 q 617 270 678 210 q 557 417 557 331 z "},"u":{"ha":1528,"x_min":69,"x_max":1458,"o":"m 719 -253 l 729 -237 l 736 -239 l 764 -239 l 792 -239 l 799 -237 l 808 -253 q 869 -278 833 -278 q 932 -253 907 -278 q 950 -224 943 -240 l 953 -211 l 974 -204 l 979 -203 l 1013 -189 l 1046 -175 l 1050 -174 l 1054 -171 l 1074 -161 l 1085 -168 q 1118 -175 1101 -175 q 1180 -149 1154 -175 q 1206 -87 1206 -124 l 1203 -71 l 1207 -65 l 1228 -47 l 1246 -26 l 1251 -22 l 1268 -25 q 1331 0 1306 -25 q 1356 63 1356 25 q 1349 96 1356 79 l 1342 107 l 1351 126 l 1357 139 l 1363 149 l 1372 174 l 1382 199 l 1385 210 l 1390 222 l 1392 228 l 1404 229 q 1414 235 1411 233 q 1432 249 1424 240 q 1458 311 1458 274 q 1432 372 1458 347 l 1418 382 l 1419 417 l 1419 444 l 1418 451 l 1432 461 q 1458 522 1458 486 q 1432 585 1458 558 q 1404 604 1424 593 l 1392 606 l 1385 626 l 1381 639 l 1376 650 l 1365 676 l 1356 699 l 1350 708 l 1344 722 l 1342 726 l 1349 738 q 1356 771 1356 754 q 1331 833 1356 808 q 1268 858 1306 858 l 1251 856 l 1228 881 l 1207 900 l 1203 904 l 1206 921 q 1181 983 1206 958 q 1118 1008 1156 1008 q 1085 1001 1101 1008 l 1074 994 l 1054 1004 l 1043 1010 l 1032 1015 l 1006 1025 l 982 1035 l 972 1038 l 958 1043 l 953 1044 l 951 1057 q 943 1072 950 1061 q 932 1086 936 1082 q 869 1111 907 1111 q 808 1086 833 1111 l 799 1071 l 764 1072 l 757 1072 l 754 1072 l 731 1071 l 719 1086 q 658 1111 694 1111 q 596 1086 624 1111 q 576 1057 582 1069 l 575 1044 l 569 1043 l 549 1035 l 531 1029 l 513 1022 l 496 1015 l 479 1007 l 458 997 l 454 994 l 443 1001 q 410 1008 426 1008 q 347 983 372 1008 q 322 921 322 958 l 325 904 l 307 888 l 306 885 l 300 881 l 276 856 l 260 858 q 197 833 222 858 q 172 771 172 808 q 179 738 172 754 l 186 726 l 183 722 l 178 708 l 172 699 l 163 676 l 151 650 l 147 638 l 143 626 l 136 606 l 124 604 l 94 585 q 69 522 69 557 q 94 461 69 486 l 110 451 l 108 444 l 108 425 l 108 424 l 108 417 l 110 383 l 94 372 q 69 311 69 347 q 94 249 69 274 q 124 229 111 235 l 136 228 l 138 222 l 143 208 l 146 199 l 154 178 l 165 149 l 172 136 l 176 126 l 186 107 l 179 96 q 172 63 172 79 q 197 0 172 25 q 260 -25 222 -25 l 276 -22 l 281 -26 l 294 -40 l 296 -42 l 300 -47 l 325 -69 l 322 -87 q 347 -150 322 -125 q 410 -175 372 -175 q 443 -168 426 -175 l 454 -161 l 458 -164 l 472 -169 l 482 -175 l 504 -185 l 531 -196 l 542 -200 l 554 -204 l 575 -211 l 576 -224 q 585 -238 578 -228 q 596 -253 592 -249 q 658 -278 621 -278 q 719 -253 694 -278 m 621 -153 q 604 -128 611 -143 l 603 -118 l 585 -112 l 575 -108 l 565 -106 l 543 -94 l 524 -87 l 515 -82 l 504 -78 l 500 -75 l 492 -81 q 463 -87 475 -87 q 410 -65 432 -87 q 388 -12 388 -43 l 390 1 l 369 22 l 365 26 l 364 28 l 353 39 l 349 43 l 335 40 q 281 62 303 40 q 260 115 260 83 q 267 144 260 128 l 272 153 l 264 169 l 260 178 l 254 189 l 244 213 l 238 231 l 235 239 l 231 251 l 229 256 l 219 257 q 194 274 206 264 q 172 326 172 296 q 194 379 172 354 l 207 388 l 206 417 l 206 424 l 206 440 l 207 446 l 194 454 q 172 507 172 476 q 194 560 172 535 q 219 576 206 571 l 229 578 l 235 596 l 239 606 l 242 615 l 253 638 l 260 657 l 265 665 l 269 676 l 272 681 l 267 689 q 260 718 260 706 q 281 772 260 750 q 335 793 303 793 l 349 790 l 369 811 l 374 815 l 375 817 l 390 831 l 388 846 q 409 899 388 878 q 463 921 431 921 q 492 914 475 921 l 500 908 l 504 911 l 521 918 l 536 926 l 550 932 l 565 939 l 581 943 l 599 950 l 603 951 l 604 961 q 621 986 611 976 q 674 1008 646 1008 q 726 986 704 1008 l 735 974 l 756 975 l 758 975 l 764 975 l 793 974 l 801 986 q 854 1008 826 1008 q 907 986 885 1008 q 924 961 918 976 l 925 951 l 929 950 l 942 946 l 950 943 l 969 935 l 992 926 l 1001 921 l 1011 917 l 1028 908 l 1036 914 q 1065 921 1053 921 q 1119 899 1097 921 q 1140 846 1140 878 l 1138 832 l 1142 828 l 1158 811 l 1178 790 l 1193 793 q 1246 772 1224 793 q 1268 718 1268 751 q 1261 689 1268 706 l 1256 681 l 1258 676 l 1263 665 l 1268 657 l 1276 638 l 1286 615 l 1289 606 l 1293 596 l 1299 578 l 1308 576 q 1333 560 1324 571 q 1356 507 1356 538 q 1333 454 1356 475 l 1321 446 l 1321 440 l 1322 417 l 1321 388 l 1333 379 q 1356 326 1356 357 q 1333 274 1356 294 q 1308 257 1324 264 l 1299 256 l 1297 251 l 1293 240 l 1290 231 l 1281 210 l 1274 189 l 1268 179 l 1264 169 l 1256 153 l 1261 144 q 1268 115 1265 135 q 1246 63 1268 85 q 1193 40 1224 40 l 1179 43 l 1175 39 l 1158 22 l 1142 6 l 1138 1 l 1140 -12 q 1118 -65 1140 -43 q 1065 -87 1096 -87 q 1036 -81 1053 -87 l 1028 -75 l 1011 -83 l 1007 -85 l 1004 -87 l 975 -99 l 950 -110 l 943 -112 l 925 -118 l 924 -128 q 907 -153 918 -143 q 854 -175 886 -175 q 801 -153 824 -175 l 793 -140 l 788 -140 l 764 -142 l 740 -140 l 735 -140 l 726 -153 q 674 -175 701 -175 q 621 -153 646 -175 m 864 -1 q 834 72 864 42 q 761 101 804 101 q 688 72 718 101 q 658 -1 658 42 q 688 -73 658 -43 q 761 -103 718 -103 q 833 -74 803 -103 q 864 -1 864 -44 m 713 221 l 725 236 l 693 249 q 596 346 625 278 l 586 379 l 567 365 q 538 293 538 333 q 567 220 538 250 q 640 190 597 190 q 713 221 682 190 m 960 221 q 982 253 974 233 q 990 293 990 274 q 960 365 990 335 l 944 378 l 932 346 q 835 249 903 278 l 801 239 l 815 221 q 888 190 846 190 q 960 221 931 190 m 888 417 q 851 504 888 467 q 764 542 815 542 q 676 505 713 542 q 639 417 639 468 q 675 329 639 365 q 764 293 711 293 q 851 329 815 293 q 888 417 888 365 m 449 419 q 419 492 449 463 q 346 522 389 522 q 274 492 304 522 q 244 419 244 463 q 274 347 244 378 q 346 317 303 317 q 419 347 389 317 q 449 419 449 376 m 1254 347 q 1283 419 1283 376 q 1254 492 1283 461 q 1182 522 1225 522 q 1110 492 1140 522 q 1079 419 1079 461 q 1109 347 1079 376 q 1182 317 1139 317 q 1254 347 1224 317 m 596 488 q 693 585 625 556 l 726 594 l 713 614 q 640 643 683 643 q 567 614 599 643 q 538 540 538 582 q 567 468 538 497 l 583 456 l 596 488 m 960 468 q 982 501 974 481 q 990 540 990 521 q 960 613 990 583 q 888 643 931 643 q 815 614 847 643 l 803 597 l 835 585 q 932 488 903 556 l 942 454 l 960 468 m 864 835 q 834 906 864 876 q 761 936 804 936 q 689 907 719 936 q 658 835 658 878 q 688 762 658 792 q 761 732 718 732 q 834 762 804 732 q 864 835 864 792 z "},"v":{"ha":1528,"x_min":69,"x_max":1458,"o":"m 901 -140 l 899 -112 l 892 -89 l 968 -65 l 1031 -31 l 1043 -53 l 1061 -75 q 1158 -115 1101 -115 q 1254 -75 1213 -115 q 1296 22 1296 -35 q 1256 119 1296 79 l 1233 138 l 1211 150 l 1246 214 l 1269 290 l 1293 282 l 1321 279 q 1418 319 1378 279 q 1458 417 1458 360 q 1418 514 1458 474 q 1321 554 1378 554 l 1293 551 l 1269 544 l 1246 621 l 1211 683 l 1233 696 l 1256 714 q 1296 811 1296 754 q 1256 906 1296 865 q 1158 947 1217 947 q 1061 908 1100 947 l 1043 886 l 1031 864 l 968 899 l 892 922 l 899 946 l 901 974 q 861 1071 901 1031 q 764 1111 821 1111 q 667 1071 707 1111 q 626 974 626 1031 l 629 946 l 638 922 l 561 899 l 497 864 l 485 886 l 467 908 q 369 947 428 947 q 272 908 313 947 q 233 811 233 868 q 272 714 233 753 l 294 696 l 317 683 l 282 621 l 258 544 l 235 551 l 207 554 q 110 514 150 554 q 69 417 69 474 q 110 319 69 360 q 207 279 150 279 l 235 282 l 258 290 l 282 214 l 317 150 l 294 138 l 272 119 q 233 22 233 81 q 274 -76 233 -36 q 369 -115 315 -115 q 467 -75 426 -115 l 485 -53 l 497 -31 l 561 -65 l 638 -89 l 629 -112 l 626 -140 q 667 -237 626 -197 q 764 -278 707 -278 q 861 -237 821 -278 q 901 -140 901 -197 m 321 417 q 451 730 321 600 q 764 860 581 860 q 1077 730 947 860 q 1207 417 1207 600 q 1077 103 1207 233 q 764 -26 947 -26 q 451 103 581 -26 q 321 417 321 233 m 1114 417 q 1011 664 1114 561 q 764 767 908 767 q 517 664 619 767 q 414 417 414 561 q 517 169 414 272 q 764 67 619 67 q 1011 169 908 67 q 1114 417 1114 272 m 488 417 l 764 693 l 1040 417 l 764 135 l 488 417 z "},"w":{"ha":1528,"x_min":69,"x_max":1458,"o":"m 978 -136 l 983 -115 q 928 -75 953 -100 q 882 -10 899 -46 q 861 64 865 25 l 860 92 l 881 67 q 997 18 929 18 q 1114 67 1065 18 q 1163 183 1163 115 q 1114 300 1163 251 l 1089 321 l 1117 319 q 1254 253 1196 311 q 1296 197 1281 229 l 1317 203 q 1419 288 1379 229 q 1458 417 1458 347 q 1419 546 1458 489 q 1317 631 1381 603 l 1296 636 q 1254 581 1281 604 q 1180 529 1221 546 q 1092 513 1139 513 l 1114 533 q 1163 650 1163 582 q 1115 766 1163 718 q 997 814 1067 814 q 881 767 928 814 l 860 742 l 861 769 q 928 908 871 851 q 983 949 954 935 l 978 969 q 892 1072 951 1032 q 764 1111 833 1111 q 635 1072 692 1111 q 550 969 578 1033 l 544 949 q 600 908 575 933 q 667 769 658 851 l 668 742 l 647 767 q 531 814 600 814 q 414 767 461 814 q 367 650 367 719 q 414 533 367 581 l 439 513 q 272 581 340 513 q 232 636 247 606 l 211 631 q 109 545 149 604 q 69 417 69 486 q 108 288 69 344 q 211 203 147 231 l 232 197 q 272 253 247 228 q 411 319 331 311 l 439 321 l 414 300 q 367 183 367 253 q 415 66 367 114 q 531 18 463 18 q 647 67 599 18 l 668 92 l 667 64 q 600 -75 658 -18 q 544 -115 575 -100 l 550 -136 q 635 -238 576 -199 q 764 -278 694 -278 q 893 -239 836 -278 q 978 -136 950 -200 m 451 417 q 543 638 451 546 q 764 729 635 729 q 985 638 893 729 q 1076 417 1076 546 q 985 196 1076 288 q 764 104 893 104 q 543 196 635 104 q 451 417 451 288 m 1001 417 q 932 585 1001 515 q 764 654 863 654 q 596 585 665 654 q 526 417 526 515 q 596 249 526 318 q 764 179 665 179 q 932 249 863 179 q 1001 417 1001 318 z "},"x":{"ha":1528,"x_min":69,"x_max":1458,"o":"m 1008 -79 l 1011 -51 l 969 -72 q 764 -114 871 -114 q 658 -103 710 -114 q 558 -72 606 -92 l 517 -51 l 519 -79 q 606 -222 538 -165 q 764 -278 674 -278 q 922 -221 853 -278 q 1008 -79 990 -164 m 1210 417 q 1079 732 1210 601 q 764 863 949 863 q 449 732 579 863 q 318 417 318 601 q 449 101 318 232 q 764 -29 579 -29 q 1079 101 949 -29 q 1210 417 1210 232 m 461 417 q 550 631 461 542 q 764 719 639 719 q 978 631 889 719 q 1067 417 1067 542 q 978 203 1067 292 q 764 114 889 114 q 550 203 639 114 q 461 417 461 292 m 275 211 q 233 417 233 310 q 244 523 233 471 q 275 622 256 575 l 296 664 l 268 661 q 126 575 182 643 q 69 417 69 507 q 126 259 69 328 q 268 172 183 190 l 296 169 l 275 211 m 1260 172 q 1402 258 1346 190 q 1458 417 1458 326 q 1403 575 1458 507 q 1260 661 1347 643 l 1233 664 l 1253 622 q 1294 417 1294 524 q 1283 310 1294 363 q 1253 211 1272 258 l 1233 169 l 1260 172 m 976 417 q 914 567 976 504 q 764 629 851 629 q 614 567 676 629 q 551 417 551 504 q 614 267 551 329 q 764 204 676 204 q 914 267 851 204 q 976 417 976 329 m 1008 913 q 922 1055 990 999 q 764 1111 854 1111 q 606 1054 675 1111 q 519 913 538 997 l 517 885 l 558 906 q 764 947 657 947 q 870 936 818 947 q 969 906 922 925 l 1011 885 l 1008 913 z "},"y":{"ha":1528,"x_min":69,"x_max":1458,"o":"m 875 25 q 858 185 875 115 l 856 197 l 861 186 q 964 60 900 124 q 1096 -46 1028 -4 q 1208 -87 1164 -87 q 1253 -76 1236 -92 q 1269 -35 1269 -61 q 1228 81 1269 11 q 1119 218 1188 150 q 994 319 1057 281 l 983 325 l 996 322 q 1156 306 1065 306 q 1370 338 1282 306 q 1458 417 1458 369 q 1369 495 1458 463 q 1156 528 1279 528 q 996 511 1065 528 l 983 508 l 994 514 q 1119 615 1057 553 q 1228 753 1188 683 q 1269 868 1269 822 q 1256 908 1269 894 q 1215 922 1242 922 q 1100 881 1169 922 q 963 772 1031 840 q 861 647 900 710 l 856 636 l 858 649 q 875 808 875 718 q 843 1023 875 935 q 764 1111 811 1111 q 685 1022 718 1111 q 653 808 653 932 q 657 726 653 761 q 669 649 661 690 l 674 636 l 667 647 q 565 772 628 710 q 428 881 497 840 q 313 922 358 922 q 274 908 288 922 q 260 867 260 894 q 299 753 260 819 q 408 615 338 686 q 533 514 471 553 l 544 508 l 532 511 q 372 528 463 528 q 158 496 246 528 q 69 417 69 464 q 159 338 69 371 q 372 306 249 306 q 532 322 463 306 l 544 325 l 533 319 q 408 218 471 281 q 300 81 340 150 q 260 -35 260 11 q 275 -76 260 -61 q 321 -87 290 -92 q 431 -48 365 -87 q 565 61 496 -8 q 667 186 628 124 l 674 197 l 669 185 q 653 25 653 106 q 685 -190 653 -101 q 764 -278 717 -278 q 842 -188 810 -278 q 875 25 875 -99 m 690 157 q 699 253 690 208 l 728 243 q 764 240 740 240 q 800 243 789 240 l 829 253 l 829 249 l 836 207 l 838 157 q 816 14 838 72 q 764 -44 794 -44 q 713 15 735 -44 q 690 157 690 74 m 438 90 q 429 117 429 101 q 456 193 429 147 q 528 285 482 239 l 565 319 l 600 344 l 601 346 l 617 318 q 665 269 638 290 l 693 254 l 667 218 l 632 181 q 543 109 588 136 q 469 82 499 82 l 460 82 q 438 90 446 82 m 1058 82 q 985 108 1028 82 q 896 181 942 135 l 847 236 l 835 254 l 863 269 q 911 318 894 293 l 926 346 l 929 344 l 963 319 l 1000 285 q 1100 117 1100 188 q 1091 91 1100 100 q 1068 82 1082 82 l 1058 82 m 303 417 q 362 468 303 446 q 504 490 421 490 q 554 488 538 490 l 596 482 l 600 482 l 590 453 l 588 417 l 590 381 l 600 351 q 504 343 556 343 q 361 365 419 343 q 303 417 303 386 m 928 351 l 938 381 q 940 417 940 393 q 938 453 940 440 l 928 482 l 932 482 l 974 488 q 1001 490 986 490 q 1024 490 1015 490 q 1167 469 1108 490 q 1225 417 1225 447 q 1166 365 1225 388 q 1024 343 1107 343 q 928 351 972 343 m 583 500 l 528 549 q 456 640 482 594 q 429 717 429 686 q 438 744 429 735 q 464 753 447 753 q 540 726 496 753 q 632 653 585 700 l 667 615 l 692 582 l 693 579 l 665 564 q 617 515 638 543 l 601 488 l 583 500 m 911 515 q 892 540 901 531 q 863 564 882 550 l 835 579 l 847 597 l 896 653 q 988 725 940 697 q 1064 753 1035 753 q 1090 743 1081 753 q 1100 715 1100 733 q 1074 640 1100 685 q 1000 549 1047 596 l 944 500 l 926 488 l 911 515 m 690 676 q 712 819 690 761 q 764 878 733 878 q 815 819 793 878 q 838 676 838 760 l 836 626 l 829 585 l 829 581 l 800 590 l 764 593 l 728 590 l 699 581 q 690 676 690 625 z "},"z":{"ha":1528,"x_min":69,"x_max":1458,"o":"m 883 -97 l 896 -93 q 1025 -40 963 -75 l 1040 -29 l 1043 -32 q 1128 -78 1085 -61 q 1201 -94 1171 -94 q 1256 -75 1233 -94 q 1275 -19 1275 -53 q 1213 138 1275 47 l 1210 140 l 1219 154 q 1274 283 1256 215 l 1276 297 q 1410 344 1361 313 q 1458 417 1458 375 q 1408 488 1458 456 q 1278 536 1358 521 l 1274 550 q 1219 679 1256 619 l 1210 693 l 1213 696 q 1258 781 1242 738 q 1275 854 1275 824 q 1256 908 1275 886 q 1200 928 1233 928 q 1043 865 1133 928 l 1040 863 l 1025 874 q 896 926 963 908 l 883 929 q 836 1061 868 1011 q 764 1111 804 1111 q 692 1061 724 1111 q 644 931 660 1011 l 632 926 q 503 874 565 908 l 488 863 l 485 865 q 400 911 443 894 q 326 928 357 928 q 272 908 294 928 q 253 853 253 886 q 315 696 253 786 l 318 693 l 308 679 q 256 550 272 617 l 253 536 q 119 489 169 521 q 69 417 69 457 q 119 344 69 376 q 250 297 169 313 l 256 283 q 308 154 272 217 l 318 140 l 315 138 q 269 53 286 96 q 253 -21 253 10 q 272 -75 253 -53 q 328 -94 294 -94 q 485 -32 394 -94 l 488 -29 l 503 -40 q 632 -93 565 -75 l 644 -96 q 691 -229 660 -181 q 764 -278 722 -278 q 835 -228 803 -278 q 883 -97 868 -178 m 671 38 q 697 104 671 76 q 764 132 724 132 q 829 104 801 132 q 857 38 857 76 q 830 -28 857 -1 q 764 -56 803 -56 q 698 -28 725 -56 q 671 38 671 -1 m 671 250 q 698 316 671 289 q 764 343 725 343 q 830 316 803 343 q 857 250 857 289 q 830 184 857 211 q 764 157 803 157 q 698 184 725 157 q 671 250 671 211 m 292 417 q 319 483 292 456 q 385 510 346 510 q 451 483 424 510 q 479 417 479 457 q 451 351 479 379 q 385 324 424 324 q 319 351 346 324 q 292 417 292 378 m 504 417 q 531 483 504 456 q 597 510 558 510 q 663 483 636 510 q 690 417 690 456 q 663 351 690 378 q 597 324 636 324 q 531 351 558 324 q 504 417 504 378 m 838 417 q 865 483 838 456 q 931 510 892 510 q 997 483 969 510 q 1025 417 1025 457 q 997 351 1025 379 q 931 324 969 324 q 865 351 892 324 q 838 417 838 378 m 1049 417 q 1076 482 1049 454 q 1143 510 1104 510 q 1209 483 1182 510 q 1236 417 1236 456 q 1209 351 1236 378 q 1143 324 1182 324 q 1076 350 1104 324 q 1049 417 1049 376 m 671 583 q 698 649 671 622 q 764 676 725 676 q 830 649 803 676 q 857 583 857 622 q 830 517 857 544 q 764 490 803 490 q 698 517 725 490 q 671 583 671 544 m 671 796 q 698 862 671 835 q 764 889 725 889 q 830 862 803 889 q 857 796 857 835 q 831 729 857 757 q 764 701 804 701 q 699 729 726 701 q 671 796 671 757 z "}}}
